DINAH.ufo
<glyph name="exclam" format="1">
  <advance width="296"/>
  <unicode hex="0021"/>
  <outline>
    <contour>
      <point x="102" y="249" type="line"/>
      <point x="108" y="292"/>
      <point x="115" y="501"/>
      <point x="115" y="561" type="curve" smooth="yes"/>
      <point x="115" y="611"/>
      <point x="104" y="669"/>
      <point x="92" y="691" type="curve"/>
      <point x="157" y="791" type="line"/>
      <point x="161" y="797"/>
      <point x="165" y="800"/>
      <point x="169" y="800" type="curve" smooth="yes"/>
      <point x="192" y="800"/>
      <point x="202" y="675"/>
      <point x="202" y="533" type="curve" smooth="yes"/>
      <point x="202" y="408"/>
      <point x="194" y="270"/>
      <point x="180" y="196" type="curve"/>
    </contour>
    <contour>
      <point x="152" y="142" type="curve" smooth="yes"/>
      <point x="202" y="142"/>
      <point x="215" y="99"/>
      <point x="215" y="69" type="curve" smooth="yes"/>
      <point x="215" y="32"/>
      <point x="186" y="-2"/>
      <point x="148" y="-2" type="curve" smooth="yes"/>
      <point x="107" y="-2"/>
      <point x="81" y="32"/>
      <point x="81" y="69" type="curve" smooth="yes"/>
      <point x="81" y="77"/>
      <point x="81" y="83"/>
      <point x="83" y="89" type="curve" smooth="yes"/>
      <point x="91" y="122"/>
      <point x="123" y="142"/>
    </contour>
  </outline>
</glyph>
<glyph name="quotedbl" format="1">
  <advance width="279"/>
  <unicode hex="0022"/>
  <outline>
    <contour>
      <point x="28" y="798" type="line"/>
      <point x="33" y="775"/>
      <point x="34" y="701"/>
      <point x="36" y="665" type="curve" smooth="yes"/>
      <point x="37" y="654"/>
      <point x="37" y="636"/>
      <point x="37" y="619" type="curve" smooth="yes"/>
      <point x="37" y="595"/>
      <point x="36" y="571"/>
      <point x="32" y="563" type="curve"/>
      <point x="94" y="515" type="line"/>
      <point x="104" y="515"/>
      <point x="108" y="539"/>
      <point x="108" y="580" type="curve" smooth="yes"/>
      <point x="108" y="630"/>
      <point x="103" y="706"/>
      <point x="97" y="798" type="curve"/>
    </contour>
    <contour>
      <point x="158" y="798" type="line"/>
      <point x="163" y="775"/>
      <point x="164" y="701"/>
      <point x="166" y="665" type="curve" smooth="yes"/>
      <point x="167" y="654"/>
      <point x="167" y="636"/>
      <point x="167" y="619" type="curve" smooth="yes"/>
      <point x="167" y="595"/>
      <point x="166" y="571"/>
      <point x="162" y="563" type="curve"/>
      <point x="224" y="515" type="line"/>
      <point x="234" y="515"/>
      <point x="238" y="539"/>
      <point x="238" y="580" type="curve" smooth="yes"/>
      <point x="238" y="630"/>
      <point x="233" y="706"/>
      <point x="227" y="798" type="curve"/>
    </contour>
  </outline>
</glyph>
<glyph name="numbersign" format="1">
  <advance width="866"/>
  <unicode hex="0023"/>
  <outline>
    <contour>
      <point x="86" y="259" type="line"/>
      <point x="143" y="259"/>
      <point x="164" y="260"/>
      <point x="185" y="260" type="curve" smooth="yes"/>
      <point x="224" y="260" type="line"/>
      <point x="270" y="442" type="line"/>
      <point x="200" y="440"/>
      <point x="144" y="437"/>
      <point x="129" y="436" type="curve"/>
      <point x="151" y="523" type="line"/>
      <point x="246" y="523" type="line"/>
      <point x="290" y="523" type="line"/>
      <point x="294" y="542"/>
      <point x="298" y="556"/>
      <point x="300" y="564" type="curve" smooth="yes"/>
      <point x="310" y="604"/>
      <point x="320" y="649"/>
      <point x="320" y="676" type="curve" smooth="yes"/>
      <point x="320" y="683"/>
      <point x="319" y="688"/>
      <point x="318" y="692" type="curve"/>
      <point x="396" y="790" type="line"/>
      <point x="408" y="789"/>
      <point x="413" y="774"/>
      <point x="413" y="747" type="curve" smooth="yes"/>
      <point x="413" y="700"/>
      <point x="397" y="620"/>
      <point x="376" y="525" type="curve"/>
      <point x="380" y="525" type="line"/>
      <point x="535" y="525" type="line"/>
      <point x="560" y="525" type="line"/>
      <point x="570" y="564" type="line" smooth="yes"/>
      <point x="580" y="604"/>
      <point x="590" y="649"/>
      <point x="590" y="676" type="curve" smooth="yes"/>
      <point x="590" y="683"/>
      <point x="589" y="688"/>
      <point x="588" y="692" type="curve"/>
      <point x="666" y="790" type="line"/>
      <point x="678" y="789"/>
      <point x="683" y="774"/>
      <point x="683" y="747" type="curve" smooth="yes"/>
      <point x="683" y="700"/>
      <point x="667" y="619"/>
      <point x="646" y="524" type="curve"/>
      <point x="752" y="521"/>
      <point x="801" y="513"/>
      <point x="801" y="488" type="curve" smooth="yes"/>
      <point x="801" y="484" type="line"/>
      <point x="688" y="440" type="line"/>
      <point x="684" y="442"/>
      <point x="681" y="444"/>
      <point x="679" y="446" type="curve" smooth="yes"/>
      <point x="671" y="452"/>
      <point x="671" y="452"/>
      <point x="630" y="452" type="curve"/>
      <point x="595" y="302" type="line" smooth="yes"/>
      <point x="592" y="288"/>
      <point x="589" y="274"/>
      <point x="585" y="261" type="curve"/>
      <point x="692" y="259"/>
      <point x="741" y="251"/>
      <point x="741" y="225" type="curve" smooth="yes"/>
      <point x="741" y="221" type="line"/>
      <point x="628" y="177" type="line"/>
      <point x="624" y="179"/>
      <point x="622" y="182"/>
      <point x="620" y="183" type="curve" smooth="yes"/>
      <point x="614" y="187"/>
      <point x="612" y="188"/>
      <point x="596" y="188" type="curve" smooth="yes"/>
      <point x="569" y="188" type="line"/>
      <point x="566" y="188" type="line"/>
      <point x="563" y="172" type="line" smooth="yes"/>
      <point x="549" y="112"/>
      <point x="536" y="50"/>
      <point x="525" y="0" type="curve"/>
      <point x="425" y="1" type="line"/>
      <point x="431" y="17"/>
      <point x="452" y="94"/>
      <point x="475" y="186" type="curve"/>
      <point x="295" y="181" type="line"/>
      <point x="294" y="178"/>
      <point x="293" y="175"/>
      <point x="293" y="172" type="curve"/>
      <point x="279" y="112"/>
      <point x="266" y="50"/>
      <point x="255" y="0" type="curve"/>
      <point x="155" y="1" type="line"/>
      <point x="161" y="17"/>
      <point x="180" y="90"/>
      <point x="203" y="178" type="curve"/>
      <point x="136" y="175"/>
      <point x="80" y="173"/>
      <point x="65" y="171" type="curve"/>
    </contour>
    <contour>
      <point x="315" y="262" type="curve"/>
      <point x="319" y="262" type="line"/>
      <point x="474" y="262" type="line"/>
      <point x="495" y="262" type="line"/>
      <point x="542" y="450" type="line"/>
      <point x="490" y="448"/>
      <point x="423" y="447"/>
      <point x="358" y="445" type="curve"/>
      <point x="325" y="302" type="line" smooth="yes"/>
      <point x="322" y="288"/>
      <point x="319" y="275"/>
    </contour>
  </outline>
</glyph>
<glyph name="dollar" format="1">
  <advance width="743"/>
  <unicode hex="0024"/>
  <outline>
    <contour>
      <point x="336" y="-42" type="line"/>
      <point x="339" y="-6" type="line"/>
      <point x="258" y="3"/>
      <point x="113" y="81"/>
      <point x="105" y="92" type="curve"/>
      <point x="105" y="100"/>
      <point x="104" y="108"/>
      <point x="104" y="116" type="curve" smooth="yes"/>
      <point x="104" y="191"/>
      <point x="119" y="254"/>
      <point x="149" y="310" type="curve"/>
      <point x="201" y="292" type="line"/>
      <point x="196" y="272"/>
      <point x="194" y="255"/>
      <point x="194" y="238" type="curve" smooth="yes"/>
      <point x="194" y="132"/>
      <point x="278" y="111"/>
      <point x="340" y="107" type="curve"/>
      <point x="340" y="309" type="line"/>
      <point x="340" y="371" type="line"/>
      <point x="243" y="423"/>
      <point x="143" y="466"/>
      <point x="143" y="508" type="curve" smooth="yes"/>
      <point x="143" y="510"/>
      <point x="143" y="512"/>
      <point x="144" y="514" type="curve" smooth="yes"/>
      <point x="159" y="577"/>
      <point x="257" y="731"/>
      <point x="334" y="789" type="curve"/>
      <point x="331" y="813"/>
      <point x="328" y="833"/>
      <point x="324" y="841" type="curve"/>
      <point x="376" y="870" type="line"/>
      <point x="382" y="870"/>
      <point x="387" y="848"/>
      <point x="391" y="810" type="curve"/>
      <point x="464" y="797"/>
      <point x="581" y="732"/>
      <point x="581" y="723" type="curve" smooth="yes"/>
      <point x="581" y="710"/>
      <point x="580" y="694"/>
      <point x="580" y="674" type="curve" smooth="yes"/>
      <point x="580" y="629"/>
      <point x="570" y="568"/>
      <point x="546" y="510" type="curve"/>
      <point x="503" y="527" type="line"/>
      <point x="508" y="541"/>
      <point x="509" y="555"/>
      <point x="510" y="570" type="curve"/>
      <point x="510" y="628"/>
      <point x="444" y="687"/>
      <point x="397" y="705" type="curve"/>
      <point x="400" y="644"/>
      <point x="401" y="569"/>
      <point x="401" y="489" type="curve"/>
      <point x="513" y="419"/>
      <point x="646" y="326"/>
      <point x="646" y="279" type="curve" smooth="yes"/>
      <point x="646" y="274" type="line"/>
      <point x="632" y="212"/>
      <point x="499" y="60"/>
      <point x="402" y="9" type="curve"/>
      <point x="402" y="-48" type="line"/>
    </contour>
    <contour>
      <point x="510" y="229" type="curve"/>
      <point x="510" y="232" type="line"/>
      <point x="493" y="271"/>
      <point x="451" y="305"/>
      <point x="402" y="336" type="curve"/>
      <point x="402" y="112" type="line"/>
      <point x="491" y="133"/>
      <point x="510" y="213"/>
    </contour>
    <contour>
      <point x="250" y="579" type="curve"/>
      <point x="250" y="579"/>
      <point x="288" y="558"/>
      <point x="340" y="527" type="curve"/>
      <point x="340" y="656" type="line" smooth="yes"/>
      <point x="340" y="668"/>
      <point x="340" y="684"/>
      <point x="339" y="702" type="curve"/>
      <point x="302" y="683"/>
      <point x="261" y="631"/>
    </contour>
  </outline>
</glyph>
<glyph name="percent" format="1">
  <advance width="833"/>
  <unicode hex="0025"/>
  <outline>
    <contour>
      <point x="176" y="430" type="curve" smooth="yes"/>
      <point x="231" y="430"/>
      <point x="364" y="555"/>
      <point x="364" y="602" type="curve"/>
      <point x="366" y="629"/>
      <point x="368" y="639"/>
      <point x="368" y="649" type="curve" smooth="yes"/>
      <point x="368" y="730"/>
      <point x="332" y="801"/>
      <point x="210" y="801" type="curve" smooth="yes"/>
      <point x="153" y="801"/>
      <point x="20" y="676"/>
      <point x="20" y="629" type="curve" smooth="yes"/>
      <point x="20" y="531"/>
      <point x="30" y="430"/>
    </contour>
    <contour>
      <point x="572" y="-6" type="curve" smooth="yes"/>
      <point x="627" y="-6"/>
      <point x="760" y="119"/>
      <point x="760" y="166" type="curve"/>
      <point x="762" y="193"/>
      <point x="764" y="203"/>
      <point x="764" y="213" type="curve" smooth="yes"/>
      <point x="764" y="294"/>
      <point x="728" y="365"/>
      <point x="606" y="365" type="curve" smooth="yes"/>
      <point x="549" y="365"/>
      <point x="416" y="240"/>
      <point x="416" y="193" type="curve" smooth="yes"/>
      <point x="416" y="95"/>
      <point x="426" y="-6"/>
    </contour>
    <contour>
      <point x="75" y="-7" type="line"/>
      <point x="104" y="29"/>
      <point x="423" y="552"/>
      <point x="455" y="605" type="curve" smooth="yes"/>
      <point x="477" y="640"/>
      <point x="501" y="680"/>
      <point x="509" y="705" type="curve" smooth="yes"/>
      <point x="511" y="712"/>
      <point x="512" y="717"/>
      <point x="512" y="721" type="curve"/>
      <point x="617" y="790" type="line"/>
      <point x="623" y="787"/>
      <point x="626" y="781"/>
      <point x="626" y="773" type="curve" smooth="yes"/>
      <point x="626" y="765"/>
      <point x="623" y="756"/>
      <point x="619" y="744" type="curve" smooth="yes"/>
      <point x="601" y="689"/>
      <point x="544" y="592"/>
      <point x="478" y="481" type="curve"/>
      <point x="397" y="348" type="line" smooth="yes"/>
      <point x="374" y="309"/>
      <point x="349" y="272"/>
      <point x="327" y="235" type="curve" smooth="yes"/>
      <point x="184" y="-3" type="line"/>
    </contour>
    <contour>
      <point x="671" y="84" type="curve"/>
      <point x="652" y="75"/>
      <point x="634" y="71"/>
      <point x="616" y="71" type="curve" smooth="yes"/>
      <point x="547" y="71"/>
      <point x="492" y="134"/>
      <point x="492" y="203" type="curve" smooth="yes"/>
      <point x="492" y="230"/>
      <point x="501" y="259"/>
      <point x="521" y="284" type="curve"/>
      <point x="544" y="296"/>
      <point x="565" y="301"/>
      <point x="584" y="301" type="curve" smooth="yes"/>
      <point x="652" y="301"/>
      <point x="692" y="234"/>
      <point x="692" y="165" type="curve" smooth="yes"/>
      <point x="692" y="137"/>
      <point x="686" y="108"/>
    </contour>
    <contour>
      <point x="275" y="520" type="curve"/>
      <point x="256" y="511"/>
      <point x="238" y="507"/>
      <point x="220" y="507" type="curve" smooth="yes"/>
      <point x="151" y="507"/>
      <point x="96" y="570"/>
      <point x="96" y="639" type="curve" smooth="yes"/>
      <point x="96" y="666"/>
      <point x="105" y="695"/>
      <point x="125" y="720" type="curve"/>
      <point x="148" y="732"/>
      <point x="169" y="737"/>
      <point x="188" y="737" type="curve" smooth="yes"/>
      <point x="256" y="737"/>
      <point x="296" y="670"/>
      <point x="296" y="601" type="curve" smooth="yes"/>
      <point x="296" y="573"/>
      <point x="290" y="544"/>
    </contour>
  </outline>
</glyph>
<glyph name="ampersand" format="1">
  <advance width="737"/>
  <unicode hex="0026"/>
  <outline>
    <contour>
      <point x="551" y="159" type="line"/>
      <point x="577" y="127"/>
      <point x="640" y="48"/>
      <point x="640" y="9" type="curve" smooth="yes"/>
      <point x="640" y="1"/>
      <point x="637" y="-6"/>
      <point x="631" y="-10" type="curve"/>
      <point x="559" y="0" type="line"/>
      <point x="556" y="25"/>
      <point x="505" y="101"/>
      <point x="505" y="101" type="curve"/>
      <point x="376" y="-13"/>
      <point x="275" y="-17" type="qcurve"/>
      <point x="187" y="-20"/>
      <point x="91" y="83"/>
      <point x="83" y="163" type="qcurve"/>
      <point x="83" y="321"/>
      <point x="285" y="395" type="qcurve"/>
      <point x="267" y="426"/>
      <point x="226" y="499"/>
      <point x="226" y="566" type="curve" smooth="yes"/>
      <point x="226" y="622"/>
      <point x="257" y="672"/>
      <point x="362" y="682" type="curve" smooth="yes"/>
      <point x="367" y="682"/>
      <point x="372" y="683"/>
      <point x="377" y="683" type="curve" smooth="yes"/>
      <point x="450" y="683"/>
      <point x="492" y="628"/>
      <point x="492" y="562" type="curve" smooth="yes"/>
      <point x="492" y="501"/>
      <point x="460" y="425"/>
      <point x="378" y="382" type="curve"/>
      <point x="519" y="202" type="line"/>
      <point x="519" y="202"/>
      <point x="553" y="285"/>
      <point x="553" y="365" type="curve" smooth="yes"/>
      <point x="553" y="372"/>
      <point x="553" y="379"/>
      <point x="552" y="386" type="curve" smooth="yes"/>
      <point x="552" y="389"/>
      <point x="625" y="402"/>
      <point x="625" y="402" type="curve"/>
      <point x="626" y="400"/>
      <point x="626" y="397"/>
      <point x="626" y="394" type="curve" smooth="yes"/>
      <point x="626" y="345"/>
      <point x="546" y="166"/>
      <point x="546" y="166" type="curve"/>
    </contour>
    <contour>
      <point x="480" y="136" type="curve"/>
      <point x="318" y="337"/>
      <point x="316" y="343"/>
      <point x="304" y="358" type="curve"/>
      <point x="216" y="333"/>
      <point x="176" y="293"/>
      <point x="176" y="240" type="curve" smooth="yes"/>
      <point x="176" y="209"/>
      <point x="190" y="173"/>
      <point x="216" y="134" type="curve" smooth="yes"/>
      <point x="258" y="69"/>
      <point x="294" y="43"/>
      <point x="331" y="43" type="curve" smooth="yes"/>
      <point x="353" y="43"/>
      <point x="376" y="52"/>
      <point x="399" y="68" type="curve" smooth="yes"/>
      <point x="409" y="74"/>
      <point x="470" y="128"/>
    </contour>
    <contour>
      <point x="312" y="634" type="curve"/>
      <point x="304" y="618"/>
      <point x="300" y="598"/>
      <point x="300" y="576" type="curve" smooth="yes"/>
      <point x="300" y="506"/>
      <point x="336" y="420"/>
      <point x="360" y="420" type="curve" smooth="yes"/>
      <point x="363" y="420"/>
      <point x="365" y="421"/>
      <point x="368" y="424" type="curve"/>
      <point x="399" y="438"/>
      <point x="415" y="483"/>
      <point x="415" y="530" type="curve" smooth="yes"/>
      <point x="415" y="587"/>
      <point x="392" y="644"/>
      <point x="347" y="644" type="curve" smooth="yes"/>
      <point x="337" y="644"/>
      <point x="325" y="641"/>
    </contour>
  </outline>
</glyph>
<glyph name="quotesingle" format="1">
  <advance width="145"/>
  <unicode hex="0027"/>
  <outline>
    <contour>
      <point x="28" y="798" type="line"/>
      <point x="33" y="775"/>
      <point x="34" y="701"/>
      <point x="36" y="665" type="curve" smooth="yes"/>
      <point x="38" y="637"/>
      <point x="39" y="576"/>
      <point x="32" y="563" type="curve"/>
      <point x="94" y="515" type="line"/>
      <point x="117" y="516"/>
      <point x="107" y="631"/>
      <point x="97" y="798" type="curve"/>
    </contour>
  </outline>
</glyph>
<glyph name="parenleft" format="1">
  <advance width="305"/>
  <unicode hex="0028"/>
  <outline>
    <contour>
      <point x="257" y="813" type="line"/>
      <point x="257" y="813"/>
      <point x="24" y="602"/>
      <point x="24" y="245" type="curve" smooth="yes"/>
      <point x="24" y="240" type="line" smooth="yes"/>
      <point x="29" y="-118"/>
      <point x="279" y="-310"/>
      <point x="279" y="-310" type="curve"/>
      <point x="316" y="-310" type="line"/>
      <point x="240" y="-192"/>
      <point x="131" y="-75"/>
      <point x="131" y="217" type="curve" smooth="yes"/>
      <point x="131" y="230"/>
      <point x="132" y="243"/>
      <point x="132" y="256" type="curve" smooth="yes"/>
      <point x="138" y="474"/>
      <point x="162" y="605"/>
      <point x="286" y="785" type="curve"/>
    </contour>
  </outline>
</glyph>
<glyph name="parenright" format="1">
  <advance width="288"/>
  <unicode hex="0029"/>
  <outline>
    <contour>
      <point x="31" y="813" type="line"/>
      <point x="31" y="813"/>
      <point x="264" y="602"/>
      <point x="264" y="245" type="curve" smooth="yes"/>
      <point x="264" y="240" type="line" smooth="yes"/>
      <point x="259" y="-118"/>
      <point x="9" y="-310"/>
      <point x="9" y="-310" type="curve"/>
      <point x="-28" y="-310" type="line"/>
      <point x="48" y="-192"/>
      <point x="157" y="-75"/>
      <point x="157" y="217" type="curve" smooth="yes"/>
      <point x="157" y="230"/>
      <point x="156" y="243"/>
      <point x="156" y="256" type="curve" smooth="yes"/>
      <point x="150" y="474"/>
      <point x="126" y="605"/>
      <point x="2" y="785" type="curve"/>
    </contour>
  </outline>
</glyph>
<glyph name="asterisk" format="1">
  <advance width="400"/>
  <unicode hex="002A"/>
  <outline>
    <contour>
      <point x="181" y="829" type="line"/>
      <point x="181" y="801"/>
      <point x="183" y="691"/>
      <point x="190" y="657" type="curve"/>
      <point x="170" y="670"/>
      <point x="121" y="738"/>
      <point x="104" y="772" type="curve"/>
      <point x="30" y="750" type="line"/>
      <point x="37" y="727"/>
      <point x="134" y="665"/>
      <point x="183" y="645" type="curve"/>
      <point x="164" y="633"/>
      <point x="79" y="616"/>
      <point x="42" y="613" type="curve"/>
      <point x="35" y="537" type="line"/>
      <point x="67" y="538"/>
      <point x="158" y="591"/>
      <point x="191" y="634" type="curve"/>
      <point x="178" y="593"/>
      <point x="171" y="519"/>
      <point x="151" y="473" type="curve"/>
      <point x="219" y="461" type="line"/>
      <point x="219" y="490"/>
      <point x="214" y="597"/>
      <point x="206" y="632" type="curve"/>
      <point x="227" y="618"/>
      <point x="280" y="555"/>
      <point x="300" y="518" type="curve"/>
      <point x="374" y="542" type="line"/>
      <point x="366" y="565"/>
      <point x="264" y="625"/>
      <point x="211" y="645" type="curve"/>
      <point x="231" y="662"/>
      <point x="314" y="692"/>
      <point x="357" y="700" type="curve"/>
      <point x="357" y="777" type="line"/>
      <point x="335" y="776"/>
      <point x="255" y="726"/>
      <point x="226" y="685" type="curve" smooth="yes"/>
      <point x="205" y="655" type="line"/>
      <point x="205" y="686"/>
      <point x="230" y="786"/>
      <point x="249" y="819" type="curve" smooth="yes"/>
    </contour>
  </outline>
</glyph>
<glyph name="plus" format="1">
  <advance width="645"/>
  <unicode hex="002B"/>
  <outline>
    <contour>
      <point x="96" y="317" type="line"/>
      <point x="191" y="317" type="line"/>
      <point x="274" y="317" type="line"/>
      <point x="275" y="351"/>
      <point x="276" y="380"/>
      <point x="276" y="395" type="curve" smooth="yes"/>
      <point x="276" y="445"/>
      <point x="272" y="452"/>
      <point x="267" y="485" type="curve"/>
      <point x="316" y="564" type="line" smooth="yes"/>
      <point x="320" y="571"/>
      <point x="323" y="574"/>
      <point x="327" y="574" type="curve" smooth="yes"/>
      <point x="350" y="574"/>
      <point x="352" y="503"/>
      <point x="352" y="358" type="curve" smooth="yes"/>
      <point x="352" y="319" type="line"/>
      <point x="570" y="319" type="line"/>
      <point x="528" y="243" type="line"/>
      <point x="499" y="241"/>
      <point x="491" y="246"/>
      <point x="465" y="246" type="curve"/>
      <point x="445" y="245"/>
      <point x="401" y="245"/>
      <point x="350" y="244" type="curve"/>
      <point x="347" y="159"/>
      <point x="340" y="80"/>
      <point x="331" y="30" type="curve"/>
      <point x="258" y="32" type="line"/>
      <point x="261" y="57"/>
      <point x="267" y="154"/>
      <point x="271" y="243" type="curve"/>
      <point x="184" y="242"/>
      <point x="98" y="239"/>
      <point x="75" y="237" type="curve"/>
    </contour>
  </outline>
</glyph>
<glyph name="hyphen" format="1">
  <advance width="431"/>
  <unicode hex="002D"/>
  <outline>
    <contour>
      <point x="96" y="287" type="line"/>
      <point x="191" y="287" type="line" smooth="yes"/>
      <point x="235" y="287"/>
      <point x="280" y="288"/>
      <point x="325" y="289" type="curve"/>
      <point x="356" y="289" type="line"/>
      <point x="314" y="213" type="line"/>
      <point x="285" y="211"/>
      <point x="277" y="216"/>
      <point x="251" y="216" type="curve" smooth="yes"/>
      <point x="189" y="215"/>
      <point x="121" y="212"/>
      <point x="75" y="207" type="curve"/>
    </contour>
  </outline>
</glyph>
<glyph name="period" format="1">
  <advance width="201"/>
  <unicode hex="002E"/>
  <outline>
    <contour>
      <point x="110" y="142" type="curve" smooth="yes"/>
      <point x="81" y="142"/>
      <point x="49" y="122"/>
      <point x="41" y="89" type="curve" smooth="yes"/>
      <point x="39" y="83"/>
      <point x="39" y="77"/>
      <point x="39" y="69" type="curve" smooth="yes"/>
      <point x="39" y="32"/>
      <point x="65" y="-2"/>
      <point x="106" y="-2" type="curve" smooth="yes"/>
      <point x="144" y="-2"/>
      <point x="173" y="32"/>
      <point x="173" y="69" type="curve" smooth="yes"/>
      <point x="173" y="99"/>
      <point x="160" y="142"/>
    </contour>
  </outline>
</glyph>
<glyph name="slash" format="1">
  <advance width="526"/>
  <unicode hex="002F"/>
  <outline>
    <contour>
      <point x="75" y="-11" type="line"/>
      <point x="100" y="25"/>
      <point x="372" y="561"/>
      <point x="399" y="616" type="curve" smooth="yes"/>
      <point x="418" y="652"/>
      <point x="439" y="693"/>
      <point x="444" y="718" type="curve" smooth="yes"/>
      <point x="446" y="725"/>
      <point x="446" y="730"/>
      <point x="446" y="734" type="curve"/>
      <point x="545" y="807" type="line"/>
      <point x="556" y="803"/>
      <point x="558" y="787"/>
      <point x="551" y="762" type="curve" smooth="yes"/>
      <point x="538" y="706"/>
      <point x="490" y="606"/>
      <point x="434" y="493" type="curve"/>
      <point x="365" y="356" type="line" smooth="yes"/>
      <point x="345" y="316"/>
      <point x="323" y="278"/>
      <point x="305" y="240" type="curve" smooth="yes"/>
      <point x="277" y="186"/>
      <point x="205" y="41"/>
      <point x="183" y="-3" type="curve"/>
    </contour>
  </outline>
</glyph>
<glyph name="zero" format="1">
  <advance width="484"/>
  <unicode hex="0030"/>
  <outline>
    <contour>
      <point x="344" y="112" type="curve"/>
      <point x="189" y="39"/>
      <point x="51" y="232"/>
      <point x="155" y="362" type="curve"/>
      <point x="329" y="453"/>
      <point x="418" y="234"/>
    </contour>
    <contour>
      <point x="220" y="0" type="curve" smooth="yes"/>
      <point x="289" y="0"/>
      <point x="455" y="156"/>
      <point x="455" y="215" type="curve"/>
      <point x="471" y="337"/>
      <point x="445" y="463"/>
      <point x="262" y="463" type="curve" smooth="yes"/>
      <point x="191" y="463"/>
      <point x="25" y="307"/>
      <point x="25" y="248" type="curve" smooth="yes"/>
      <point x="25" y="126"/>
      <point x="37" y="0"/>
    </contour>
  </outline>
</glyph>
<glyph name="one" format="1">
  <advance width="231"/>
  <unicode hex="0031"/>
  <outline>
    <contour>
      <point x="205" y="2" type="line"/>
      <point x="199" y="266"/>
      <point x="215" y="424"/>
      <point x="188" y="457" type="curve"/>
      <point x="178" y="471" type="line"/>
      <point x="158" y="473"/>
      <point x="62" y="415"/>
      <point x="26" y="377" type="curve"/>
      <point x="32" y="363" type="line"/>
      <point x="42" y="365"/>
      <point x="97" y="378"/>
      <point x="99" y="378" type="curve"/>
      <point x="117" y="357"/>
      <point x="117" y="290"/>
      <point x="117" y="240" type="curve" smooth="yes"/>
      <point x="117" y="177"/>
      <point x="111" y="41"/>
      <point x="105" y="0" type="curve"/>
    </contour>
  </outline>
</glyph>
<glyph name="two" format="1">
  <advance width="479"/>
  <unicode hex="0032"/>
  <outline>
    <contour>
      <point x="221" y="463" type="curve"/>
      <point x="160" y="457"/>
      <point x="85" y="346"/>
      <point x="92" y="344" type="curve"/>
      <point x="94" y="338"/>
      <point x="129" y="298"/>
      <point x="150" y="283" type="curve"/>
      <point x="180" y="345"/>
      <point x="288" y="403"/>
      <point x="335" y="325" type="curve"/>
      <point x="324" y="299"/>
      <point x="323" y="302"/>
      <point x="302" y="269" type="curve" smooth="yes"/>
      <point x="271" y="219"/>
      <point x="180" y="99"/>
      <point x="146" y="64" type="curve"/>
      <point x="145" y="64"/>
      <point x="145" y="65"/>
      <point x="145" y="65" type="curve"/>
      <point x="82" y="14" type="line"/>
      <point x="82" y="-10"/>
      <point x="225" y="4"/>
      <point x="436" y="0" type="curve"/>
      <point x="475" y="81" type="line"/>
      <point x="452" y="79"/>
      <point x="338" y="63"/>
      <point x="272" y="58" type="curve"/>
      <point x="352" y="181"/>
      <point x="394" y="247"/>
      <point x="406" y="292" type="curve" smooth="yes"/>
      <point x="408" y="301"/>
      <point x="410" y="309"/>
      <point x="410" y="316" type="curve" smooth="yes"/>
      <point x="410" y="368"/>
      <point x="282" y="471"/>
    </contour>
  </outline>
</glyph>
<glyph name="three" format="1">
  <advance width="461"/>
  <unicode hex="0033"/>
  <outline>
    <contour>
      <point x="63" y="343" type="line" smooth="yes"/>
      <point x="65" y="339"/>
      <point x="99" y="294"/>
      <point x="120" y="284" type="curve"/>
      <point x="139" y="323"/>
      <point x="187" y="361"/>
      <point x="232" y="361" type="curve" smooth="yes"/>
      <point x="253" y="361"/>
      <point x="271" y="351"/>
      <point x="281" y="325" type="curve" smooth="yes"/>
      <point x="291" y="297"/>
      <point x="296" y="269"/>
      <point x="296" y="242" type="curve" smooth="yes"/>
      <point x="296" y="153"/>
      <point x="255" y="90"/>
      <point x="192" y="90" type="curve" smooth="yes"/>
      <point x="180" y="90"/>
      <point x="167" y="93"/>
      <point x="154" y="99" type="curve"/>
      <point x="144" y="67" type="line"/>
      <point x="189" y="49"/>
      <point x="243" y="43"/>
      <point x="269" y="43" type="curve"/>
      <point x="312" y="13"/>
      <point x="343" y="-36"/>
      <point x="343" y="-109" type="curve" smooth="yes"/>
      <point x="343" y="-144"/>
      <point x="297" y="-293"/>
      <point x="174" y="-293" type="curve" smooth="yes"/>
      <point x="126" y="-293"/>
      <point x="114" y="-245"/>
      <point x="114" y="-203" type="curve"/>
      <point x="93" y="-193"/>
      <point x="30" y="-191"/>
      <point x="24" y="-191" type="curve"/>
      <point x="20" y="-208"/>
      <point x="18" y="-222"/>
      <point x="18" y="-235" type="curve" smooth="yes"/>
      <point x="18" y="-340"/>
      <point x="140" y="-343"/>
      <point x="237" y="-343" type="curve" smooth="yes"/>
      <point x="336" y="-343"/>
      <point x="457" y="-236"/>
      <point x="457" y="-140" type="curve" smooth="yes"/>
      <point x="457" y="-78"/>
      <point x="403" y="4"/>
      <point x="327" y="62" type="curve"/>
      <point x="372" y="92"/>
      <point x="391" y="149"/>
      <point x="391" y="206" type="curve" smooth="yes"/>
      <point x="391" y="236"/>
      <point x="386" y="267"/>
      <point x="376" y="292" type="curve" smooth="yes"/>
      <point x="358" y="333"/>
      <point x="231" y="464"/>
      <point x="182" y="464" type="curve" smooth="yes"/>
      <point x="179" y="464"/>
      <point x="177" y="464"/>
      <point x="175" y="463" type="curve" smooth="yes"/>
      <point x="127" y="448"/>
      <point x="62" y="356"/>
      <point x="62" y="344" type="curve"/>
    </contour>
  </outline>
</glyph>
<glyph name="four" format="1">
  <advance width="601"/>
  <unicode hex="0034"/>
  <outline>
    <contour>
      <point x="560" y="22" type="line"/>
      <point x="552" y="20"/>
      <point x="513" y="17"/>
      <point x="462" y="13" type="curve"/>
      <point x="463" y="251"/>
      <point x="463" y="475"/>
      <point x="436" y="475" type="curve"/>
      <point x="396" y="446" type="line"/>
      <point x="396" y="446"/>
      <point x="397" y="447"/>
      <point x="397" y="448" type="curve" smooth="yes"/>
      <point x="396" y="447"/>
      <point x="395" y="445"/>
      <point x="393" y="444" type="curve" smooth="yes"/>
      <point x="355" y="416" type="line"/>
      <point x="355" y="415"/>
      <point x="356" y="414"/>
      <point x="356" y="412" type="curve"/>
      <point x="331" y="390"/>
      <point x="300" y="362"/>
      <point x="286" y="337" type="curve"/>
      <point x="264" y="271"/>
      <point x="149" y="53"/>
      <point x="95" y="4" type="curve" smooth="yes"/>
      <point x="41" y="-45" type="line"/>
      <point x="42" y="-64"/>
      <point x="214" y="-60"/>
      <point x="377" y="-58" type="curve"/>
      <point x="374" y="-154"/>
      <point x="368" y="-315"/>
      <point x="363" y="-347" type="curve"/>
      <point x="463" y="-345" type="line"/>
      <point x="461" y="-261"/>
      <point x="461" y="-160"/>
      <point x="462" y="-58" type="curve"/>
      <point x="483" y="-58"/>
      <point x="506" y="-58"/>
      <point x="526" y="-59" type="curve"/>
    </contour>
    <contour>
      <point x="378" y="8" type="curve"/>
      <point x="306" y="3"/>
      <point x="233" y="-1"/>
      <point x="196" y="-2" type="curve"/>
      <point x="260" y="120"/>
      <point x="321" y="236"/>
      <point x="364" y="349" type="curve"/>
      <point x="372" y="247"/>
      <point x="377" y="59"/>
    </contour>
  </outline>
</glyph>
<glyph name="five" format="1">
  <advance width="538"/>
  <unicode hex="0035"/>
  <outline>
    <contour>
      <point x="520" y="398" type="line"/>
      <point x="497" y="394"/>
      <point x="309" y="381"/>
      <point x="253" y="381" type="curve" smooth="yes"/>
      <point x="243" y="381" type="line" smooth="yes"/>
      <point x="213" y="381"/>
      <point x="168" y="382"/>
      <point x="156" y="388" type="curve"/>
      <point x="100" y="333" type="line"/>
      <point x="99" y="333" type="line"/>
      <point x="99" y="332" type="line"/>
      <point x="91" y="324" type="line"/>
      <point x="91" y="321"/>
      <point x="95" y="318"/>
      <point x="100" y="315" type="curve"/>
      <point x="101" y="307"/>
      <point x="101" y="299"/>
      <point x="101" y="290" type="curve" smooth="yes"/>
      <point x="101" y="228"/>
      <point x="90" y="156"/>
      <point x="79" y="83" type="curve"/>
      <point x="118" y="84" type="line"/>
      <point x="118" y="83" type="line"/>
      <point x="221" y="86"/>
      <point x="343" y="28"/>
      <point x="343" y="-79" type="curve" smooth="yes"/>
      <point x="343" y="-114"/>
      <point x="297" y="-263"/>
      <point x="174" y="-263" type="curve" smooth="yes"/>
      <point x="126" y="-263"/>
      <point x="114" y="-215"/>
      <point x="114" y="-173" type="curve"/>
      <point x="93" y="-163"/>
      <point x="30" y="-161"/>
      <point x="24" y="-161" type="curve"/>
      <point x="20" y="-178"/>
      <point x="18" y="-192"/>
      <point x="18" y="-205" type="curve" smooth="yes"/>
      <point x="18" y="-310"/>
      <point x="140" y="-313"/>
      <point x="237" y="-313" type="curve" smooth="yes"/>
      <point x="336" y="-313"/>
      <point x="457" y="-206"/>
      <point x="457" y="-110" type="curve" smooth="yes"/>
      <point x="457" y="-5"/>
      <point x="304" y="127"/>
      <point x="146" y="132" type="curve"/>
      <point x="150" y="189"/>
      <point x="153" y="215"/>
      <point x="153" y="246" type="curve" smooth="yes"/>
      <point x="153" y="262"/>
      <point x="152" y="280"/>
      <point x="151" y="305" type="curve"/>
      <point x="174" y="302"/>
      <point x="203" y="301"/>
      <point x="235" y="301" type="curve" smooth="yes"/>
      <point x="283" y="301"/>
      <point x="340" y="302"/>
      <point x="398" y="302" type="curve" smooth="yes"/>
      <point x="427" y="302"/>
      <point x="450" y="303"/>
      <point x="479" y="302" type="curve"/>
    </contour>
  </outline>
</glyph>
<glyph name="six" format="1">
  <advance width="523"/>
  <unicode hex="0036"/>
  <outline>
    <contour>
      <point x="251" y="-2" type="curve"/>
      <point x="320" y="-1"/>
      <point x="477" y="153"/>
      <point x="477" y="213" type="curve" smooth="yes"/>
      <point x="477" y="335"/>
      <point x="464" y="461"/>
      <point x="274" y="461" type="curve" smooth="yes"/>
      <point x="236" y="461"/>
      <point x="195" y="427"/>
      <point x="168" y="405" type="curve"/>
      <point x="163" y="401" type="line"/>
      <point x="206" y="607"/>
      <point x="266" y="730"/>
      <point x="355" y="730" type="curve" smooth="yes"/>
      <point x="394" y="730"/>
      <point x="404" y="718"/>
      <point x="437" y="695" type="curve"/>
      <point x="451" y="721" type="line"/>
      <point x="430" y="744"/>
      <point x="375" y="806"/>
      <point x="322" y="806" type="curve" smooth="yes"/>
      <point x="135" y="806"/>
      <point x="55" y="346"/>
      <point x="46" y="255" type="curve"/>
      <point x="45" y="251"/>
      <point x="45" y="247"/>
      <point x="45" y="244" type="curve" smooth="yes"/>
      <point x="51" y="122"/>
      <point x="68" y="-2"/>
    </contour>
    <contour>
      <point x="162" y="354" type="curve" smooth="yes"/>
      <point x="194" y="370"/>
      <point x="222" y="376"/>
      <point x="247" y="376" type="curve" smooth="yes"/>
      <point x="339" y="376"/>
      <point x="384" y="283"/>
      <point x="384" y="193" type="curve" smooth="yes"/>
      <point x="384" y="162"/>
      <point x="379" y="131"/>
      <point x="368" y="105" type="curve"/>
      <point x="342" y="93"/>
      <point x="316" y="88"/>
      <point x="293" y="88" type="curve" smooth="yes"/>
      <point x="199" y="88"/>
      <point x="136" y="171"/>
      <point x="136" y="260" type="curve" smooth="yes"/>
      <point x="136" y="294"/>
      <point x="145" y="328"/>
    </contour>
  </outline>
</glyph>
<glyph name="seven" format="1">
  <advance width="457"/>
  <unicode hex="0037"/>
  <outline>
    <contour>
      <point x="179" y="-357" type="line"/>
      <point x="270" y="-113"/>
      <point x="403" y="206"/>
      <point x="427" y="307" type="curve"/>
      <point x="439" y="310"/>
      <point x="446" y="313"/>
      <point x="447" y="318" type="curve"/>
      <point x="430" y="333" type="line"/>
      <point x="430" y="337" type="line"/>
      <point x="427" y="337" type="line"/>
      <point x="374" y="387" type="line"/>
      <point x="359" y="381"/>
      <point x="325" y="381"/>
      <point x="294" y="381" type="curve"/>
      <point x="256" y="379"/>
      <point x="35" y="393"/>
      <point x="10" y="397" type="curve"/>
      <point x="55" y="299" type="line"/>
      <point x="165" y="301"/>
      <point x="284" y="298"/>
      <point x="362" y="301" type="curve"/>
      <point x="304" y="143"/>
      <point x="115" y="-262"/>
      <point x="79" y="-357" type="curve"/>
    </contour>
  </outline>
</glyph>
<glyph name="eight" format="1">
  <advance width="548"/>
  <unicode hex="0038"/>
  <outline>
    <contour>
      <point x="252" y="-357" type="curve" smooth="yes"/>
      <point x="321" y="-357"/>
      <point x="487" y="-201"/>
      <point x="487" y="-140" type="curve"/>
      <point x="501" y="-33"/>
      <point x="482" y="78"/>
      <point x="348" y="101" type="curve"/>
      <point x="402" y="147"/>
      <point x="451" y="207"/>
      <point x="451" y="238" type="curve"/>
      <point x="465" y="347"/>
      <point x="441" y="463"/>
      <point x="274" y="463" type="curve" smooth="yes"/>
      <point x="211" y="463"/>
      <point x="57" y="321"/>
      <point x="57" y="266" type="curve" smooth="yes"/>
      <point x="57" y="167"/>
      <point x="66" y="68"/>
      <point x="177" y="44" type="curve"/>
      <point x="115" y="-6"/>
      <point x="57" y="-75"/>
      <point x="57" y="-110" type="curve" smooth="yes"/>
      <point x="57" y="-231"/>
      <point x="69" y="-357"/>
    </contour>
    <contour>
      <point x="374" y="-251" type="curve"/>
      <point x="217" y="-324"/>
      <point x="83" y="-128"/>
      <point x="187" y="2" type="curve"/>
      <point x="361" y="94"/>
      <point x="446" y="-129"/>
    </contour>
    <contour>
      <point x="349" y="139" type="curve"/>
      <point x="207" y="72"/>
      <point x="83" y="252"/>
      <point x="178" y="372" type="curve"/>
      <point x="339" y="455"/>
      <point x="418" y="249"/>
    </contour>
  </outline>
</glyph>
<glyph name="nine" format="1">
  <advance width="565"/>
  <unicode hex="0039"/>
  <outline>
    <contour>
      <point x="293" y="452" type="curve" smooth="yes"/>
      <point x="224" y="451"/>
      <point x="65" y="295"/>
      <point x="67" y="236" type="curve"/>
      <point x="57" y="114"/>
      <point x="89" y="-12"/>
      <point x="272" y="-11" type="curve"/>
      <point x="297" y="-10"/>
      <point x="334" y="10"/>
      <point x="371" y="39" type="curve"/>
      <point x="328" y="-167"/>
      <point x="277" y="-280"/>
      <point x="189" y="-280" type="curve" smooth="yes"/>
      <point x="150" y="-280"/>
      <point x="140" y="-268"/>
      <point x="107" y="-245" type="curve"/>
      <point x="93" y="-271" type="line"/>
      <point x="114" y="-294"/>
      <point x="170" y="-357"/>
      <point x="223" y="-356" type="curve" smooth="yes"/>
      <point x="409" y="-352"/>
      <point x="488" y="102"/>
      <point x="498" y="195" type="curve" smooth="yes"/>
      <point x="499" y="199"/>
      <point x="499" y="202"/>
      <point x="499" y="206" type="curve" smooth="yes"/>
      <point x="493" y="328"/>
      <point x="476" y="453"/>
    </contour>
    <contour>
      <point x="176" y="345" type="curve"/>
      <point x="334" y="413"/>
      <point x="433" y="244"/>
      <point x="386" y="116" type="curve"/>
      <point x="386" y="115"/>
      <point x="385" y="114"/>
      <point x="385" y="113" type="curve" smooth="yes"/>
      <point x="382" y="104"/>
      <point x="377" y="95"/>
      <point x="372" y="86" type="curve"/>
      <point x="182" y="-7"/>
      <point x="127" y="222"/>
    </contour>
  </outline>
</glyph>
<glyph name="colon" format="1">
  <advance width="219"/>
  <unicode hex="003A"/>
  <outline>
    <contour>
      <point x="110" y="142" type="curve" smooth="yes"/>
      <point x="81" y="142"/>
      <point x="49" y="122"/>
      <point x="41" y="89" type="curve" smooth="yes"/>
      <point x="39" y="83"/>
      <point x="39" y="77"/>
      <point x="39" y="69" type="curve" smooth="yes"/>
      <point x="39" y="32"/>
      <point x="65" y="-2"/>
      <point x="106" y="-2" type="curve" smooth="yes"/>
      <point x="144" y="-2"/>
      <point x="173" y="32"/>
      <point x="173" y="69" type="curve" smooth="yes"/>
      <point x="173" y="99"/>
      <point x="160" y="142"/>
    </contour>
    <contour>
      <point x="110" y="361" type="curve" smooth="yes"/>
      <point x="81" y="361"/>
      <point x="49" y="339"/>
      <point x="41" y="307" type="curve" smooth="yes"/>
      <point x="39" y="300"/>
      <point x="39" y="294"/>
      <point x="39" y="288" type="curve" smooth="yes"/>
      <point x="39" y="252"/>
      <point x="65" y="215"/>
      <point x="106" y="215" type="curve" smooth="yes"/>
      <point x="144" y="215"/>
      <point x="173" y="250"/>
      <point x="173" y="286" type="curve" smooth="yes"/>
      <point x="173" y="319"/>
      <point x="160" y="361"/>
    </contour>
  </outline>
</glyph>
<glyph name="semicolon" format="1">
  <advance width="248"/>
  <unicode hex="003B"/>
  <outline>
    <contour>
      <point x="110" y="-152" type="curve"/>
      <point x="112" y="-158"/>
      <point x="186" y="-7"/>
      <point x="186" y="55" type="curve" smooth="yes"/>
      <point x="186" y="75"/>
      <point x="178" y="89"/>
      <point x="168" y="101" type="curve"/>
      <point x="160" y="123"/>
      <point x="143" y="142"/>
      <point x="110" y="142" type="curve" smooth="yes"/>
      <point x="105" y="142"/>
      <point x="103" y="142"/>
      <point x="102" y="141" type="curve"/>
      <point x="75" y="138"/>
      <point x="48" y="119"/>
      <point x="41" y="89" type="curve" smooth="yes"/>
      <point x="39" y="83"/>
      <point x="39" y="77"/>
      <point x="39" y="69" type="curve" smooth="yes"/>
      <point x="39" y="32"/>
      <point x="65" y="-2"/>
      <point x="106" y="-2" type="curve" smooth="yes"/>
      <point x="110" y="-2"/>
      <point x="115" y="-1"/>
      <point x="119" y="0" type="curve"/>
      <point x="103" y="-52"/>
      <point x="73" y="-105"/>
      <point x="51" y="-120" type="curve"/>
      <point x="69" y="-134"/>
      <point x="101" y="-150"/>
    </contour>
    <contour>
      <point x="110" y="361" type="curve" smooth="yes"/>
      <point x="81" y="361"/>
      <point x="49" y="339"/>
      <point x="41" y="307" type="curve" smooth="yes"/>
      <point x="39" y="300"/>
      <point x="39" y="294"/>
      <point x="39" y="288" type="curve" smooth="yes"/>
      <point x="39" y="252"/>
      <point x="65" y="215"/>
      <point x="106" y="215" type="curve" smooth="yes"/>
      <point x="144" y="215"/>
      <point x="173" y="250"/>
      <point x="173" y="286" type="curve" smooth="yes"/>
      <point x="173" y="319"/>
      <point x="160" y="361"/>
    </contour>
  </outline>
</glyph>
<glyph name="less" format="1">
  <advance width="599"/>
  <unicode hex="003C"/>
  <outline>
    <contour>
      <point x="44" y="295" type="line"/>
      <point x="45" y="295" type="line"/>
      <point x="45" y="297" type="line"/>
      <point x="46" y="296" type="line"/>
      <point x="94" y="315" type="line"/>
      <point x="195" y="358"/>
      <point x="187" y="353"/>
      <point x="289" y="395" type="curve" smooth="yes"/>
      <point x="458" y="463"/>
      <point x="537" y="491"/>
      <point x="549" y="460" type="curve" smooth="yes"/>
      <point x="551" y="456" type="line"/>
      <point x="463" y="373" type="line"/>
      <point x="458" y="374"/>
      <point x="455" y="374"/>
      <point x="452" y="376" type="curve"/>
      <point x="442" y="378"/>
      <point x="442" y="378"/>
      <point x="404" y="363" type="curve"/>
      <point x="360" y="344"/>
      <point x="227" y="285"/>
      <point x="124" y="238" type="curve"/>
      <point x="227" y="190"/>
      <point x="360" y="131"/>
      <point x="404" y="113" type="curve" smooth="yes"/>
      <point x="442" y="98"/>
      <point x="442" y="98"/>
      <point x="452" y="100" type="curve"/>
      <point x="455" y="102"/>
      <point x="458" y="102"/>
      <point x="463" y="103" type="curve"/>
      <point x="551" y="20" type="line"/>
      <point x="549" y="16" type="line" smooth="yes"/>
      <point x="537" y="-15"/>
      <point x="458" y="13"/>
      <point x="289" y="81" type="curve" smooth="yes"/>
      <point x="187" y="123"/>
      <point x="195" y="118"/>
      <point x="94" y="161" type="curve"/>
      <point x="46" y="180" type="line"/>
      <point x="46" y="179"/>
      <point x="45" y="179"/>
      <point x="45" y="179" type="curve"/>
      <point x="45" y="180" type="line"/>
      <point x="44" y="180"/>
      <point x="44" y="181"/>
      <point x="44" y="181" type="curve"/>
      <point x="44" y="237" type="line"/>
    </contour>
  </outline>
</glyph>
<glyph name="equal" format="1">
  <advance width="634"/>
  <unicode hex="003D"/>
  <outline>
    <contour>
      <point x="66" y="197" type="line"/>
      <point x="161" y="197" type="line" smooth="yes"/>
      <point x="205" y="197"/>
      <point x="250" y="198"/>
      <point x="295" y="199" type="curve"/>
      <point x="570" y="199" type="line"/>
      <point x="528" y="123" type="line"/>
      <point x="499" y="121"/>
      <point x="491" y="126"/>
      <point x="465" y="126" type="curve" smooth="yes"/>
      <point x="403" y="125"/>
      <point x="91" y="122"/>
      <point x="45" y="117" type="curve"/>
    </contour>
    <contour>
      <point x="96" y="407" type="line"/>
      <point x="191" y="407" type="line" smooth="yes"/>
      <point x="235" y="407"/>
      <point x="280" y="408"/>
      <point x="325" y="409" type="curve"/>
      <point x="600" y="409" type="line"/>
      <point x="558" y="333" type="line"/>
      <point x="529" y="331"/>
      <point x="521" y="336"/>
      <point x="495" y="336" type="curve" smooth="yes"/>
      <point x="433" y="335"/>
      <point x="121" y="332"/>
      <point x="75" y="327" type="curve"/>
    </contour>
  </outline>
</glyph>
<glyph name="greater" format="1">
  <advance width="599"/>
  <unicode hex="003E"/>
  <outline>
    <contour>
      <point x="554" y="297" type="line"/>
      <point x="535" y="297"/>
      <point x="519" y="309"/>
      <point x="505" y="315" type="curve" smooth="yes"/>
      <point x="404" y="358"/>
      <point x="412" y="353"/>
      <point x="310" y="394" type="curve" smooth="yes"/>
      <point x="187" y="444"/>
      <point x="113" y="473"/>
      <point x="76" y="473" type="curve" smooth="yes"/>
      <point x="62" y="473"/>
      <point x="53" y="469"/>
      <point x="50" y="460" type="curve" smooth="yes"/>
      <point x="48" y="456" type="line"/>
      <point x="136" y="373" type="line"/>
      <point x="142" y="374"/>
      <point x="148" y="377"/>
      <point x="153" y="377" type="curve" smooth="yes"/>
      <point x="168" y="377"/>
      <point x="183" y="368"/>
      <point x="195" y="363" type="curve" smooth="yes"/>
      <point x="239" y="344"/>
      <point x="371" y="285"/>
      <point x="475" y="238" type="curve"/>
      <point x="371" y="190"/>
      <point x="239" y="131"/>
      <point x="195" y="113" type="curve" smooth="yes"/>
      <point x="166" y="101"/>
      <point x="159" y="99"/>
      <point x="154" y="99" type="curve" smooth="yes"/>
      <point x="147" y="99"/>
      <point x="141" y="102"/>
      <point x="136" y="103" type="curve"/>
      <point x="48" y="20" type="line"/>
      <point x="50" y="16" type="line" smooth="yes"/>
      <point x="53" y="7"/>
      <point x="62" y="3"/>
      <point x="76" y="3" type="curve" smooth="yes"/>
      <point x="113" y="3"/>
      <point x="187" y="32"/>
      <point x="310" y="82" type="curve" smooth="yes"/>
      <point x="412" y="123"/>
      <point x="404" y="118"/>
      <point x="505" y="161" type="curve" smooth="yes"/>
      <point x="520" y="167"/>
      <point x="524" y="168"/>
      <point x="552" y="180" type="curve"/>
      <point x="554" y="180"/>
      <point x="555" y="183"/>
      <point x="555" y="185" type="curve" smooth="yes"/>
      <point x="555" y="188"/>
      <point x="554" y="191"/>
      <point x="554" y="193" type="curve" smooth="yes"/>
    </contour>
  </outline>
</glyph>
<glyph name="question" format="1">
  <advance width="471"/>
  <unicode hex="003F"/>
  <outline>
    <contour>
      <point x="109" y="220" type="line"/>
      <point x="103" y="244"/>
      <point x="109" y="316"/>
      <point x="87" y="387" type="curve"/>
      <point x="141" y="399" type="line"/>
      <point x="195" y="428"/>
      <point x="233" y="504"/>
      <point x="233" y="570" type="curve" smooth="yes"/>
      <point x="233" y="605"/>
      <point x="236" y="787"/>
      <point x="143" y="745" type="curve" smooth="yes"/>
      <point x="128" y="738"/>
      <point x="114" y="705"/>
      <point x="114" y="664" type="curve"/>
      <point x="99" y="654"/>
      <point x="27" y="654"/>
      <point x="23" y="654" type="curve"/>
      <point x="20" y="671"/>
      <point x="18" y="685"/>
      <point x="18" y="698" type="curve" smooth="yes"/>
      <point x="18" y="801"/>
      <point x="70" y="804"/>
      <point x="143" y="804" type="curve" smooth="yes"/>
      <point x="218" y="804"/>
      <point x="349" y="699"/>
      <point x="349" y="604" type="curve" smooth="yes"/>
      <point x="349" y="518"/>
      <point x="237" y="401"/>
      <point x="156" y="362" type="curve"/>
      <point x="183" y="285"/>
      <point x="191" y="253"/>
      <point x="200" y="196" type="curve"/>
    </contour>
    <contour>
      <point x="152" y="142" type="curve" smooth="yes"/>
      <point x="202" y="142"/>
      <point x="215" y="99"/>
      <point x="215" y="69" type="curve" smooth="yes"/>
      <point x="215" y="32"/>
      <point x="186" y="-2"/>
      <point x="148" y="-2" type="curve" smooth="yes"/>
      <point x="107" y="-2"/>
      <point x="81" y="32"/>
      <point x="81" y="69" type="curve" smooth="yes"/>
      <point x="81" y="77"/>
      <point x="81" y="83"/>
      <point x="83" y="89" type="curve" smooth="yes"/>
      <point x="91" y="122"/>
      <point x="123" y="142"/>
    </contour>
  </outline>
</glyph>
<glyph name="at" format="1">
  <advance width="878"/>
  <unicode hex="0040"/>
  <outline>
    <contour>
      <point x="577" y="-71" type="curve"/>
      <point x="588" y="-76" type="line"/>
      <point x="581" y="-95"/>
      <point x="555" y="-119"/>
      <point x="549" y="-121" type="curve"/>
      <point x="520" y="-127"/>
      <point x="492" y="-130"/>
      <point x="466" y="-130" type="curve" smooth="yes"/>
      <point x="250" y="-130"/>
      <point x="106" y="51"/>
      <point x="106" y="211" type="curve" smooth="yes"/>
      <point x="106" y="257"/>
      <point x="115" y="300"/>
      <point x="129" y="332" type="curve" smooth="yes"/>
      <point x="220" y="539"/>
      <point x="450" y="610"/>
      <point x="561" y="610" type="curve"/>
      <point x="769" y="605"/>
      <point x="836" y="450"/>
      <point x="836" y="316" type="curve" smooth="yes"/>
      <point x="836" y="271"/>
      <point x="833" y="228"/>
      <point x="819" y="195" type="curve"/>
      <point x="778" y="100"/>
      <point x="694" y="33"/>
      <point x="602" y="-12" type="curve"/>
      <point x="574" y="11" type="line"/>
      <point x="552" y="26"/>
      <point x="533" y="46"/>
      <point x="526" y="69" type="curve"/>
      <point x="490" y="31"/>
      <point x="453" y="-5"/>
      <point x="437" y="-5" type="curve" smooth="yes"/>
      <point x="356" y="-5"/>
      <point x="319" y="103"/>
      <point x="319" y="183" type="curve" smooth="yes"/>
      <point x="319" y="205"/>
      <point x="321" y="225"/>
      <point x="327" y="240" type="curve"/>
      <point x="338" y="277"/>
      <point x="437" y="401"/>
      <point x="478" y="401" type="curve" smooth="yes"/>
      <point x="480" y="401"/>
      <point x="481" y="401"/>
      <point x="483" y="400" type="curve"/>
      <point x="521" y="389"/>
      <point x="588" y="333"/>
      <point x="598" y="298" type="curve"/>
      <point x="600" y="294"/>
      <point x="600" y="288"/>
      <point x="600" y="280" type="curve" smooth="yes"/>
      <point x="600" y="260"/>
      <point x="596" y="232"/>
      <point x="595" y="212" type="curve" smooth="yes"/>
      <point x="595" y="204"/>
      <point x="594" y="197"/>
      <point x="594" y="190" type="curve" smooth="yes"/>
      <point x="594" y="77"/>
      <point x="652" y="70"/>
      <point x="676" y="59" type="curve"/>
      <point x="719" y="95"/>
      <point x="755" y="161"/>
      <point x="755" y="280" type="curve"/>
      <point x="755" y="285" type="line"/>
      <point x="752" y="475"/>
      <point x="612" y="523"/>
      <point x="494" y="523" type="curve" smooth="yes"/>
      <point x="487" y="523"/>
      <point x="479" y="522"/>
      <point x="472" y="522" type="curve" smooth="yes"/>
      <point x="400" y="519"/>
      <point x="211" y="506"/>
      <point x="194" y="286" type="curve" smooth="yes"/>
      <point x="193" y="277"/>
      <point x="193" y="269"/>
      <point x="193" y="260" type="curve" smooth="yes"/>
      <point x="193" y="48"/>
      <point x="390" y="-91"/>
      <point x="525" y="-91" type="curve" smooth="yes"/>
      <point x="545" y="-91"/>
      <point x="569" y="-90"/>
    </contour>
    <contour>
      <point x="515" y="88" type="curve"/>
      <point x="523" y="108"/>
      <point x="527" y="134"/>
      <point x="527" y="161" type="curve" smooth="yes"/>
      <point x="527" y="231"/>
      <point x="499" y="309"/>
      <point x="446" y="309" type="curve" smooth="yes"/>
      <point x="434" y="309"/>
      <point x="421" y="305"/>
      <point x="407" y="297" type="curve"/>
      <point x="394" y="275"/>
      <point x="388" y="249"/>
      <point x="388" y="223" type="curve" smooth="yes"/>
      <point x="388" y="153"/>
      <point x="430" y="80"/>
      <point x="484" y="80" type="curve" smooth="yes"/>
      <point x="494" y="80"/>
      <point x="504" y="83"/>
    </contour>
  </outline>
</glyph>
<glyph name="A" format="1">
  <advance width="633"/>
  <unicode hex="0041"/>
  <outline>
    <contour>
      <point x="536" y="0" type="line"/>
      <point x="532" y="19"/>
      <point x="507" y="94"/>
      <point x="472" y="192" type="curve"/>
      <point x="188" y="192" type="line"/>
      <point x="188" y="190"/>
      <point x="187" y="189"/>
      <point x="187" y="188" type="curve"/>
      <point x="121" y="-6" type="line"/>
      <point x="38" y="0" type="line"/>
      <point x="92" y="132"/>
      <point x="222" y="504"/>
      <point x="284" y="680" type="curve"/>
      <point x="279" y="686"/>
      <point x="273" y="689"/>
      <point x="269" y="690" type="curve"/>
      <point x="318" y="799" type="line"/>
      <point x="319" y="799"/>
      <point x="321" y="800"/>
      <point x="322" y="800" type="curve" smooth="yes"/>
      <point x="363" y="800"/>
      <point x="445" y="580"/>
      <point x="527" y="357" type="curve"/>
      <point x="539" y="325" type="line"/>
      <point x="579" y="216"/>
      <point x="622" y="89"/>
      <point x="656" y="4" type="curve"/>
    </contour>
    <contour>
      <point x="208" y="252" type="curve"/>
      <point x="451" y="252" type="line"/>
      <point x="346" y="557" type="line" smooth="yes"/>
      <point x="341" y="572"/>
      <point x="333" y="590"/>
      <point x="325" y="608" type="curve"/>
      <point x="292" y="500"/>
      <point x="249" y="373"/>
    </contour>
    <contour>
      <point x="301" y="686" type="move" name="top"/>
    </contour>
    <contour>
      <point x="586" y="13" type="move" name="bottom"/>
    </contour>
  </outline>
</glyph>
<glyph name="B" format="1">
  <advance width="598"/>
  <unicode hex="0042"/>
  <outline>
    <contour>
      <point x="39" y="791" type="line"/>
      <point x="62" y="790"/>
      <point x="88" y="790"/>
      <point x="114" y="790" type="curve" smooth="yes"/>
      <point x="202" y="790"/>
      <point x="300" y="793"/>
      <point x="361" y="793" type="curve" smooth="yes"/>
      <point x="369" y="793" type="line"/>
      <point x="507" y="781"/>
      <point x="546" y="684"/>
      <point x="546" y="602" type="curve" smooth="yes"/>
      <point x="546" y="528"/>
      <point x="523" y="490"/>
      <point x="461" y="435" type="curve"/>
      <point x="556" y="407"/>
      <point x="586" y="331"/>
      <point x="586" y="263" type="curve" smooth="yes"/>
      <point x="586" y="133"/>
      <point x="455" y="1"/>
      <point x="331" y="1" type="curve" smooth="yes"/>
      <point x="226" y="1" type="line" smooth="yes"/>
      <point x="188" y="1"/>
      <point x="130" y="0"/>
      <point x="74" y="0" type="curve"/>
      <point x="81" y="84"/>
      <point x="88" y="507"/>
      <point x="88" y="563" type="curve" smooth="yes"/>
      <point x="88" y="612"/>
      <point x="88" y="666"/>
      <point x="75" y="687" type="curve"/>
      <point x="94" y="712" type="line"/>
      <point x="73" y="710" type="line"/>
    </contour>
    <contour>
      <point x="193" y="70" type="line"/>
      <point x="243" y="64"/>
      <point x="289" y="61"/>
      <point x="322" y="61" type="curve" smooth="yes"/>
      <point x="434" y="61"/>
      <point x="479" y="107"/>
      <point x="479" y="210" type="curve" smooth="yes"/>
      <point x="479" y="367"/>
      <point x="399" y="405"/>
      <point x="284" y="405" type="curve" smooth="yes"/>
      <point x="256" y="405"/>
      <point x="225" y="402"/>
      <point x="193" y="399" type="curve"/>
    </contour>
    <contour>
      <point x="440" y="552" type="curve"/>
      <point x="438" y="694"/>
      <point x="375" y="729"/>
      <point x="268" y="729" type="curve" smooth="yes"/>
      <point x="242" y="729"/>
      <point x="213" y="727"/>
      <point x="182" y="724" type="curve"/>
      <point x="192" y="691"/>
      <point x="193" y="544"/>
      <point x="193" y="476" type="curve" smooth="yes"/>
      <point x="193" y="442" type="line"/>
      <point x="319" y="442"/>
      <point x="368" y="444"/>
      <point x="418" y="444" type="curve" smooth="yes"/>
      <point x="418" y="444"/>
      <point x="440" y="485"/>
    </contour>
  </outline>
</glyph>
<glyph name="C" format="1">
  <advance width="610"/>
  <unicode hex="0043"/>
  <outline>
    <contour>
      <point x="349" y="803" type="line"/>
      <point x="268" y="803"/>
      <point x="109" y="554"/>
      <point x="88" y="478" type="curve" smooth="yes"/>
      <point x="78" y="440"/>
      <point x="72" y="390"/>
      <point x="72" y="338" type="curve" smooth="yes"/>
      <point x="72" y="184"/>
      <point x="132" y="6"/>
      <point x="282" y="-4" type="curve"/>
      <point x="326" y="-1"/>
      <point x="524" y="43"/>
      <point x="598" y="101" type="curve"/>
      <point x="568" y="152" type="line"/>
      <point x="515" y="111"/>
      <point x="434" y="97"/>
      <point x="357" y="97" type="curve" smooth="yes"/>
      <point x="262" y="97"/>
      <point x="180" y="177"/>
      <point x="180" y="425" type="curve" smooth="yes"/>
      <point x="180" y="505"/>
      <point x="188" y="672"/>
      <point x="296" y="672" type="curve" smooth="yes"/>
      <point x="373" y="672"/>
      <point x="473" y="589"/>
      <point x="510" y="532" type="curve"/>
      <point x="548" y="560"/>
      <point x="572" y="602"/>
      <point x="578" y="613" type="curve" smooth="yes"/>
      <point x="578" y="634"/>
      <point x="449" y="775"/>
      <point x="354" y="803" type="curve"/>
    </contour>
    <contour>
      <point x="344" y="734" type="move" name="top"/>
    </contour>
    <contour>
      <point x="317" y="13" type="move" name="bottom"/>
    </contour>
  </outline>
</glyph>
<glyph name="D" format="1">
  <advance width="686"/>
  <unicode hex="0044"/>
  <outline>
    <contour>
      <point x="39" y="791" type="line"/>
      <point x="394" y="793"/>
      <point x="350" y="793"/>
      <point x="387" y="793" type="curve" smooth="yes"/>
      <point x="593" y="793"/>
      <point x="663" y="670"/>
      <point x="667" y="472" type="curve"/>
      <point x="667" y="467" type="line"/>
      <point x="665" y="240"/>
      <point x="549" y="51"/>
      <point x="415" y="6" type="curve"/>
      <point x="402" y="2"/>
      <point x="378" y="1"/>
      <point x="336" y="1" type="curve"/>
      <point x="226" y="1" type="line"/>
      <point x="188" y="1"/>
      <point x="131" y="0"/>
      <point x="74" y="0" type="curve"/>
      <point x="82" y="145"/>
      <point x="88" y="511"/>
      <point x="88" y="563" type="curve" smooth="yes"/>
      <point x="88" y="612"/>
      <point x="88" y="666"/>
      <point x="75" y="687" type="curve"/>
      <point x="94" y="712" type="line"/>
      <point x="88" y="712"/>
      <point x="77" y="710"/>
      <point x="73" y="710" type="curve"/>
    </contour>
    <contour>
      <point x="194" y="459" type="curve"/>
      <point x="194" y="312" type="line" smooth="yes"/>
      <point x="194" y="269"/>
      <point x="193" y="227"/>
      <point x="193" y="184" type="curve" smooth="yes"/>
      <point x="193" y="140"/>
      <point x="193" y="102"/>
      <point x="194" y="60" type="curve"/>
      <point x="316" y="49"/>
      <point x="343" y="49"/>
      <point x="350" y="49" type="curve" smooth="yes"/>
      <point x="518" y="49"/>
      <point x="550" y="233"/>
      <point x="550" y="378" type="curve" smooth="yes"/>
      <point x="550" y="659"/>
      <point x="454" y="730"/>
      <point x="285" y="730" type="curve" smooth="yes"/>
      <point x="260" y="730"/>
      <point x="213" y="729"/>
      <point x="184" y="726" type="curve"/>
      <point x="192" y="666"/>
      <point x="194" y="563"/>
    </contour>
    <contour>
      <point x="322" y="724" type="move" name="top"/>
    </contour>
  </outline>
</glyph>
<glyph name="F" format="1">
  <advance width="434"/>
  <unicode hex="0046"/>
  <outline>
    <contour>
      <point x="38" y="791" type="line"/>
      <point x="76" y="790"/>
      <point x="116" y="790"/>
      <point x="150" y="790" type="curve"/>
      <point x="151" y="791" type="line"/>
      <point x="153" y="791"/>
      <point x="155" y="790"/>
      <point x="156" y="790" type="curve"/>
      <point x="174" y="790" type="line"/>
      <point x="346" y="790" type="line" smooth="yes"/>
      <point x="447" y="790"/>
      <point x="496" y="786"/>
      <point x="496" y="756" type="curve"/>
      <point x="427" y="707" type="line"/>
      <point x="398" y="723"/>
      <point x="348" y="723"/>
      <point x="310" y="723" type="curve" smooth="yes"/>
      <point x="298" y="723" type="line" smooth="yes"/>
      <point x="269" y="723"/>
      <point x="225" y="721"/>
      <point x="183" y="719" type="curve"/>
      <point x="191" y="657"/>
      <point x="193" y="562"/>
      <point x="193" y="456" type="curve" smooth="yes"/>
      <point x="193" y="435" type="line"/>
      <point x="218" y="432"/>
      <point x="247" y="430"/>
      <point x="278" y="430" type="curve" smooth="yes"/>
      <point x="290" y="430" type="line" smooth="yes"/>
      <point x="327" y="430"/>
      <point x="378" y="430"/>
      <point x="406" y="446" type="curve"/>
      <point x="482" y="398" type="line"/>
      <point x="482" y="369"/>
      <point x="455" y="365"/>
      <point x="369" y="365" type="curve" smooth="yes"/>
      <point x="225" y="365" type="line"/>
      <point x="193" y="365" type="line"/>
      <point x="193" y="305" type="line" smooth="yes"/>
      <point x="193" y="261"/>
      <point x="192" y="218"/>
      <point x="192" y="175" type="curve" smooth="yes"/>
      <point x="192" y="115"/>
      <point x="193" y="53"/>
      <point x="194" y="2" type="curve"/>
      <point x="73" y="0" type="line"/>
      <point x="79" y="43"/>
      <point x="88" y="503"/>
      <point x="88" y="563" type="curve" smooth="yes"/>
      <point x="88" y="613"/>
      <point x="87" y="665"/>
      <point x="75" y="687" type="curve"/>
      <point x="94" y="712" type="line"/>
      <point x="86" y="711"/>
      <point x="78" y="711"/>
      <point x="73" y="710" type="curve"/>
    </contour>
  </outline>
</glyph>
<glyph name="G" format="1">
  <advance width="643"/>
  <unicode hex="0047"/>
  <outline>
    <contour>
      <point x="451" y="0" type="line"/>
      <point x="451" y="53" type="line"/>
      <point x="386" y="22"/>
      <point x="310" y="-2"/>
      <point x="282" y="-4" type="curve"/>
      <point x="132" y="6"/>
      <point x="72" y="184"/>
      <point x="72" y="337" type="curve" smooth="yes"/>
      <point x="72" y="389"/>
      <point x="78" y="438"/>
      <point x="88" y="476" type="curve" smooth="yes"/>
      <point x="109" y="552"/>
      <point x="275" y="810"/>
      <point x="354" y="801" type="curve"/>
      <point x="447" y="774"/>
      <point x="581" y="626"/>
      <point x="575" y="616" type="curve"/>
      <point x="582" y="619" type="line"/>
      <point x="577" y="607"/>
      <point x="549" y="559"/>
      <point x="510" y="528" type="curve"/>
      <point x="473" y="586"/>
      <point x="374" y="670"/>
      <point x="297" y="670" type="curve" smooth="yes"/>
      <point x="252" y="670"/>
      <point x="211" y="639"/>
      <point x="197" y="550" type="curve"/>
      <point x="192" y="502"/>
      <point x="190" y="458"/>
      <point x="190" y="420" type="curve" smooth="yes"/>
      <point x="190" y="159"/>
      <point x="281" y="97"/>
      <point x="366" y="97" type="curve" smooth="yes"/>
      <point x="394" y="97"/>
      <point x="424" y="105"/>
      <point x="451" y="115" type="curve"/>
      <point x="450" y="155"/>
      <point x="447" y="202"/>
      <point x="438" y="226" type="curve"/>
      <point x="382" y="226" type="line"/>
      <point x="394" y="288" type="line"/>
      <point x="612" y="288" type="line"/>
      <point x="600" y="226" type="line"/>
      <point x="554" y="226" type="line"/>
      <point x="554" y="212"/>
      <point x="555" y="195"/>
      <point x="555" y="171" type="curve" smooth="yes"/>
      <point x="555" y="132"/>
      <point x="555" y="74"/>
      <point x="557" y="-2" type="curve"/>
    </contour>
    <contour>
      <point x="347" y="716" type="move" name="top"/>
    </contour>
    <contour>
      <point x="312" y="13" type="move" name="bottom"/>
    </contour>
  </outline>
</glyph>
<glyph name="H" format="1">
  <advance width="710"/>
  <unicode hex="0048"/>
  <outline>
    <contour>
      <point x="516" y="0" type="line"/>
      <point x="519" y="25"/>
      <point x="523" y="191"/>
      <point x="526" y="338" type="curve"/>
      <point x="194" y="338" type="line"/>
      <point x="194" y="305" type="line" smooth="yes"/>
      <point x="194" y="261"/>
      <point x="193" y="218"/>
      <point x="193" y="175" type="curve" smooth="yes"/>
      <point x="193" y="115"/>
      <point x="194" y="53"/>
      <point x="195" y="2" type="curve"/>
      <point x="75" y="2" type="line"/>
      <point x="81" y="43"/>
      <point x="88" y="503"/>
      <point x="88" y="563" type="curve" smooth="yes"/>
      <point x="88" y="613"/>
      <point x="88" y="669"/>
      <point x="76" y="691" type="curve"/>
      <point x="151" y="791" type="line"/>
      <point x="189" y="791"/>
      <point x="194" y="641"/>
      <point x="194" y="456" type="curve" smooth="yes"/>
      <point x="194" y="398" type="line"/>
      <point x="527" y="398" type="line"/>
      <point x="528" y="477"/>
      <point x="529" y="543"/>
      <point x="529" y="563" type="curve" smooth="yes"/>
      <point x="529" y="613"/>
      <point x="529" y="669"/>
      <point x="515" y="691" type="curve"/>
      <point x="590" y="791" type="line"/>
      <point x="629" y="791"/>
      <point x="634" y="638"/>
      <point x="634" y="451" type="curve" smooth="yes"/>
      <point x="634" y="302" type="line" smooth="yes"/>
      <point x="634" y="259"/>
      <point x="633" y="216"/>
      <point x="633" y="175" type="curve" smooth="yes"/>
      <point x="633" y="115"/>
      <point x="634" y="53"/>
      <point x="634" y="2" type="curve"/>
    </contour>
    <contour>
      <point x="342" y="691" type="move" name="top"/>
    </contour>
  </outline>
</glyph>
<glyph name="I" format="1">
  <advance width="272"/>
  <unicode hex="0049"/>
  <outline>
    <contour>
      <point x="74" y="0" type="line"/>
      <point x="80" y="43"/>
      <point x="87" y="503"/>
      <point x="87" y="563" type="curve" smooth="yes"/>
      <point x="87" y="613"/>
      <point x="87" y="669"/>
      <point x="75" y="691" type="curve"/>
      <point x="150" y="791" type="line"/>
      <point x="187" y="791"/>
      <point x="192" y="641"/>
      <point x="192" y="456" type="curve"/>
      <point x="192" y="305" type="line"/>
      <point x="192" y="261"/>
      <point x="191" y="218"/>
      <point x="191" y="175" type="curve" smooth="yes"/>
      <point x="191" y="115"/>
      <point x="192" y="53"/>
      <point x="193" y="2" type="curve"/>
    </contour>
    <contour>
      <point x="141" y="707" type="move" name="top"/>
    </contour>
    <contour>
      <point x="135" y="13" type="move" name="bottom"/>
    </contour>
  </outline>
</glyph>
<glyph name="J" format="1">
  <advance width="322"/>
  <unicode hex="004A"/>
  <outline>
    <contour>
      <point x="-27" y="105" type="line"/>
      <point x="-37" y="104"/>
      <point x="43" y="5"/>
      <point x="98" y="-4" type="curve"/>
      <point x="97" y="-4" type="line"/>
      <point x="146" y="-17"/>
      <point x="271" y="144"/>
      <point x="271" y="179" type="curve"/>
      <point x="271" y="513" type="line"/>
      <point x="271" y="667"/>
      <point x="266" y="784"/>
      <point x="231" y="795" type="curve"/>
      <point x="152" y="693" type="line"/>
      <point x="165" y="669"/>
      <point x="167" y="639"/>
      <point x="167" y="590" type="curve" smooth="yes"/>
      <point x="167" y="539"/>
      <point x="162" y="223"/>
      <point x="157" y="104" type="curve"/>
      <point x="116" y="98"/>
      <point x="51" y="141"/>
      <point x="24" y="177" type="curve"/>
      <point x="1" y="160"/>
      <point x="-33" y="108"/>
      <point x="-35" y="102" type="curve"/>
    </contour>
    <contour>
      <point x="221" y="700" type="move" name="top"/>
    </contour>
  </outline>
</glyph>
<glyph name="K" format="1">
  <advance width="682"/>
  <unicode hex="004B"/>
  <outline>
    <contour>
      <point x="75" y="0" type="line"/>
      <point x="81" y="43"/>
      <point x="88" y="503"/>
      <point x="88" y="563" type="curve" smooth="yes"/>
      <point x="88" y="613"/>
      <point x="88" y="679"/>
      <point x="76" y="701" type="curve"/>
      <point x="151" y="801" type="line"/>
      <point x="189" y="801"/>
      <point x="194" y="641"/>
      <point x="194" y="456" type="curve" smooth="yes"/>
      <point x="194" y="409" type="line"/>
      <point x="309" y="534"/>
      <point x="457" y="707"/>
      <point x="514" y="707" type="curve" smooth="yes"/>
      <point x="518" y="707"/>
      <point x="521" y="707"/>
      <point x="524" y="705" type="curve"/>
      <point x="533" y="606" type="line"/>
      <point x="516" y="600"/>
      <point x="428" y="515"/>
      <point x="360" y="446" type="curve"/>
      <point x="416" y="372"/>
      <point x="471" y="301"/>
      <point x="518" y="242" type="curve"/>
      <point x="604" y="136"/>
      <point x="668" y="57"/>
      <point x="668" y="18" type="curve" smooth="yes"/>
      <point x="668" y="10"/>
      <point x="666" y="4"/>
      <point x="660" y="-1" type="curve"/>
      <point x="564" y="-1" type="line"/>
      <point x="560" y="28"/>
      <point x="504" y="103"/>
      <point x="475" y="140" type="curve" smooth="yes"/>
      <point x="444" y="180"/>
      <point x="345" y="311"/>
      <point x="291" y="374" type="curve"/>
      <point x="194" y="259" type="line"/>
      <point x="193" y="231"/>
      <point x="193" y="203"/>
      <point x="193" y="175" type="curve" smooth="yes"/>
      <point x="193" y="115"/>
      <point x="194" y="53"/>
      <point x="195" y="2" type="curve"/>
    </contour>
    <contour>
      <point x="306" y="5" type="move" name="bottom"/>
    </contour>
  </outline>
</glyph>
<glyph name="L" format="1">
  <advance width="553"/>
  <unicode hex="004C"/>
  <outline>
    <contour>
      <point x="75" y="0" type="line"/>
      <point x="81" y="43"/>
      <point x="88" y="503"/>
      <point x="88" y="563" type="curve" smooth="yes"/>
      <point x="88" y="613"/>
      <point x="88" y="669"/>
      <point x="76" y="691" type="curve"/>
      <point x="151" y="791" type="line"/>
      <point x="189" y="791"/>
      <point x="194" y="641"/>
      <point x="194" y="456" type="curve" smooth="yes"/>
      <point x="194" y="305" type="line" smooth="yes"/>
      <point x="194" y="261"/>
      <point x="193" y="218"/>
      <point x="193" y="175" type="curve" smooth="yes"/>
      <point x="193" y="75" type="line"/>
      <point x="247" y="71"/>
      <point x="318" y="68"/>
      <point x="362" y="68" type="curve" smooth="yes"/>
      <point x="374" y="68" type="line" smooth="yes"/>
      <point x="411" y="68"/>
      <point x="462" y="68"/>
      <point x="492" y="84" type="curve"/>
      <point x="558" y="34" type="line"/>
      <point x="558" y="5"/>
      <point x="511" y="1"/>
      <point x="412" y="1" type="curve" smooth="yes"/>
      <point x="343" y="1" type="line" smooth="yes"/>
      <point x="318" y="1"/>
      <point x="289" y="2"/>
      <point x="259" y="2" type="curve" smooth="yes"/>
      <point x="215" y="2"/>
      <point x="156" y="1"/>
      <point x="103" y="0" type="curve" smooth="yes"/>
    </contour>
    <contour>
      <point x="141" y="711" type="move" name="top"/>
    </contour>
    <contour>
      <point x="328" y="13" type="move" name="bottom"/>
    </contour>
  </outline>
</glyph>
<glyph name="M" format="1">
  <advance width="758"/>
  <unicode hex="004D"/>
  <outline>
    <contour>
      <point x="576" y="0" type="line"/>
      <point x="579" y="34"/>
      <point x="585" y="380"/>
      <point x="586" y="515" type="curve"/>
      <point x="446" y="154" type="line"/>
      <point x="446" y="154"/>
      <point x="446" y="153"/>
      <point x="389" y="-6" type="curve"/>
      <point x="378" y="28"/>
      <point x="249" y="320"/>
      <point x="175" y="495" type="curve"/>
      <point x="175" y="147" type="line" smooth="yes"/>
      <point x="175" y="98"/>
      <point x="175" y="45"/>
      <point x="176" y="2" type="curve"/>
      <point x="96" y="2" type="line"/>
      <point x="102" y="43"/>
      <point x="109" y="503"/>
      <point x="109" y="563" type="curve" smooth="yes"/>
      <point x="109" y="613"/>
      <point x="109" y="669"/>
      <point x="95" y="691" type="curve"/>
      <point x="116" y="751"/>
      <point x="124" y="769"/>
      <point x="140" y="812" type="curve"/>
      <point x="140" y="813"/>
      <point x="143" y="811"/>
      <point x="144" y="809" type="curve" smooth="yes"/>
      <point x="193" y="736"/>
      <point x="323" y="407"/>
      <point x="403" y="244" type="curve"/>
      <point x="456" y="373"/>
      <point x="527" y="549"/>
      <point x="542" y="588" type="curve"/>
      <point x="549" y="603"/>
      <point x="562" y="637"/>
      <point x="574" y="670" type="curve"/>
      <point x="578" y="680" type="line"/>
      <point x="574" y="691" type="line"/>
      <point x="649" y="791" type="line"/>
      <point x="687" y="791"/>
      <point x="692" y="637"/>
      <point x="692" y="450" type="curve" smooth="yes"/>
      <point x="692" y="148" type="line" smooth="yes"/>
      <point x="692" y="98"/>
      <point x="692" y="45"/>
      <point x="693" y="2" type="curve"/>
    </contour>
  </outline>
</glyph>
<glyph name="N" format="1">
  <advance width="681"/>
  <unicode hex="004E"/>
  <outline>
    <contour>
      <point x="528" y="0" type="line"/>
      <point x="525" y="1" type="line"/>
      <point x="508" y="42"/>
      <point x="404" y="206"/>
      <point x="301" y="363" type="curve" smooth="yes"/>
      <point x="253" y="435"/>
      <point x="207" y="506"/>
      <point x="174" y="559" type="curve"/>
      <point x="175" y="519"/>
      <point x="175" y="476"/>
      <point x="175" y="432" type="curve" smooth="yes"/>
      <point x="175" y="147" type="line" smooth="yes"/>
      <point x="175" y="98"/>
      <point x="175" y="45"/>
      <point x="176" y="2" type="curve"/>
      <point x="96" y="2" type="line"/>
      <point x="102" y="43"/>
      <point x="109" y="503"/>
      <point x="109" y="563" type="curve" smooth="yes"/>
      <point x="109" y="613"/>
      <point x="109" y="669"/>
      <point x="95" y="691" type="curve"/>
      <point x="140" y="811" type="line"/>
      <point x="143" y="808" type="line"/>
      <point x="183" y="734"/>
      <point x="251" y="632"/>
      <point x="316" y="536" type="curve" smooth="yes"/>
      <point x="389" y="428"/>
      <point x="472" y="304"/>
      <point x="535" y="200" type="curve"/>
      <point x="539" y="348"/>
      <point x="541" y="527"/>
      <point x="541" y="563" type="curve" smooth="yes"/>
      <point x="541" y="613"/>
      <point x="541" y="669"/>
      <point x="529" y="691" type="curve"/>
      <point x="573" y="790" type="line"/>
      <point x="605" y="790"/>
      <point x="612" y="705"/>
      <point x="612" y="585" type="curve" smooth="yes"/>
      <point x="612" y="570"/>
      <point x="611" y="552"/>
      <point x="610" y="532" type="curve"/>
      <point x="610" y="371" type="line"/>
      <point x="610" y="297"/>
      <point x="607" y="206"/>
      <point x="607" y="134" type="curve" smooth="yes"/>
      <point x="607" y="90"/>
      <point x="608" y="41"/>
      <point x="609" y="2" type="curve"/>
    </contour>
    <contour>
      <point x="347" y="762" type="move" name="top"/>
    </contour>
    <contour>
      <point x="264" y="13" type="move" name="bottom"/>
    </contour>
  </outline>
</glyph>
<glyph name="P" format="1">
  <advance width="446"/>
  <unicode hex="0050"/>
  <outline>
    <contour>
      <point x="39" y="791" type="line"/>
      <point x="409" y="791" type="line"/>
      <point x="545" y="781"/>
      <point x="586" y="685"/>
      <point x="586" y="605" type="curve" smooth="yes"/>
      <point x="586" y="456"/>
      <point x="428" y="344"/>
      <point x="344" y="344" type="curve" smooth="yes"/>
      <point x="193" y="344" type="line"/>
      <point x="193" y="312" type="line" smooth="yes"/>
      <point x="193" y="269"/>
      <point x="192" y="227"/>
      <point x="192" y="184" type="curve" smooth="yes"/>
      <point x="192" y="125"/>
      <point x="193" y="54"/>
      <point x="194" y="2" type="curve"/>
      <point x="75" y="2" type="line"/>
      <point x="78" y="26"/>
      <point x="83" y="214"/>
      <point x="86" y="363" type="curve"/>
      <point x="87" y="444"/>
      <point x="88" y="543"/>
      <point x="88" y="563" type="curve" smooth="yes"/>
      <point x="88" y="612"/>
      <point x="88" y="666"/>
      <point x="75" y="687" type="curve"/>
      <point x="94" y="712" type="line"/>
      <point x="73" y="710" type="line"/>
    </contour>
    <contour>
      <point x="193" y="459" type="curve"/>
      <point x="193" y="402" type="line"/>
      <point x="235" y="397"/>
      <point x="272" y="395"/>
      <point x="303" y="395" type="curve" smooth="yes"/>
      <point x="443" y="395"/>
      <point x="478" y="445"/>
      <point x="480" y="552" type="curve"/>
      <point x="480" y="560" type="line"/>
      <point x="480" y="675"/>
      <point x="418" y="730"/>
      <point x="311" y="730" type="curve"/>
      <point x="256" y="730"/>
      <point x="193" y="725"/>
      <point x="182" y="724" type="curve"/>
      <point x="191" y="664"/>
      <point x="193" y="568"/>
    </contour>
  </outline>
</glyph>
<glyph name="Q" format="1">
  <advance width="812"/>
  <unicode hex="0051"/>
  <outline>
    <contour>
      <point x="199" y="478" type="curve" smooth="yes"/>
      <point x="188" y="440"/>
      <point x="181" y="390"/>
      <point x="181" y="338" type="curve" smooth="yes"/>
      <point x="181" y="193"/>
      <point x="232" y="27"/>
      <point x="364" y="0" type="curve"/>
      <point x="369" y="-104"/>
      <point x="419" y="-188"/>
      <point x="522" y="-218" type="curve" smooth="yes"/>
      <point x="528" y="-220"/>
      <point x="547" y="-222"/>
      <point x="573" y="-222" type="curve" smooth="yes"/>
      <point x="656" y="-222"/>
      <point x="812" y="-205"/>
      <point x="879" y="-154" type="curve"/>
      <point x="867" y="-103" type="line"/>
      <point x="802" y="-141"/>
      <point x="726" y="-168"/>
      <point x="661" y="-168" type="curve" smooth="yes"/>
      <point x="574" y="-168"/>
      <point x="500" y="-121"/>
      <point x="493" y="13" type="curve"/>
      <point x="599" y="47"/>
      <point x="723" y="137"/>
      <point x="769" y="318" type="curve" smooth="yes"/>
      <point x="779" y="356"/>
      <point x="784" y="405"/>
      <point x="784" y="457" type="curve" smooth="yes"/>
      <point x="784" y="613"/>
      <point x="731" y="801"/>
      <point x="575" y="801" type="curve"/>
      <point x="470" y="801"/>
      <point x="270" y="718"/>
    </contour>
    <contour>
      <point x="434" y="703" type="curve"/>
      <point x="441" y="704"/>
      <point x="448" y="704"/>
      <point x="456" y="704" type="curve" smooth="yes"/>
      <point x="533" y="704"/>
      <point x="675" y="669"/>
      <point x="677" y="421" type="curve"/>
      <point x="677" y="408" type="line"/>
      <point x="670" y="133"/>
      <point x="615" y="92"/>
      <point x="503" y="92" type="curve" smooth="yes"/>
      <point x="408" y="92"/>
      <point x="289" y="196"/>
      <point x="289" y="403" type="curve"/>
      <point x="289" y="425" type="line"/>
      <point x="289" y="673"/>
      <point x="381" y="700"/>
    </contour>
  </outline>
</glyph>
<glyph name="R" format="1">
  <advance width="656"/>
  <unicode hex="0052"/>
  <outline>
    <contour>
      <point x="39" y="791" type="line"/>
      <point x="409" y="793" type="line"/>
      <point x="545" y="781"/>
      <point x="586" y="685"/>
      <point x="586" y="605" type="curve" smooth="yes"/>
      <point x="586" y="495"/>
      <point x="501" y="406"/>
      <point x="422" y="366" type="curve"/>
      <point x="465" y="310"/>
      <point x="498" y="271"/>
      <point x="537" y="223" type="curve" smooth="yes"/>
      <point x="630" y="105"/>
      <point x="693" y="25"/>
      <point x="660" y="-1" type="curve"/>
      <point x="559" y="0" type="line"/>
      <point x="555" y="23"/>
      <point x="513" y="92"/>
      <point x="487" y="127" type="curve" smooth="yes"/>
      <point x="456" y="168" type="line" smooth="yes"/>
      <point x="422" y="211"/>
      <point x="350" y="302"/>
      <point x="313" y="344" type="curve"/>
      <point x="193" y="344" type="line"/>
      <point x="193" y="312" type="line" smooth="yes"/>
      <point x="193" y="269"/>
      <point x="192" y="227"/>
      <point x="192" y="184" type="curve" smooth="yes"/>
      <point x="192" y="125"/>
      <point x="193" y="54"/>
      <point x="194" y="2" type="curve"/>
      <point x="75" y="0" type="line"/>
      <point x="78" y="26"/>
      <point x="83" y="214"/>
      <point x="85" y="363" type="curve"/>
      <point x="80" y="364"/>
      <point x="80" y="366"/>
      <point x="85" y="368" type="curve"/>
      <point x="87" y="460"/>
      <point x="88" y="540"/>
      <point x="88" y="563" type="curve" smooth="yes"/>
      <point x="88" y="612"/>
      <point x="88" y="666"/>
      <point x="75" y="687" type="curve"/>
      <point x="94" y="712" type="line"/>
      <point x="73" y="710" type="line"/>
    </contour>
    <contour>
      <point x="193" y="459" type="curve"/>
      <point x="193" y="402" type="line"/>
      <point x="425" y="375"/>
      <point x="477" y="421"/>
      <point x="480" y="552" type="curve" smooth="yes"/>
      <point x="483" y="674"/>
      <point x="420" y="731"/>
      <point x="308" y="730" type="curve" smooth="yes"/>
      <point x="256" y="730"/>
      <point x="193" y="725"/>
      <point x="182" y="724" type="curve"/>
      <point x="191" y="664"/>
      <point x="193" y="568"/>
    </contour>
    <contour>
      <point x="272" y="727" type="move" name="top"/>
    </contour>
    <contour>
      <point x="312" y="52" type="move" name="bottom"/>
    </contour>
  </outline>
</glyph>
<glyph name="T" format="1">
  <advance width="536"/>
  <unicode hex="0054"/>
  <outline>
    <contour>
      <point x="440" y="790" type="line"/>
      <point x="541" y="790"/>
      <point x="590" y="786"/>
      <point x="590" y="756" type="curve"/>
      <point x="524" y="697" type="line"/>
      <point x="489" y="706"/>
      <point x="418" y="709"/>
      <point x="369" y="709" type="curve"/>
      <point x="334" y="709" type="line"/>
      <point x="337" y="644"/>
      <point x="337" y="550"/>
      <point x="337" y="436" type="curve" smooth="yes"/>
      <point x="337" y="278" type="line"/>
      <point x="337" y="230"/>
      <point x="336" y="182"/>
      <point x="336" y="137" type="curve" smooth="yes"/>
      <point x="336" y="92"/>
      <point x="336" y="42"/>
      <point x="337" y="2" type="curve"/>
      <point x="219" y="2" type="line"/>
      <point x="224" y="108"/>
      <point x="233" y="387"/>
      <point x="233" y="573" type="curve" smooth="yes"/>
      <point x="233" y="634"/>
      <point x="232" y="677"/>
      <point x="230" y="709" type="curve"/>
      <point x="158" y="709" type="line"/>
      <point x="113" y="709"/>
      <point x="66" y="707"/>
      <point x="30" y="697" type="curve"/>
      <point x="-39" y="756" type="line"/>
      <point x="-39" y="786"/>
      <point x="10" y="790"/>
      <point x="112" y="790" type="curve" smooth="yes"/>
    </contour>
    <contour>
      <point x="285" y="746" type="move" name="top"/>
    </contour>
    <contour>
      <point x="269" y="13" type="move" name="bottom"/>
    </contour>
  </outline>
</glyph>
<glyph name="U" format="1">
  <advance width="590"/>
  <unicode hex="0055"/>
  <outline>
    <contour>
      <point x="438" y="764" type="line"/>
      <point x="440" y="673"/>
      <point x="440" y="589"/>
      <point x="440" y="514" type="curve" smooth="yes"/>
      <point x="440" y="401"/>
      <point x="439" y="309"/>
      <point x="439" y="245" type="curve"/>
      <point x="439" y="198" type="line"/>
      <point x="413" y="160"/>
      <point x="383" y="118"/>
      <point x="356" y="118" type="curve"/>
      <point x="205" y="127"/>
      <point x="194" y="259"/>
      <point x="194" y="400" type="curve"/>
      <point x="194" y="482" type="line"/>
      <point x="194" y="550"/>
      <point x="196" y="711"/>
      <point x="204" y="775" type="curve"/>
      <point x="80" y="764" type="line"/>
      <point x="83" y="740"/>
      <point x="83" y="588"/>
      <point x="83" y="510" type="curve"/>
      <point x="83" y="390" type="line"/>
      <point x="83" y="283"/>
      <point x="85" y="171"/>
      <point x="103" y="152" type="curve"/>
      <point x="103" y="120"/>
      <point x="231" y="-3"/>
      <point x="297" y="-3" type="curve" smooth="yes"/>
      <point x="335" y="-3"/>
      <point x="391" y="73"/>
      <point x="440" y="144" type="curve"/>
      <point x="443" y="52"/>
      <point x="451" y="-3"/>
      <point x="474" y="-3" type="curve" smooth="yes"/>
      <point x="565" y="-3" type="line"/>
      <point x="550" y="37"/>
      <point x="548" y="300"/>
      <point x="548" y="387" type="curve" smooth="yes"/>
      <point x="548" y="493"/>
      <point x="558" y="721"/>
      <point x="565" y="792" type="curve"/>
    </contour>
    <contour>
      <point x="316" y="736" type="move" name="top"/>
    </contour>
    <contour>
      <point x="520" y="13" type="move" name="bottom"/>
    </contour>
  </outline>
</glyph>
<glyph name="V" format="1">
  <advance width="607"/>
  <unicode hex="0056"/>
  <outline>
    <contour>
      <point x="410" y="117" type="line"/>
      <point x="406" y="126"/>
      <point x="405" y="130"/>
      <point x="402" y="139" type="curve"/>
      <point x="525" y="512"/>
      <point x="595" y="699"/>
      <point x="597" y="764" type="curve"/>
      <point x="597" y="768" type="line"/>
      <point x="597" y="786"/>
      <point x="591" y="796"/>
      <point x="580" y="801" type="curve"/>
      <point x="515" y="796" type="line"/>
      <point x="483" y="609"/>
      <point x="432" y="431"/>
      <point x="362" y="256" type="curve"/>
      <point x="243" y="604"/>
      <point x="194" y="802"/>
      <point x="150" y="802" type="curve" smooth="yes"/>
      <point x="147" y="802"/>
      <point x="144" y="801"/>
      <point x="141" y="799" type="curve"/>
      <point x="75" y="694" type="line"/>
      <point x="105" y="669"/>
      <point x="168" y="513"/>
      <point x="197" y="433" type="curve" smooth="yes"/>
      <point x="230" y="338"/>
      <point x="308" y="66"/>
      <point x="320" y="-1" type="curve"/>
    </contour>
  </outline>
</glyph>
<glyph name="W" format="1">
  <advance width="814"/>
  <unicode hex="0057"/>
  <outline>
    <contour>
      <point x="614" y="-1" type="line"/>
      <point x="602" y="66"/>
      <point x="531" y="318"/>
      <point x="497" y="413" type="curve" smooth="yes"/>
      <point x="495" y="419" type="line"/>
      <point x="471" y="338"/>
      <point x="434" y="242"/>
      <point x="403" y="145" type="curve"/>
      <point x="406" y="136"/>
      <point x="409" y="126"/>
      <point x="413" y="117" type="curve"/>
      <point x="323" y="-1" type="line"/>
      <point x="310" y="66"/>
      <point x="231" y="338"/>
      <point x="198" y="433" type="curve" smooth="yes"/>
      <point x="169" y="513"/>
      <point x="105" y="669"/>
      <point x="75" y="694" type="curve"/>
      <point x="142" y="799" type="line"/>
      <point x="145" y="801"/>
      <point x="148" y="801"/>
      <point x="151" y="801" type="curve" smooth="yes"/>
      <point x="195" y="801"/>
      <point x="244" y="608"/>
      <point x="363" y="259" type="curve"/>
      <point x="393" y="337"/>
      <point x="424" y="418"/>
      <point x="454" y="524" type="curve"/>
      <point x="426" y="591"/>
      <point x="385" y="678"/>
      <point x="367" y="694" type="curve"/>
      <point x="433" y="799" type="line"/>
      <point x="435" y="800"/>
      <point x="438" y="801"/>
      <point x="440" y="801" type="curve" smooth="yes"/>
      <point x="484" y="801"/>
      <point x="545" y="575"/>
      <point x="651" y="262" type="curve"/>
      <point x="669" y="319"/>
      <point x="707" y="449"/>
      <point x="719" y="498" type="curve"/>
      <point x="743" y="571"/>
      <point x="781" y="720"/>
      <point x="781" y="778" type="curve" smooth="yes"/>
      <point x="781" y="784"/>
      <point x="781" y="788"/>
      <point x="780" y="792" type="curve"/>
      <point x="846" y="803" type="line"/>
      <point x="856" y="798"/>
      <point x="861" y="787"/>
      <point x="861" y="766" type="curve" smooth="yes"/>
      <point x="861" y="687"/>
      <point x="792" y="488"/>
      <point x="696" y="143" type="curve"/>
      <point x="705" y="117" type="line"/>
    </contour>
    <contour>
      <point x="454" y="736" type="move" name="top"/>
    </contour>
  </outline>
</glyph>
<glyph name="X" format="1">
  <advance width="586"/>
  <unicode hex="0058"/>
  <outline>
    <contour>
      <point x="581" y="7" type="line"/>
      <point x="520" y="153"/>
      <point x="462" y="290"/>
      <point x="410" y="407" type="curve"/>
      <point x="605" y="739"/>
      <point x="636" y="755"/>
      <point x="591" y="795" type="curve"/>
      <point x="507" y="797" type="line"/>
      <point x="507" y="754"/>
      <point x="422" y="599"/>
      <point x="379" y="527" type="curve" smooth="yes"/>
      <point x="374" y="518"/>
      <point x="369" y="511"/>
      <point x="366" y="504" type="curve"/>
      <point x="271" y="709"/>
      <point x="197" y="833"/>
      <point x="160" y="815" type="curve"/>
      <point x="133" y="643" type="line"/>
      <point x="158" y="625"/>
      <point x="224" y="505"/>
      <point x="270" y="412" type="curve"/>
      <point x="74" y="82"/>
      <point x="21" y="38"/>
      <point x="66" y="0" type="curve"/>
      <point x="149" y="0" type="line"/>
      <point x="150" y="42"/>
      <point x="236" y="195"/>
      <point x="278" y="268" type="curve" smooth="yes"/>
      <point x="311" y="325" type="line"/>
      <point x="352" y="226"/>
      <point x="433" y="74"/>
      <point x="448" y="7" type="curve"/>
    </contour>
  </outline>
</glyph>
<glyph name="Y" format="1">
  <advance width="496"/>
  <unicode hex="0059"/>
  <outline>
    <contour>
      <point x="189" y="589" type="curve" smooth="yes"/>
      <point x="160" y="638"/>
      <point x="96" y="732"/>
      <point x="65" y="747" type="curve"/>
      <point x="142" y="811" type="line"/>
      <point x="146" y="812"/>
      <point x="149" y="813"/>
      <point x="153" y="813" type="curve" smooth="yes"/>
      <point x="197" y="813"/>
      <point x="232" y="715"/>
      <point x="363" y="490" type="curve"/>
      <point x="390" y="538"/>
      <point x="419" y="593"/>
      <point x="433" y="628" type="curve"/>
      <point x="457" y="673"/>
      <point x="496" y="764"/>
      <point x="496" y="799" type="curve" smooth="yes"/>
      <point x="496" y="802"/>
      <point x="496" y="805"/>
      <point x="495" y="807" type="curve"/>
      <point x="561" y="814" type="line"/>
      <point x="571" y="811"/>
      <point x="576" y="804"/>
      <point x="576" y="792" type="curve" smooth="yes"/>
      <point x="576" y="743"/>
      <point x="499" y="615"/>
      <point x="397" y="393" type="curve"/>
      <point x="397" y="278" type="line"/>
      <point x="397" y="230"/>
      <point x="396" y="182"/>
      <point x="396" y="137" type="curve" smooth="yes"/>
      <point x="396" y="92"/>
      <point x="396" y="42"/>
      <point x="397" y="2" type="curve"/>
      <point x="279" y="2" type="line"/>
      <point x="284" y="108"/>
      <point x="293" y="223"/>
      <point x="293" y="328" type="curve" smooth="yes"/>
      <point x="293" y="346"/>
      <point x="293" y="364"/>
      <point x="292" y="382" type="curve"/>
      <point x="262" y="448"/>
      <point x="213" y="547"/>
    </contour>
    <contour>
      <point x="331" y="755" type="move" name="top"/>
    </contour>
  </outline>
</glyph>
<glyph name="Z" format="1">
  <advance width="711"/>
  <unicode hex="005A"/>
  <outline>
    <contour>
      <point x="446" y="713" type="line"/>
      <point x="431" y="716"/>
      <point x="416" y="718"/>
      <point x="403" y="718" type="curve" smooth="yes"/>
      <point x="263" y="718"/>
      <point x="228" y="551"/>
      <point x="228" y="471" type="curve"/>
      <point x="228" y="458" type="line"/>
      <point x="205" y="455" type="line"/>
      <point x="165" y="520"/>
      <point x="138" y="580"/>
      <point x="138" y="618" type="curve" smooth="yes"/>
      <point x="138" y="621"/>
      <point x="139" y="624"/>
      <point x="139" y="627" type="curve"/>
      <point x="157" y="693"/>
      <point x="257" y="801"/>
      <point x="333" y="805" type="curve"/>
      <point x="339" y="805" type="line"/>
      <point x="367" y="805"/>
      <point x="431" y="787"/>
      <point x="473" y="775" type="curve"/>
      <point x="536" y="751"/>
      <point x="583" y="740"/>
      <point x="621" y="740" type="curve" smooth="yes"/>
      <point x="641" y="740"/>
      <point x="658" y="743"/>
      <point x="673" y="749" type="curve"/>
      <point x="679" y="667" type="line"/>
      <point x="639" y="675" type="line"/>
      <point x="613" y="579"/>
      <point x="500" y="382"/>
      <point x="349" y="69" type="curve"/>
      <point x="459" y="78"/>
      <point x="669" y="106"/>
      <point x="697" y="109" type="curve"/>
      <point x="658" y="7" type="line"/>
      <point x="620" y="8"/>
      <point x="582" y="8"/>
      <point x="544" y="8" type="curve" smooth="yes"/>
      <point x="454" y="8"/>
      <point x="369" y="6"/>
      <point x="299" y="6" type="curve" smooth="yes"/>
      <point x="197" y="6"/>
      <point x="135" y="9"/>
      <point x="135" y="29" type="curve"/>
      <point x="182" y="77" type="line"/>
      <point x="183" y="76"/>
      <point x="188" y="75"/>
      <point x="189" y="75" type="curve"/>
      <point x="255" y="155"/>
      <point x="386" y="382"/>
      <point x="423" y="465" type="curve"/>
      <point x="453" y="532"/>
      <point x="502" y="616"/>
      <point x="506" y="700" type="curve"/>
    </contour>
    <contour>
      <point x="475" y="716" type="move" name="top"/>
    </contour>
  </outline>
</glyph>
<glyph name="bracketleft" format="1">
  <advance width="310"/>
  <unicode hex="005B"/>
  <outline>
    <contour>
      <point x="55" y="808" type="line"/>
      <point x="156" y="810"/>
      <point x="193" y="810"/>
      <point x="196" y="810" type="curve"/>
      <point x="297" y="810"/>
      <point x="346" y="806"/>
      <point x="346" y="776" type="curve"/>
      <point x="295" y="741" type="line"/>
      <point x="266" y="757"/>
      <point x="216" y="757"/>
      <point x="178" y="757" type="curve" smooth="yes"/>
      <point x="171" y="757" type="line"/>
      <point x="179" y="687"/>
      <point x="181" y="556"/>
      <point x="181" y="407" type="curve" smooth="yes"/>
      <point x="181" y="250"/>
      <point x="178" y="75"/>
      <point x="178" y="-66" type="curve" smooth="yes"/>
      <point x="178" y="-101"/>
      <point x="179" y="-135"/>
      <point x="179" y="-165" type="curve"/>
      <point x="217" y="-165"/>
      <point x="266" y="-165"/>
      <point x="295" y="-149" type="curve"/>
      <point x="346" y="-184" type="line"/>
      <point x="346" y="-214"/>
      <point x="297" y="-218"/>
      <point x="196" y="-218" type="curve"/>
      <point x="55" y="-218" type="line"/>
      <point x="80" y="-182" type="line"/>
      <point x="86" y="-59"/>
      <point x="95" y="529"/>
      <point x="95" y="587" type="curve" smooth="yes"/>
      <point x="95" y="635"/>
      <point x="91" y="749"/>
      <point x="79" y="772" type="curve"/>
    </contour>
  </outline>
</glyph>
<glyph name="backslash" format="1">
  <advance width="481"/>
  <unicode hex="005C"/>
  <outline>
    <contour>
      <point x="558" y="-11" type="line"/>
      <point x="533" y="25"/>
      <point x="261" y="561"/>
      <point x="234" y="616" type="curve"/>
      <point x="215" y="652"/>
      <point x="194" y="693"/>
      <point x="189" y="718" type="curve" smooth="yes"/>
      <point x="187" y="725"/>
      <point x="187" y="730"/>
      <point x="187" y="734" type="curve"/>
      <point x="88" y="807" type="line"/>
      <point x="77" y="803"/>
      <point x="75" y="787"/>
      <point x="82" y="762" type="curve"/>
      <point x="95" y="706"/>
      <point x="143" y="606"/>
      <point x="199" y="493" type="curve" smooth="yes"/>
      <point x="268" y="356" type="line" smooth="yes"/>
      <point x="288" y="316"/>
      <point x="310" y="278"/>
      <point x="328" y="240" type="curve"/>
      <point x="356" y="186"/>
      <point x="428" y="41"/>
      <point x="450" y="-3" type="curve"/>
    </contour>
  </outline>
</glyph>
<glyph name="bracketright" format="1">
  <advance width="281"/>
  <unicode hex="005D"/>
  <outline>
    <contour>
      <point x="226" y="808" type="line"/>
      <point x="174" y="809"/>
      <point x="129" y="810"/>
      <point x="85" y="810" type="curve" smooth="yes"/>
      <point x="-16" y="810"/>
      <point x="-65" y="806"/>
      <point x="-65" y="776" type="curve"/>
      <point x="-14" y="741" type="line"/>
      <point x="15" y="757"/>
      <point x="65" y="757"/>
      <point x="103" y="757" type="curve" smooth="yes"/>
      <point x="109" y="757" type="line"/>
      <point x="102" y="687"/>
      <point x="100" y="556"/>
      <point x="100" y="408" type="curve" smooth="yes"/>
      <point x="100" y="240"/>
      <point x="102" y="50"/>
      <point x="102" y="-96" type="curve"/>
      <point x="102" y="-165" type="line"/>
      <point x="64" y="-165"/>
      <point x="15" y="-165"/>
      <point x="-14" y="-149" type="curve"/>
      <point x="-65" y="-184" type="line"/>
      <point x="-65" y="-214"/>
      <point x="-16" y="-218"/>
      <point x="85" y="-218" type="curve"/>
      <point x="226" y="-218" type="line"/>
      <point x="200" y="-182" type="line"/>
      <point x="194" y="-59"/>
      <point x="186" y="529"/>
      <point x="186" y="587" type="curve" smooth="yes"/>
      <point x="186" y="635"/>
      <point x="190" y="749"/>
      <point x="202" y="772" type="curve"/>
      <point x="199" y="773" type="line"/>
    </contour>
  </outline>
</glyph>
<glyph name="asciicircum" format="1">
  <advance width="833"/>
  <unicode hex="005E"/>
  <outline>
    <contour>
      <point x="349" y="775" type="line"/>
      <point x="349" y="774" type="line"/>
      <point x="350" y="774" type="line"/>
      <point x="349" y="773" type="line"/>
      <point x="383" y="676"/>
      <point x="564" y="340"/>
      <point x="513" y="320" type="curve" smooth="yes"/>
      <point x="509" y="318" type="line"/>
      <point x="426" y="406" type="line"/>
      <point x="427" y="411"/>
      <point x="427" y="414"/>
      <point x="429" y="417" type="curve"/>
      <point x="431" y="427"/>
      <point x="431" y="427"/>
      <point x="416" y="465" type="curve"/>
      <point x="397" y="509"/>
      <point x="339" y="600"/>
      <point x="291" y="696" type="curve"/>
      <point x="244" y="600"/>
      <point x="185" y="509"/>
      <point x="167" y="465" type="curve" smooth="yes"/>
      <point x="152" y="427"/>
      <point x="152" y="427"/>
      <point x="154" y="417" type="curve"/>
      <point x="156" y="414"/>
      <point x="156" y="411"/>
      <point x="157" y="406" type="curve"/>
      <point x="74" y="318" type="line"/>
      <point x="70" y="320" type="line" smooth="yes"/>
      <point x="18" y="340"/>
      <point x="200" y="676"/>
      <point x="233" y="773" type="curve"/>
      <point x="233" y="774" type="line"/>
      <point x="233" y="774"/>
      <point x="234" y="774"/>
      <point x="234" y="775" type="curve"/>
      <point x="291" y="774" type="line"/>
    </contour>
  </outline>
</glyph>
<glyph name="underscore" format="1">
  <advance width="552"/>
  <unicode hex="005F"/>
  <outline>
    <contour>
      <point x="15" y="-33" type="line"/>
      <point x="110" y="-33" type="line" smooth="yes"/>
      <point x="154" y="-33"/>
      <point x="231" y="-31"/>
      <point x="276" y="-30" type="curve"/>
      <point x="551" y="-30" type="line"/>
      <point x="516" y="-95" type="line"/>
      <point x="487" y="-97"/>
      <point x="479" y="-92"/>
      <point x="453" y="-92" type="curve" smooth="yes"/>
      <point x="391" y="-93"/>
      <point x="47" y="-97"/>
      <point x="1" y="-102" type="curve"/>
    </contour>
  </outline>
</glyph>
<glyph name="grave" format="1">
  <advance width="400"/>
  <unicode hex="0060"/>
  <outline>
    <contour>
      <point x="180" y="664" type="line"/>
      <point x="196" y="646"/>
      <point x="207" y="637"/>
      <point x="235" y="615" type="curve" smooth="yes"/>
      <point x="257" y="597"/>
      <point x="282" y="579"/>
      <point x="296" y="577" type="curve"/>
      <point x="300" y="499" type="line"/>
      <point x="286" y="481"/>
      <point x="272" y="503"/>
      <point x="140" y="607" type="curve"/>
    </contour>
    <contour>
      <point x="219" y="401" type="move" name="_top"/>
    </contour>
  </outline>
</glyph>
<glyph name="a" format="1">
  <advance width="419"/>
  <unicode hex="0061"/>
  <outline>
    <contour>
      <point x="135" y="4" type="curve" smooth="yes"/>
      <point x="155" y="4"/>
      <point x="200" y="45"/>
      <point x="239" y="89" type="curve"/>
      <point x="253" y="51"/>
      <point x="289" y="12"/>
      <point x="328" y="-6" type="curve"/>
      <point x="381" y="26"/>
      <point x="398" y="67"/>
      <point x="398" y="67" type="curve"/>
      <point x="399" y="83"/>
      <point x="318" y="81"/>
      <point x="318" y="226" type="curve" smooth="yes"/>
      <point x="318" y="235"/>
      <point x="318" y="245"/>
      <point x="319" y="256" type="curve"/>
      <point x="319" y="282"/>
      <point x="324" y="320"/>
      <point x="324" y="342" type="curve" smooth="yes"/>
      <point x="324" y="348"/>
      <point x="324" y="352"/>
      <point x="323" y="355" type="curve" smooth="yes"/>
      <point x="309" y="404"/>
      <point x="218" y="467"/>
      <point x="178" y="471" type="curve" smooth="yes"/>
      <point x="155" y="471"/>
      <point x="105" y="426"/>
      <point x="68" y="388" type="curve"/>
      <point x="74" y="374" type="line"/>
      <point x="89" y="378" type="line"/>
      <point x="106" y="383"/>
      <point x="128" y="389"/>
      <point x="150" y="389" type="curve" smooth="yes"/>
      <point x="191" y="389"/>
      <point x="231" y="367"/>
      <point x="231" y="275" type="curve"/>
      <point x="231" y="262" type="line"/>
      <point x="220" y="263"/>
      <point x="211" y="264"/>
      <point x="201" y="264" type="curve" smooth="yes"/>
      <point x="63" y="264"/>
      <point x="26" y="126"/>
      <point x="21" y="120" type="curve"/>
      <point x="25" y="72"/>
      <point x="90" y="9"/>
    </contour>
    <contour>
      <point x="229" y="114" type="curve"/>
      <point x="216" y="107"/>
      <point x="204" y="104"/>
      <point x="193" y="104" type="curve" smooth="yes"/>
      <point x="145" y="104"/>
      <point x="111" y="159"/>
      <point x="111" y="199" type="curve"/>
      <point x="111" y="199"/>
      <point x="129" y="222"/>
      <point x="189" y="222" type="curve" smooth="yes"/>
      <point x="201" y="222"/>
      <point x="215" y="221"/>
      <point x="231" y="219" type="curve"/>
      <point x="232" y="211"/>
      <point x="233" y="197"/>
      <point x="233" y="183" type="curve" smooth="yes"/>
      <point x="233" y="151"/>
      <point x="230" y="114"/>
    </contour>
    <contour>
      <point x="180" y="458" type="move" name="top"/>
    </contour>
    <contour>
      <point x="324" y="13" type="move" name="bottom"/>
    </contour>
  </outline>
</glyph>
<glyph name="b" format="1">
  <advance width="453"/>
  <unicode hex="0062"/>
  <outline>
    <contour>
      <point x="111" y="2" type="line"/>
      <point x="137" y="56" type="line"/>
      <point x="170" y="28"/>
      <point x="210" y="3"/>
      <point x="235" y="-4" type="curve"/>
      <point x="279" y="-14"/>
      <point x="397" y="146"/>
      <point x="409" y="193" type="curve" smooth="yes"/>
      <point x="431" y="282"/>
      <point x="393" y="455"/>
      <point x="275" y="461" type="curve"/>
      <point x="257" y="461"/>
      <point x="196" y="418"/>
      <point x="160" y="372" type="curve"/>
      <point x="160" y="601"/>
      <point x="159" y="810"/>
      <point x="133" y="810" type="curve"/>
      <point x="60" y="717" type="line"/>
      <point x="72" y="694"/>
      <point x="72" y="635"/>
      <point x="72" y="587" type="curve" smooth="yes"/>
      <point x="72" y="524"/>
      <point x="66" y="41"/>
      <point x="60" y="0" type="curve"/>
    </contour>
    <contour>
      <point x="190" y="345" type="line"/>
      <point x="291" y="406"/>
      <point x="383" y="219"/>
      <point x="328" y="112" type="curve"/>
      <point x="257" y="64"/>
      <point x="185" y="128"/>
      <point x="160" y="207" type="curve"/>
      <point x="160" y="315" type="line"/>
      <point x="163" y="325"/>
      <point x="166" y="336"/>
      <point x="170" y="345" type="curve"/>
    </contour>
  </outline>
</glyph>
<glyph name="c" format="1">
  <advance width="415"/>
  <unicode hex="0063"/>
  <outline>
    <contour>
      <point x="359" y="367" type="curve"/>
      <point x="352" y="398"/>
      <point x="253" y="463"/>
      <point x="219" y="469" type="curve"/>
      <point x="215" y="469" type="line"/>
      <point x="167" y="469"/>
      <point x="56" y="318"/>
      <point x="44" y="272" type="curve" smooth="yes"/>
      <point x="40" y="256"/>
      <point x="38" y="237"/>
      <point x="38" y="217" type="curve" smooth="yes"/>
      <point x="38" y="123"/>
      <point x="81" y="-4"/>
      <point x="178" y="-4" type="curve" smooth="yes"/>
      <point x="200" y="-4"/>
      <point x="348" y="69"/>
      <point x="385" y="116" type="curve"/>
      <point x="363" y="138" type="line"/>
      <point x="336" y="107"/>
      <point x="297" y="91"/>
      <point x="258" y="91" type="curve" smooth="yes"/>
      <point x="188" y="91"/>
      <point x="118" y="146"/>
      <point x="118" y="275" type="curve" smooth="yes"/>
      <point x="118" y="291"/>
      <point x="119" y="309"/>
      <point x="121" y="327" type="curve"/>
      <point x="129" y="358"/>
      <point x="152" y="370"/>
      <point x="178" y="370" type="curve" smooth="yes"/>
      <point x="225" y="370"/>
      <point x="286" y="333"/>
      <point x="308" y="300" type="curve"/>
      <point x="326" y="312"/>
      <point x="357" y="361"/>
    </contour>
    <contour>
      <point x="217" y="449" type="move" name="top"/>
    </contour>
    <contour>
      <point x="180" y="13" type="move" name="bottom"/>
    </contour>
  </outline>
</glyph>
<glyph name="d" format="1">
  <advance width="449"/>
  <unicode hex="0064"/>
  <outline>
    <contour>
      <point x="388" y="-4" type="line"/>
      <point x="382" y="294"/>
      <point x="403" y="804"/>
      <point x="362" y="804" type="curve"/>
      <point x="287" y="708" type="line"/>
      <point x="301" y="686"/>
      <point x="301" y="629"/>
      <point x="301" y="579" type="curve" smooth="yes"/>
      <point x="301" y="559"/>
      <point x="300" y="493"/>
      <point x="299" y="412" type="curve"/>
      <point x="270" y="434"/>
      <point x="238" y="453"/>
      <point x="218" y="459" type="curve"/>
      <point x="175" y="469"/>
      <point x="56" y="309"/>
      <point x="46" y="262" type="curve"/>
      <point x="21" y="173"/>
      <point x="60" y="0"/>
      <point x="178" y="-4" type="curve"/>
      <point x="195" y="-6"/>
      <point x="256" y="39"/>
      <point x="293" y="83" type="curve"/>
      <point x="291" y="36"/>
      <point x="290" y="3"/>
      <point x="289" y="-6" type="curve"/>
    </contour>
    <contour>
      <point x="263" y="110" type="line"/>
      <point x="161" y="49"/>
      <point x="70" y="235"/>
      <point x="125" y="343" type="curve"/>
      <point x="201" y="393"/>
      <point x="275" y="318"/>
      <point x="296" y="233" type="curve"/>
      <point x="296" y="203"/>
      <point x="295" y="173"/>
      <point x="294" y="146" type="curve"/>
      <point x="291" y="133"/>
      <point x="287" y="121"/>
      <point x="283" y="110" type="curve"/>
    </contour>
  </outline>
</glyph>
<glyph name="e" format="1">
  <advance width="422"/>
  <unicode hex="0065"/>
  <outline>
    <contour>
      <point x="309" y="235" type="curve"/>
      <point x="309" y="238" type="line"/>
      <point x="270" y="204"/>
      <point x="162" y="193"/>
      <point x="124" y="196" type="curve"/>
      <point x="157" y="64"/>
      <point x="294" y="63"/>
      <point x="363" y="138" type="curve"/>
      <point x="384" y="116" type="line"/>
      <point x="347" y="69"/>
      <point x="197" y="-6"/>
      <point x="177" y="-4" type="curve"/>
      <point x="61" y="0"/>
      <point x="22" y="173"/>
      <point x="45" y="262" type="curve" smooth="yes"/>
      <point x="57" y="309"/>
      <point x="175" y="469"/>
      <point x="219" y="459" type="curve"/>
      <point x="296" y="451"/>
      <point x="371" y="339"/>
      <point x="373" y="319" type="curve"/>
      <point x="360" y="277"/>
      <point x="309" y="235"/>
    </contour>
    <contour>
      <point x="120" y="317" type="curve"/>
      <point x="117" y="299"/>
      <point x="116" y="283"/>
      <point x="116" y="268" type="curve"/>
      <point x="163" y="225"/>
      <point x="266" y="247"/>
      <point x="305" y="277" type="curve"/>
      <point x="278" y="356"/>
      <point x="140" y="391"/>
    </contour>
    <contour>
      <point x="219" y="442" type="move" name="top"/>
    </contour>
    <contour>
      <point x="180" y="13" type="move" name="bottom"/>
    </contour>
  </outline>
</glyph>
<glyph name="f" format="1">
  <advance width="347"/>
  <unicode hex="0066"/>
  <outline>
    <contour>
      <point x="402" y="706" type="line"/>
      <point x="401" y="698"/>
      <point x="387" y="677"/>
      <point x="368" y="653" type="curve"/>
      <point x="367" y="653"/>
      <point x="367" y="652"/>
      <point x="366" y="651" type="curve" smooth="yes"/>
      <point x="351" y="634" type="line"/>
      <point x="344" y="644"/>
      <point x="335" y="655"/>
      <point x="323" y="665" type="curve"/>
      <point x="401" y="706" type="line"/>
      <point x="402" y="705"/>
      <point x="401" y="704"/>
      <point x="401" y="704" type="curve"/>
      <point x="399" y="699"/>
      <point x="383" y="673"/>
      <point x="368" y="653" type="curve"/>
      <point x="367" y="653"/>
      <point x="367" y="652"/>
      <point x="366" y="651" type="curve" smooth="yes"/>
      <point x="361" y="644"/>
      <point x="355" y="638"/>
      <point x="351" y="634" type="curve" smooth="yes"/>
      <point x="330" y="611"/>
      <point x="304" y="590"/>
      <point x="282" y="579" type="curve"/>
      <point x="265" y="604" type="line"/>
      <point x="289" y="617"/>
      <point x="334" y="645"/>
      <point x="322" y="664" type="curve"/>
      <point x="323" y="665" type="line"/>
      <point x="289" y="693"/>
      <point x="239" y="714"/>
      <point x="206" y="702" type="curve"/>
      <point x="200" y="464" type="line"/>
      <point x="351" y="466" type="line"/>
      <point x="342" y="413" type="line"/>
      <point x="198" y="411" type="line"/>
      <point x="193" y="193" type="line"/>
      <point x="195" y="-344" type="line"/>
      <point x="94" y="-347" type="line"/>
      <point x="104" y="410" type="line"/>
      <point x="31" y="410" type="line"/>
      <point x="42" y="463" type="line"/>
      <point x="105" y="463" type="line"/>
      <point x="107" y="620" type="line" smooth="yes"/>
      <point x="108" y="655"/>
      <point x="228" y="814"/>
      <point x="273" y="804" type="curve"/>
      <point x="324" y="797"/>
      <point x="397" y="719"/>
      <point x="401" y="706" type="curve"/>
    </contour>
  </outline>
</glyph>
<glyph name="h" format="1">
  <advance width="489"/>
  <unicode hex="0068"/>
  <outline>
    <contour>
      <point x="160" y="2" type="line"/>
      <point x="158" y="107"/>
      <point x="159" y="238"/>
      <point x="159" y="364" type="curve"/>
      <point x="180" y="373"/>
      <point x="206" y="378"/>
      <point x="237" y="374" type="curve" smooth="yes"/>
      <point x="322" y="361"/>
      <point x="344" y="280"/>
      <point x="344" y="183" type="curve" smooth="yes"/>
      <point x="344" y="144"/>
      <point x="340" y="37"/>
      <point x="334" y="0" type="curve"/>
      <point x="434" y="2" type="line"/>
      <point x="434" y="14"/>
      <point x="432" y="124"/>
      <point x="432" y="166" type="curve" smooth="yes"/>
      <point x="432" y="238"/>
      <point x="434" y="319"/>
      <point x="434" y="319" type="curve"/>
      <point x="432" y="398"/>
      <point x="324" y="465"/>
      <point x="277" y="465" type="curve" smooth="yes"/>
      <point x="235" y="465"/>
      <point x="193" y="435"/>
      <point x="159" y="404" type="curve"/>
      <point x="160" y="619"/>
      <point x="158" y="810"/>
      <point x="133" y="810" type="curve"/>
      <point x="60" y="717" type="line"/>
      <point x="72" y="694"/>
      <point x="72" y="635"/>
      <point x="72" y="587" type="curve" smooth="yes"/>
      <point x="72" y="524"/>
      <point x="66" y="41"/>
      <point x="60" y="0" type="curve"/>
    </contour>
    <contour>
      <point x="228" y="764" type="move" name="top"/>
    </contour>
  </outline>
</glyph>
<glyph name="i" format="1">
  <advance width="264"/>
  <unicode hex="0069"/>
  <outline>
    <contour>
      <point x="134" y="692" type="curve"/>
      <point x="114" y="692"/>
      <point x="89" y="677"/>
      <point x="85" y="653" type="curve" smooth="yes"/>
      <point x="83" y="649"/>
      <point x="83" y="645"/>
      <point x="83" y="639" type="curve" smooth="yes"/>
      <point x="83" y="612"/>
      <point x="101" y="586"/>
      <point x="130" y="586" type="curve" smooth="yes"/>
      <point x="158" y="586"/>
      <point x="181" y="612"/>
      <point x="181" y="639" type="curve" smooth="yes"/>
      <point x="181" y="661"/>
      <point x="171" y="692"/>
    </contour>
    <contour>
      <point x="185" y="2" type="line"/>
      <point x="184" y="49"/>
      <point x="184" y="92"/>
      <point x="184" y="132" type="curve" smooth="yes"/>
      <point x="184" y="205"/>
      <point x="185" y="267"/>
      <point x="185" y="317" type="curve" smooth="yes"/>
      <point x="185" y="414"/>
      <point x="181" y="465"/>
      <point x="158" y="465" type="curve"/>
      <point x="85" y="369" type="line"/>
      <point x="97" y="347"/>
      <point x="97" y="290"/>
      <point x="97" y="240" type="curve" smooth="yes"/>
      <point x="97" y="177"/>
      <point x="91" y="41"/>
      <point x="85" y="0" type="curve"/>
    </contour>
    <contour>
      <point x="135" y="481" type="move" name="top"/>
    </contour>
  </outline>
</glyph>
<glyph name="j" format="1">
  <advance width="266"/>
  <unicode hex="006A"/>
  <outline>
    <contour>
      <point x="-108" y="-213" type="curve"/>
      <point x="-105" y="-242"/>
      <point x="-7" y="-309"/>
      <point x="22" y="-314" type="curve"/>
      <point x="24" y="-314"/>
      <point x="25" y="-315"/>
      <point x="27" y="-315" type="curve" smooth="yes"/>
      <point x="75" y="-315"/>
      <point x="185" y="-165"/>
      <point x="185" y="-132" type="curve"/>
      <point x="185" y="-106"/>
      <point x="184" y="-79"/>
      <point x="184" y="-52" type="curve" smooth="yes"/>
      <point x="184" y="62"/>
      <point x="187" y="136"/>
      <point x="187" y="235" type="curve" smooth="yes"/>
      <point x="187" y="368"/>
      <point x="182" y="465"/>
      <point x="159" y="465" type="curve" smooth="yes"/>
      <point x="159" y="465"/>
      <point x="158" y="465"/>
      <point x="85" y="369" type="curve"/>
      <point x="97" y="347"/>
      <point x="97" y="290"/>
      <point x="97" y="240" type="curve" smooth="yes"/>
      <point x="97" y="187"/>
      <point x="91" y="-95"/>
      <point x="87" y="-213" type="curve"/>
      <point x="81" y="-215"/>
      <point x="74" y="-216"/>
      <point x="67" y="-216" type="curve" smooth="yes"/>
      <point x="23" y="-216"/>
      <point x="-36" y="-179"/>
      <point x="-57" y="-146" type="curve"/>
      <point x="-75" y="-160"/>
      <point x="-106" y="-207"/>
    </contour>
    <contour>
      <point x="134" y="692" type="curve" smooth="yes"/>
      <point x="114" y="692"/>
      <point x="89" y="677"/>
      <point x="85" y="653" type="curve"/>
      <point x="83" y="649"/>
      <point x="83" y="645"/>
      <point x="83" y="639" type="curve" smooth="yes"/>
      <point x="83" y="612"/>
      <point x="101" y="586"/>
      <point x="130" y="586" type="curve" smooth="yes"/>
      <point x="158" y="586"/>
      <point x="181" y="612"/>
      <point x="181" y="639" type="curve" smooth="yes"/>
      <point x="181" y="661"/>
      <point x="171" y="692"/>
    </contour>
    <contour>
      <point x="135" y="470" type="move" name="top"/>
    </contour>
  </outline>
</glyph>
<glyph name="k" format="1">
  <advance width="489"/>
  <unicode hex="006B"/>
  <outline>
    <contour>
      <point x="352" y="458" type="curve"/>
      <point x="368" y="452"/>
      <point x="415" y="360"/>
      <point x="416" y="301" type="curve"/>
      <point x="386" y="297" type="line"/>
      <point x="384" y="319"/>
      <point x="371" y="339"/>
      <point x="355" y="339" type="curve" smooth="yes"/>
      <point x="352" y="339"/>
      <point x="349" y="338"/>
      <point x="346" y="337" type="curve"/>
      <point x="327" y="331"/>
      <point x="300" y="303"/>
      <point x="273" y="274" type="curve"/>
      <point x="329" y="207" type="line"/>
      <point x="361" y="169"/>
      <point x="393" y="124"/>
      <point x="418" y="114" type="curve"/>
      <point x="421" y="113"/>
      <point x="423" y="113"/>
      <point x="425" y="113" type="curve" smooth="yes"/>
      <point x="445" y="113"/>
      <point x="462" y="134"/>
      <point x="466" y="157" type="curve"/>
      <point x="496" y="150" type="line"/>
      <point x="490" y="94"/>
      <point x="439" y="13"/>
      <point x="420" y="-6" type="curve"/>
      <point x="416" y="-9"/>
      <point x="412" y="-10"/>
      <point x="408" y="-10" type="curve" smooth="yes"/>
      <point x="379" y="-10"/>
      <point x="342" y="56"/>
      <point x="220" y="212" type="curve"/>
      <point x="159" y="139" type="line"/>
      <point x="159" y="91"/>
      <point x="159" y="43"/>
      <point x="160" y="2" type="curve"/>
      <point x="60" y="2" type="line"/>
      <point x="66" y="41"/>
      <point x="72" y="524"/>
      <point x="72" y="587" type="curve" smooth="yes"/>
      <point x="72" y="635"/>
      <point x="72" y="694"/>
      <point x="60" y="717" type="curve"/>
      <point x="133" y="810" type="line"/>
      <point x="156" y="810"/>
      <point x="159" y="649"/>
      <point x="159" y="455" type="curve"/>
      <point x="159" y="273" type="line"/>
      <point x="253" y="379"/>
      <point x="327" y="459"/>
      <point x="349" y="459" type="curve" smooth="yes"/>
      <point x="350" y="459"/>
      <point x="351" y="458"/>
    </contour>
    <contour>
      <point x="228" y="2" type="move" name="bottom"/>
    </contour>
  </outline>
</glyph>
<glyph name="l" format="1">
  <advance width="262"/>
  <unicode hex="006C"/>
  <outline>
    <contour>
      <point x="183" y="2" type="line"/>
      <point x="182" y="49"/>
      <point x="182" y="100"/>
      <point x="182" y="154" type="curve" smooth="yes"/>
      <point x="182" y="253"/>
      <point x="183" y="360"/>
      <point x="183" y="459" type="curve" smooth="yes"/>
      <point x="183" y="651"/>
      <point x="179" y="810"/>
      <point x="156" y="810" type="curve"/>
      <point x="83" y="717" type="line"/>
      <point x="95" y="694"/>
      <point x="95" y="635"/>
      <point x="95" y="587" type="curve" smooth="yes"/>
      <point x="95" y="524"/>
      <point x="89" y="41"/>
      <point x="83" y="0" type="curve"/>
    </contour>
    <contour>
      <point x="153" y="780" type="move" name="top"/>
    </contour>
  </outline>
</glyph>
<glyph name="m" format="1">
  <advance width="756"/>
  <unicode hex="006D"/>
  <outline>
    <contour>
      <point x="155" y="2" type="line"/>
      <point x="152" y="153"/>
      <point x="155" y="269"/>
      <point x="154" y="347" type="curve"/>
      <point x="170" y="361"/>
      <point x="191" y="370"/>
      <point x="222" y="369" type="curve"/>
      <point x="331" y="363"/>
      <point x="339" y="280"/>
      <point x="339" y="183" type="curve" smooth="yes"/>
      <point x="339" y="144"/>
      <point x="335" y="37"/>
      <point x="329" y="0" type="curve"/>
      <point x="431" y="2" type="line"/>
      <point x="429" y="14"/>
      <point x="429" y="124"/>
      <point x="429" y="166" type="curve" smooth="yes"/>
      <point x="429" y="228"/>
      <point x="432" y="325"/>
      <point x="420" y="361" type="curve"/>
      <point x="441" y="372"/>
      <point x="470" y="378"/>
      <point x="504" y="374" type="curve"/>
      <point x="591" y="361"/>
      <point x="611" y="280"/>
      <point x="611" y="183" type="curve" smooth="yes"/>
      <point x="611" y="144"/>
      <point x="607" y="37"/>
      <point x="601" y="0" type="curve"/>
      <point x="701" y="2" type="line"/>
      <point x="701" y="14"/>
      <point x="699" y="124"/>
      <point x="699" y="166" type="curve" smooth="yes"/>
      <point x="699" y="238"/>
      <point x="701" y="319"/>
      <point x="701" y="319" type="curve"/>
      <point x="699" y="398"/>
      <point x="591" y="465"/>
      <point x="544" y="465" type="curve" smooth="yes"/>
      <point x="493" y="465"/>
      <point x="444" y="422"/>
      <point x="407" y="385" type="curve"/>
      <point x="385" y="412"/>
      <point x="309" y="465"/>
      <point x="266" y="465" type="curve" smooth="yes"/>
      <point x="228" y="465"/>
      <point x="188" y="426"/>
      <point x="153" y="385" type="curve"/>
      <point x="151" y="437"/>
      <point x="144" y="465"/>
      <point x="128" y="465" type="curve"/>
      <point x="55" y="369" type="line"/>
      <point x="67" y="347"/>
      <point x="67" y="290"/>
      <point x="67" y="240" type="curve" smooth="yes"/>
      <point x="67" y="177"/>
      <point x="61" y="41"/>
      <point x="55" y="0" type="curve"/>
    </contour>
  </outline>
</glyph>
<glyph name="n" format="1">
  <advance width="486"/>
  <unicode hex="006E"/>
  <outline>
    <contour>
      <point x="155" y="2" type="line"/>
      <point x="154" y="56"/>
      <point x="154" y="104"/>
      <point x="154" y="149" type="curve"/>
      <point x="154" y="347" type="line"/>
      <point x="169" y="360"/>
      <point x="189" y="369"/>
      <point x="217" y="369" type="curve"/>
      <point x="222" y="369" type="line"/>
      <point x="331" y="363"/>
      <point x="339" y="280"/>
      <point x="339" y="183" type="curve" smooth="yes"/>
      <point x="339" y="144"/>
      <point x="335" y="37"/>
      <point x="329" y="0" type="curve"/>
      <point x="431" y="0" type="line"/>
      <point x="429" y="14"/>
      <point x="429" y="124"/>
      <point x="429" y="166" type="curve"/>
      <point x="429" y="236" type="line"/>
      <point x="429" y="298"/>
      <point x="427" y="362"/>
      <point x="413" y="374" type="curve"/>
      <point x="413" y="392"/>
      <point x="317" y="465"/>
      <point x="266" y="465" type="curve" smooth="yes"/>
      <point x="228" y="465"/>
      <point x="188" y="426"/>
      <point x="153" y="385" type="curve"/>
      <point x="151" y="437"/>
      <point x="144" y="465"/>
      <point x="128" y="465" type="curve"/>
      <point x="55" y="369" type="line"/>
      <point x="67" y="347"/>
      <point x="67" y="290"/>
      <point x="67" y="240" type="curve" smooth="yes"/>
      <point x="67" y="177"/>
      <point x="61" y="41"/>
      <point x="55" y="0" type="curve"/>
    </contour>
    <contour>
      <point x="255" y="451" type="move" name="top"/>
    </contour>
    <contour>
      <point x="235" y="2" type="move" name="bottom"/>
    </contour>
  </outline>
</glyph>
<glyph name="o" format="1">
  <advance width="439"/>
  <unicode hex="006F"/>
  <outline>
    <contour>
      <point x="303" y="84" type="curve"/>
      <point x="179" y="14"/>
      <point x="71" y="228"/>
      <point x="137" y="353" type="curve"/>
      <point x="276" y="439"/>
      <point x="345" y="201"/>
    </contour>
    <contour>
      <point x="200" y="-4" type="curve" smooth="yes"/>
      <point x="259" y="-4"/>
      <point x="405" y="150"/>
      <point x="405" y="208" type="curve"/>
      <point x="417" y="330"/>
      <point x="396" y="455"/>
      <point x="235" y="455" type="curve" smooth="yes"/>
      <point x="176" y="455"/>
      <point x="31" y="299"/>
      <point x="31" y="241" type="curve" smooth="yes"/>
      <point x="31" y="121"/>
      <point x="40" y="-4"/>
    </contour>
    <contour>
      <point x="233" y="451" type="move" name="top"/>
    </contour>
  </outline>
</glyph>
<glyph name="p" format="1">
  <advance width="453"/>
  <unicode hex="0070"/>
  <outline>
    <contour>
      <point x="160" y="-309" type="line"/>
      <point x="159" y="-261"/>
      <point x="158" y="-244"/>
      <point x="158" y="-189" type="curve" smooth="yes"/>
      <point x="158" y="-115"/>
      <point x="159" y="-37"/>
      <point x="159" y="38" type="curve"/>
      <point x="187" y="18"/>
      <point x="215" y="1"/>
      <point x="234" y="-4" type="curve"/>
      <point x="238" y="-4" type="line"/>
      <point x="286" y="-4"/>
      <point x="397" y="147"/>
      <point x="409" y="193" type="curve" smooth="yes"/>
      <point x="413" y="209"/>
      <point x="415" y="227"/>
      <point x="415" y="247" type="curve" smooth="yes"/>
      <point x="415" y="338"/>
      <point x="372" y="461"/>
      <point x="275" y="461" type="curve"/>
      <point x="257" y="461"/>
      <point x="194" y="416"/>
      <point x="158" y="369" type="curve" smooth="yes"/>
      <point x="154" y="365" type="line"/>
      <point x="150" y="427"/>
      <point x="144" y="465"/>
      <point x="133" y="465" type="curve"/>
      <point x="60" y="369" type="line"/>
      <point x="72" y="347"/>
      <point x="72" y="290"/>
      <point x="72" y="240" type="curve" smooth="yes"/>
      <point x="72" y="177"/>
      <point x="67" y="-271"/>
      <point x="61" y="-311" type="curve"/>
    </contour>
    <contour>
      <point x="190" y="345" type="curve"/>
      <point x="204" y="353"/>
      <point x="218" y="357"/>
      <point x="231" y="357" type="curve" smooth="yes"/>
      <point x="295" y="357"/>
      <point x="345" y="270"/>
      <point x="345" y="187" type="curve" smooth="yes"/>
      <point x="345" y="160"/>
      <point x="340" y="135"/>
      <point x="328" y="112" type="curve"/>
      <point x="311" y="101"/>
      <point x="294" y="96"/>
      <point x="278" y="96" type="curve" smooth="yes"/>
      <point x="224" y="96"/>
      <point x="177" y="151"/>
      <point x="159" y="214" type="curve"/>
      <point x="159" y="302" type="line"/>
      <point x="160" y="317"/>
      <point x="165" y="332"/>
    </contour>
  </outline>
</glyph>
<glyph name="q" format="1">
  <advance width="448"/>
  <unicode hex="0071"/>
  <outline>
    <contour>
      <point x="342" y="453" type="line"/>
      <point x="316" y="398" type="line"/>
      <point x="283" y="427"/>
      <point x="243" y="452"/>
      <point x="219" y="459" type="curve"/>
      <point x="174" y="469"/>
      <point x="56" y="309"/>
      <point x="44" y="262" type="curve" smooth="yes"/>
      <point x="22" y="173"/>
      <point x="60" y="0"/>
      <point x="178" y="-4" type="curve"/>
      <point x="195" y="-6"/>
      <point x="255" y="38"/>
      <point x="292" y="81" type="curve"/>
      <point x="291" y="-147"/>
      <point x="293" y="-355"/>
      <point x="320" y="-355" type="curve"/>
      <point x="322" y="-352" type="line"/>
      <point x="343" y="-351"/>
      <point x="433" y="-308"/>
      <point x="468" y="-262" type="curve"/>
      <point x="446" y="-240" type="line"/>
      <point x="432" y="-257"/>
      <point x="409" y="-266"/>
      <point x="393" y="-260" type="curve"/>
      <point x="381" y="-240"/>
      <point x="379" y="-181"/>
      <point x="379" y="-130" type="curve" smooth="yes"/>
      <point x="379" y="-69"/>
      <point x="387" y="416"/>
      <point x="393" y="455" type="curve"/>
    </contour>
    <contour>
      <point x="263" y="110" type="line"/>
      <point x="160" y="49"/>
      <point x="71" y="235"/>
      <point x="125" y="343" type="curve"/>
      <point x="198" y="392"/>
      <point x="271" y="323"/>
      <point x="294" y="241" type="curve"/>
      <point x="294" y="209"/>
      <point x="293" y="176"/>
      <point x="293" y="144" type="curve"/>
      <point x="290" y="132"/>
      <point x="286" y="120"/>
      <point x="283" y="110" type="curve"/>
    </contour>
  </outline>
</glyph>
<glyph name="r" format="1">
  <advance width="415"/>
  <unicode hex="0072"/>
  <outline>
    <contour>
      <point x="83" y="0" type="line"/>
      <point x="89" y="41"/>
      <point x="95" y="177"/>
      <point x="95" y="240" type="curve" smooth="yes"/>
      <point x="95" y="290"/>
      <point x="95" y="347"/>
      <point x="83" y="369" type="curve"/>
      <point x="156" y="465" type="line"/>
      <point x="173" y="465"/>
      <point x="180" y="436"/>
      <point x="182" y="381" type="curve"/>
      <point x="216" y="423"/>
      <point x="252" y="459"/>
      <point x="271" y="459" type="curve"/>
      <point x="327" y="451"/>
      <point x="405" y="367"/>
      <point x="405" y="358" type="curve"/>
      <point x="386" y="321"/>
      <point x="330" y="255"/>
      <point x="285" y="233" type="curve"/>
      <point x="267" y="259" type="line"/>
      <point x="288" y="270"/>
      <point x="325" y="293"/>
      <point x="325" y="311" type="curve" smooth="yes"/>
      <point x="325" y="314"/>
      <point x="325" y="316"/>
      <point x="323" y="318" type="curve"/>
      <point x="284" y="353"/>
      <point x="253" y="366"/>
      <point x="229" y="366" type="curve" smooth="yes"/>
      <point x="209" y="366"/>
      <point x="193" y="357"/>
      <point x="182" y="346" type="curve"/>
      <point x="182" y="307" type="line"/>
      <point x="182" y="264"/>
      <point x="181" y="211"/>
      <point x="181" y="151" type="curve" smooth="yes"/>
      <point x="183" y="2" type="line"/>
    </contour>
    <contour>
      <point x="242" y="461" type="move" name="top"/>
    </contour>
    <contour>
      <point x="125" y="13" type="move" name="bottom"/>
    </contour>
  </outline>
</glyph>
<glyph name="s" format="1">
  <advance width="419"/>
  <unicode hex="0073"/>
  <outline>
    <contour>
      <point x="41" y="65" type="curve"/>
      <point x="37" y="71"/>
      <point x="35" y="82"/>
      <point x="35" y="97" type="curve" smooth="yes"/>
      <point x="35" y="123"/>
      <point x="42" y="160"/>
      <point x="58" y="194" type="curve"/>
      <point x="88" y="184" type="line"/>
      <point x="84" y="175"/>
      <point x="83" y="167"/>
      <point x="83" y="158" type="curve" smooth="yes"/>
      <point x="83" y="101"/>
      <point x="160" y="79"/>
      <point x="215" y="79" type="curve" smooth="yes"/>
      <point x="252" y="79"/>
      <point x="284" y="93"/>
      <point x="293" y="129" type="curve"/>
      <point x="255" y="202"/>
      <point x="48" y="236"/>
      <point x="48" y="279" type="curve"/>
      <point x="48" y="283" type="line"/>
      <point x="61" y="329"/>
      <point x="174" y="469"/>
      <point x="224" y="469" type="curve" smooth="yes"/>
      <point x="228" y="469" type="line" smooth="yes"/>
      <point x="279" y="461"/>
      <point x="360" y="422"/>
      <point x="360" y="417" type="curve"/>
      <point x="360" y="404" type="line"/>
      <point x="360" y="364"/>
      <point x="349" y="315"/>
      <point x="336" y="292" type="curve"/>
      <point x="306" y="302" type="line"/>
      <point x="309" y="310"/>
      <point x="311" y="319"/>
      <point x="311" y="328" type="curve" smooth="yes"/>
      <point x="311" y="372"/>
      <point x="249" y="395"/>
      <point x="216" y="395" type="curve" smooth="yes"/>
      <point x="185" y="395"/>
      <point x="157" y="379"/>
      <point x="146" y="338" type="curve"/>
      <point x="146" y="338"/>
      <point x="404" y="222"/>
      <point x="404" y="175" type="curve" smooth="yes"/>
      <point x="392" y="129"/>
      <point x="251" y="-5"/>
      <point x="200" y="-5" type="curve" smooth="yes"/>
      <point x="198" y="-5"/>
      <point x="196" y="-4"/>
      <point x="194" y="-4" type="curve"/>
      <point x="142" y="4"/>
      <point x="41" y="57"/>
    </contour>
    <contour>
      <point x="238" y="450" type="move" name="top"/>
    </contour>
    <contour>
      <point x="214" y="3" type="move" name="bottom"/>
    </contour>
  </outline>
</glyph>
<glyph name="t" format="1">
  <advance width="363"/>
  <unicode hex="0074"/>
  <outline>
    <contour>
      <point x="43" y="467" type="line"/>
      <point x="101" y="465" type="line"/>
      <point x="108" y="583" type="line"/>
      <point x="209" y="583" type="line"/>
      <point x="207" y="572"/>
      <point x="200" y="524"/>
      <point x="194" y="463" type="curve"/>
      <point x="353" y="459" type="line"/>
      <point x="341" y="408" type="line"/>
      <point x="189" y="412" type="line"/>
      <point x="180" y="298"/>
      <point x="174" y="160"/>
      <point x="195" y="105" type="curve" smooth="yes"/>
      <point x="200" y="92"/>
      <point x="214" y="87"/>
      <point x="224" y="87" type="curve" smooth="yes"/>
      <point x="258" y="87"/>
      <point x="314" y="151"/>
      <point x="315" y="150" type="curve" smooth="yes"/>
      <point x="337" y="128" type="line"/>
      <point x="273" y="41"/>
      <point x="166" y="-6"/>
      <point x="146" y="-4" type="curve"/>
      <point x="110" y="-4"/>
      <point x="95" y="49"/>
      <point x="91" y="122" type="curve" smooth="yes"/>
      <point x="87" y="208"/>
      <point x="92" y="320"/>
      <point x="98" y="414" type="curve"/>
      <point x="32" y="416" type="line"/>
    </contour>
    <contour>
      <point x="141" y="13" type="move" name="bottom"/>
    </contour>
  </outline>
</glyph>
<glyph name="u" format="1">
  <advance width="468"/>
  <unicode hex="0075"/>
  <outline>
    <contour>
      <point x="307" y="439" type="line"/>
      <point x="308" y="391"/>
      <point x="308" y="348"/>
      <point x="308" y="308" type="curve" smooth="yes"/>
      <point x="308" y="229"/>
      <point x="307" y="166"/>
      <point x="307" y="117" type="curve"/>
      <point x="287" y="102"/>
      <point x="262" y="89"/>
      <point x="241" y="89" type="curve"/>
      <point x="160" y="93"/>
      <point x="149" y="138"/>
      <point x="149" y="198" type="curve" smooth="yes"/>
      <point x="149" y="222"/>
      <point x="151" y="248"/>
      <point x="151" y="276" type="curve" smooth="yes"/>
      <point x="151" y="315"/>
      <point x="153" y="408"/>
      <point x="159" y="445" type="curve"/>
      <point x="60" y="439" type="line"/>
      <point x="62" y="425"/>
      <point x="62" y="337"/>
      <point x="62" y="292" type="curve"/>
      <point x="62" y="223" type="line"/>
      <point x="62" y="161"/>
      <point x="64" y="96"/>
      <point x="78" y="85" type="curve"/>
      <point x="78" y="67"/>
      <point x="141" y="-4"/>
      <point x="194" y="-4" type="curve" smooth="yes"/>
      <point x="225" y="-4"/>
      <point x="269" y="34"/>
      <point x="308" y="75" type="curve"/>
      <point x="311" y="22"/>
      <point x="317" y="-4"/>
      <point x="336" y="-4" type="curve"/>
      <point x="413" y="0" type="line"/>
      <point x="401" y="23"/>
      <point x="395" y="171"/>
      <point x="395" y="221" type="curve" smooth="yes"/>
      <point x="395" y="282"/>
      <point x="403" y="414"/>
      <point x="409" y="455" type="curve"/>
    </contour>
    <contour>
      <point x="239" y="426" type="move" name="top"/>
    </contour>
    <contour>
      <point x="368" y="4" type="move" name="bottom"/>
    </contour>
  </outline>
</glyph>
<glyph name="v" format="1">
  <advance width="433"/>
  <unicode hex="0076"/>
  <outline>
    <contour>
      <point x="297" y="82" type="line"/>
      <point x="294" y="87"/>
      <point x="292" y="92"/>
      <point x="290" y="97" type="curve"/>
      <point x="364" y="309"/>
      <point x="411" y="406"/>
      <point x="411" y="445" type="curve" smooth="yes"/>
      <point x="411" y="456"/>
      <point x="407" y="463"/>
      <point x="399" y="466" type="curve"/>
      <point x="340" y="458" type="line"/>
      <point x="341" y="456"/>
      <point x="341" y="453"/>
      <point x="341" y="450" type="curve" smooth="yes"/>
      <point x="341" y="417"/>
      <point x="312" y="330"/>
      <point x="295" y="287" type="curve"/>
      <point x="287" y="262"/>
      <point x="271" y="220"/>
      <point x="253" y="178" type="curve"/>
      <point x="169" y="371"/>
      <point x="140" y="464"/>
      <point x="109" y="464" type="curve" smooth="yes"/>
      <point x="107" y="464"/>
      <point x="104" y="463"/>
      <point x="102" y="462" type="curve"/>
      <point x="81" y="455"/>
      <point x="6" y="390"/>
      <point x="-16" y="336" type="curve"/>
      <point x="11" y="320" type="line"/>
      <point x="18" y="336"/>
      <point x="35" y="354"/>
      <point x="53" y="354" type="curve" smooth="yes"/>
      <point x="57" y="354"/>
      <point x="61" y="353"/>
      <point x="65" y="351" type="curve"/>
      <point x="86" y="332"/>
      <point x="108" y="279"/>
      <point x="129" y="233" type="curve" smooth="yes"/>
      <point x="153" y="178"/>
      <point x="206" y="36"/>
      <point x="216" y="-3" type="curve"/>
    </contour>
  </outline>
</glyph>
<glyph name="w" format="1">
  <advance width="650"/>
  <unicode hex="0077"/>
  <outline>
    <contour>
      <point x="454" y="-4" type="line"/>
      <point x="444" y="35"/>
      <point x="391" y="175"/>
      <point x="366" y="231" type="curve"/>
      <point x="352" y="259" type="line"/>
      <point x="337" y="219"/>
      <point x="317" y="166"/>
      <point x="291" y="93" type="curve"/>
      <point x="297" y="81" type="line"/>
      <point x="216" y="-4" type="line"/>
      <point x="206" y="35"/>
      <point x="155" y="175"/>
      <point x="129" y="231" type="curve" smooth="yes"/>
      <point x="109" y="276"/>
      <point x="86" y="329"/>
      <point x="66" y="345" type="curve"/>
      <point x="68" y="351" type="line"/>
      <point x="49" y="359"/>
      <point x="23" y="344"/>
      <point x="13" y="320" type="curve"/>
      <point x="-14" y="336" type="line"/>
      <point x="9" y="391"/>
      <point x="87" y="458"/>
      <point x="105" y="461" type="curve"/>
      <point x="138" y="475"/>
      <point x="165" y="380"/>
      <point x="257" y="170" type="curve"/>
      <point x="274" y="213"/>
      <point x="291" y="255"/>
      <point x="301" y="282" type="curve" smooth="yes"/>
      <point x="306" y="296"/>
      <point x="312" y="312"/>
      <point x="317" y="328" type="curve"/>
      <point x="312" y="335"/>
      <point x="307" y="341"/>
      <point x="302" y="345" type="curve"/>
      <point x="340" y="461" type="line"/>
      <point x="373" y="474"/>
      <point x="399" y="389"/>
      <point x="480" y="199" type="curve"/>
      <point x="493" y="230"/>
      <point x="504" y="261"/>
      <point x="513" y="286" type="curve" smooth="yes"/>
      <point x="529" y="333"/>
      <point x="564" y="430"/>
      <point x="558" y="457" type="curve"/>
      <point x="616" y="465" type="line"/>
      <point x="653" y="451"/>
      <point x="605" y="371"/>
      <point x="515" y="119" type="curve"/>
      <point x="533" y="81" type="line"/>
    </contour>
    <contour>
      <point x="351" y="447" type="move" name="top"/>
    </contour>
  </outline>
</glyph>
<glyph name="x" format="1">
  <advance width="405"/>
  <unicode hex="0078"/>
  <outline>
    <contour>
      <point x="374" y="4" type="line"/>
      <point x="332" y="88"/>
      <point x="293" y="167"/>
      <point x="257" y="234" type="curve"/>
      <point x="391" y="424"/>
      <point x="413" y="433"/>
      <point x="381" y="456" type="curve"/>
      <point x="316" y="458" type="line"/>
      <point x="316" y="433"/>
      <point x="258" y="344"/>
      <point x="229" y="303" type="curve" smooth="yes"/>
      <point x="223" y="295" type="line"/>
      <point x="160" y="409"/>
      <point x="111" y="478"/>
      <point x="86" y="468" type="curve"/>
      <point x="46" y="352" type="line"/>
      <point x="64" y="340"/>
      <point x="117" y="270"/>
      <point x="149" y="220" type="curve"/>
      <point x="24" y="46"/>
      <point x="-9" y="21"/>
      <point x="21" y="0" type="curve"/>
      <point x="84" y="0" type="line"/>
      <point x="86" y="24"/>
      <point x="145" y="112"/>
      <point x="173" y="154" type="curve" smooth="yes"/>
      <point x="180" y="164" type="line"/>
      <point x="209" y="108"/>
      <point x="253" y="37"/>
      <point x="262" y="4" type="curve"/>
    </contour>
  </outline>
</glyph>
<glyph name="y" format="1">
  <advance width="395"/>
  <unicode hex="0079"/>
  <outline>
    <contour>
      <point x="-16" y="-357" type="line"/>
      <point x="3" y="-307"/>
      <point x="81" y="-138"/>
      <point x="156" y="34" type="curve"/>
      <point x="138" y="92"/>
      <point x="99" y="195"/>
      <point x="78" y="240" type="curve" smooth="yes"/>
      <point x="57" y="286"/>
      <point x="35" y="339"/>
      <point x="15" y="353" type="curve"/>
      <point x="16" y="356" type="line"/>
      <point x="-3" y="365"/>
      <point x="-29" y="350"/>
      <point x="-40" y="326" type="curve"/>
      <point x="-67" y="342" type="line"/>
      <point x="-44" y="397"/>
      <point x="34" y="464"/>
      <point x="52" y="467" type="curve"/>
      <point x="44" y="442" type="line"/>
      <point x="53" y="469" type="line"/>
      <point x="89" y="486"/>
      <point x="109" y="397"/>
      <point x="212" y="165" type="curve"/>
      <point x="269" y="302"/>
      <point x="313" y="423"/>
      <point x="311" y="465" type="curve"/>
      <point x="380" y="475" type="line"/>
      <point x="418" y="459"/>
      <point x="169" y="-77"/>
      <point x="65" y="-357" type="curve"/>
    </contour>
    <contour>
      <point x="196" y="461" type="move" name="top"/>
    </contour>
  </outline>
</glyph>
<glyph name="z" format="1">
  <advance width="444"/>
  <unicode hex="007A"/>
  <outline>
    <contour>
      <point x="249" y="390" type="line"/>
      <point x="231" y="396"/>
      <point x="215" y="398"/>
      <point x="201" y="398" type="curve" smooth="yes"/>
      <point x="118" y="398"/>
      <point x="97" y="313"/>
      <point x="97" y="270" type="curve"/>
      <point x="97" y="264" type="line"/>
      <point x="81" y="262" type="line"/>
      <point x="54" y="300"/>
      <point x="35" y="335"/>
      <point x="35" y="357" type="curve" smooth="yes"/>
      <point x="35" y="359"/>
      <point x="36" y="361"/>
      <point x="36" y="363" type="curve"/>
      <point x="48" y="402"/>
      <point x="118" y="467"/>
      <point x="170" y="467" type="curve"/>
      <point x="192" y="467"/>
      <point x="237" y="451"/>
      <point x="266" y="442" type="curve"/>
      <point x="302" y="431"/>
      <point x="331" y="426"/>
      <point x="355" y="426" type="curve" smooth="yes"/>
      <point x="363" y="426"/>
      <point x="371" y="427"/>
      <point x="378" y="428" type="curve"/>
      <point x="389" y="429"/>
      <point x="398" y="431"/>
      <point x="406" y="434" type="curve"/>
      <point x="410" y="363" type="line"/>
      <point x="374" y="369" type="line"/>
      <point x="347" y="312"/>
      <point x="281" y="213"/>
      <point x="193" y="57" type="curve"/>
      <point x="263" y="62"/>
      <point x="412" y="79"/>
      <point x="432" y="81" type="curve"/>
      <point x="396" y="0" type="line"/>
      <point x="370" y="1"/>
      <point x="344" y="1"/>
      <point x="318" y="1" type="curve" smooth="yes"/>
      <point x="251" y="1"/>
      <point x="188" y="0"/>
      <point x="138" y="0" type="curve" smooth="yes"/>
      <point x="72" y="0"/>
      <point x="28" y="2"/>
      <point x="28" y="14" type="curve"/>
      <point x="83" y="65" type="line"/>
      <point x="112" y="96"/>
      <point x="192" y="219"/>
      <point x="219" y="270" type="curve" smooth="yes"/>
      <point x="242" y="312"/>
      <point x="271" y="360"/>
      <point x="274" y="386" type="curve"/>
    </contour>
    <contour>
      <point x="251" y="436" type="move" name="top"/>
    </contour>
  </outline>
</glyph>
<glyph name="braceleft" format="1">
  <advance width="386"/>
  <unicode hex="007B"/>
  <outline>
    <contour>
      <point x="46" y="295" type="curve"/>
      <point x="47" y="296" type="line"/>
      <point x="46" y="298" type="line"/>
      <point x="49" y="300"/>
      <point x="52" y="303"/>
      <point x="55" y="307" type="curve" smooth="yes"/>
      <point x="57" y="309" type="line" smooth="yes"/>
      <point x="122" y="391"/>
      <point x="96" y="680"/>
      <point x="79" y="772" type="curve"/>
      <point x="81" y="773" type="line"/>
      <point x="55" y="808" type="line"/>
      <point x="155" y="809" type="line"/>
      <point x="156" y="810" type="line"/>
      <point x="156" y="810"/>
      <point x="156" y="809"/>
      <point x="157" y="809" type="curve"/>
      <point x="196" y="810" type="line"/>
      <point x="297" y="810"/>
      <point x="346" y="806"/>
      <point x="346" y="776" type="curve"/>
      <point x="295" y="741" type="line"/>
      <point x="266" y="757"/>
      <point x="216" y="757"/>
      <point x="178" y="757" type="curve" smooth="yes"/>
      <point x="171" y="757" type="line"/>
      <point x="180" y="542"/>
      <point x="216" y="396"/>
      <point x="91" y="296" type="curve"/>
      <point x="216" y="196"/>
      <point x="180" y="51"/>
      <point x="171" y="-164" type="curve"/>
      <point x="178" y="-164" type="line" smooth="yes"/>
      <point x="216" y="-164"/>
      <point x="266" y="-164"/>
      <point x="295" y="-148" type="curve"/>
      <point x="346" y="-183" type="line"/>
      <point x="346" y="-213"/>
      <point x="297" y="-217"/>
      <point x="196" y="-217" type="curve"/>
      <point x="157" y="-216" type="line"/>
      <point x="156" y="-216"/>
      <point x="156" y="-217"/>
      <point x="156" y="-217" type="curve"/>
      <point x="155" y="-216" type="line"/>
      <point x="55" y="-215" type="line"/>
      <point x="81" y="-180" type="line"/>
      <point x="79" y="-179" type="line"/>
      <point x="97" y="-82"/>
      <point x="125" y="233"/>
    </contour>
  </outline>
</glyph>
<glyph name="bar" format="1">
  <advance width="246"/>
  <unicode hex="007C"/>
  <outline>
    <contour>
      <point x="96" y="-287" type="line"/>
      <point x="102" y="-246"/>
      <point x="100" y="593"/>
      <point x="100" y="656" type="curve" smooth="yes"/>
      <point x="100" y="704"/>
      <point x="96" y="818"/>
      <point x="84" y="841" type="curve"/>
      <point x="136" y="870" type="line"/>
      <point x="177" y="870"/>
      <point x="155" y="5"/>
      <point x="161" y="-293" type="curve"/>
    </contour>
  </outline>
</glyph>
<glyph name="braceright" format="1">
  <advance width="463"/>
  <unicode hex="007D"/>
  <outline>
    <contour>
      <point x="336" y="307" type="line"/>
      <point x="332" y="312" type="line" smooth="yes"/>
      <point x="302" y="353"/>
      <point x="293" y="439"/>
      <point x="293" y="528" type="curve" smooth="yes"/>
      <point x="293" y="625"/>
      <point x="304" y="725"/>
      <point x="313" y="772" type="curve"/>
      <point x="337" y="808" type="line"/>
      <point x="263" y="810"/>
      <point x="229" y="810"/>
      <point x="196" y="810" type="curve"/>
      <point x="95" y="810"/>
      <point x="46" y="806"/>
      <point x="46" y="776" type="curve"/>
      <point x="97" y="741" type="line"/>
      <point x="126" y="757"/>
      <point x="176" y="757"/>
      <point x="214" y="757" type="curve" smooth="yes"/>
      <point x="221" y="757" type="line"/>
      <point x="217" y="669"/>
      <point x="208" y="592"/>
      <point x="208" y="526" type="curve" smooth="yes"/>
      <point x="208" y="430"/>
      <point x="226" y="355"/>
      <point x="300" y="296" type="curve"/>
      <point x="226" y="237"/>
      <point x="208" y="162"/>
      <point x="208" y="66" type="curve" smooth="yes"/>
      <point x="208" y="0"/>
      <point x="217" y="-76"/>
      <point x="221" y="-164" type="curve"/>
      <point x="214" y="-164" type="line" smooth="yes"/>
      <point x="176" y="-164"/>
      <point x="126" y="-164"/>
      <point x="97" y="-148" type="curve"/>
      <point x="46" y="-183" type="line"/>
      <point x="46" y="-213"/>
      <point x="95" y="-217"/>
      <point x="196" y="-217" type="curve"/>
      <point x="337" y="-217" type="line"/>
      <point x="311" y="-180" type="line"/>
      <point x="303" y="-133"/>
      <point x="293" y="-35"/>
      <point x="293" y="61" type="curve" smooth="yes"/>
      <point x="293" y="151"/>
      <point x="302" y="238"/>
      <point x="332" y="280" type="curve" smooth="yes"/>
      <point x="336" y="285" type="line" smooth="yes"/>
      <point x="339" y="289"/>
      <point x="342" y="292"/>
      <point x="346" y="295" type="curve"/>
    </contour>
  </outline>
</glyph>
<glyph name="asciitilde" format="1">
  <advance width="560"/>
  <unicode hex="007E"/>
  <outline>
    <contour>
      <point x="233" y="337" type="line"/>
      <point x="255" y="335"/>
      <point x="320" y="266"/>
      <point x="337" y="257" type="curve" smooth="yes"/>
      <point x="341" y="255"/>
      <point x="345" y="254"/>
      <point x="350" y="254" type="curve" smooth="yes"/>
      <point x="380" y="254"/>
      <point x="422" y="297"/>
      <point x="451" y="338" type="curve" smooth="yes"/>
      <point x="452" y="339" type="line"/>
      <point x="454" y="339"/>
      <point x="461" y="332"/>
      <point x="461" y="332" type="curve"/>
      <point x="457" y="254" type="line"/>
      <point x="412" y="203"/>
      <point x="380" y="179"/>
      <point x="327" y="179" type="curve" smooth="yes"/>
      <point x="314" y="179"/>
      <point x="240" y="261"/>
      <point x="219" y="261" type="curve" smooth="yes"/>
      <point x="185" y="261"/>
      <point x="121" y="179"/>
      <point x="108" y="179" type="curve" smooth="yes"/>
      <point x="104" y="179"/>
      <point x="102" y="181"/>
      <point x="99" y="185" type="curve"/>
      <point x="103" y="263" type="line"/>
      <point x="139" y="294"/>
      <point x="178" y="337"/>
      <point x="225" y="337" type="curve" smooth="yes"/>
    </contour>
  </outline>
</glyph>
<glyph name="exclamdown" format="1">
  <advance width="296"/>
  <unicode hex="00A1"/>
  <outline>
    <contour>
      <point x="102" y="228" type="line"/>
      <point x="108" y="185"/>
      <point x="115" y="-24"/>
      <point x="115" y="-84" type="curve" smooth="yes"/>
      <point x="115" y="-134"/>
      <point x="104" y="-192"/>
      <point x="92" y="-214" type="curve"/>
      <point x="157" y="-314" type="line"/>
      <point x="208" y="-402"/>
      <point x="213" y="110"/>
      <point x="180" y="281" type="curve"/>
    </contour>
    <contour>
      <point x="152" y="335" type="curve" smooth="yes"/>
      <point x="202" y="335"/>
      <point x="215" y="378"/>
      <point x="215" y="408" type="curve" smooth="yes"/>
      <point x="215" y="445"/>
      <point x="186" y="479"/>
      <point x="148" y="479" type="curve" smooth="yes"/>
      <point x="107" y="479"/>
      <point x="81" y="445"/>
      <point x="81" y="408" type="curve" smooth="yes"/>
      <point x="81" y="400"/>
      <point x="81" y="394"/>
      <point x="83" y="388" type="curve" smooth="yes"/>
      <point x="91" y="355"/>
      <point x="123" y="335"/>
    </contour>
  </outline>
</glyph>
<glyph name="cent" format="1">
  <advance width="415"/>
  <unicode hex="00A2"/>
  <outline>
    <contour>
      <point x="173" y="-78" type="line"/>
      <point x="174" y="-67"/>
      <point x="175" y="-39"/>
      <point x="176" y="-4" type="curve"/>
      <point x="59" y="2"/>
      <point x="22" y="183"/>
      <point x="44" y="272" type="curve" smooth="yes"/>
      <point x="52" y="306"/>
      <point x="117" y="400"/>
      <point x="169" y="445" type="curve"/>
      <point x="166" y="478"/>
      <point x="162" y="507"/>
      <point x="157" y="517" type="curve"/>
      <point x="209" y="546" type="line"/>
      <point x="221" y="546"/>
      <point x="228" y="516"/>
      <point x="232" y="466" type="curve"/>
      <point x="287" y="448"/>
      <point x="366" y="369"/>
      <point x="359" y="367" type="curve"/>
      <point x="357" y="361"/>
      <point x="326" y="312"/>
      <point x="308" y="300" type="curve"/>
      <point x="294" y="320"/>
      <point x="266" y="341"/>
      <point x="236" y="355" type="curve"/>
      <point x="237" y="280"/>
      <point x="236" y="188"/>
      <point x="236" y="92" type="curve"/>
      <point x="282" y="85"/>
      <point x="330" y="102"/>
      <point x="363" y="138" type="curve"/>
      <point x="385" y="116" type="line"/>
      <point x="361" y="85"/>
      <point x="289" y="43"/>
      <point x="236" y="18" type="curve"/>
      <point x="236" y="-16"/>
      <point x="237" y="-50"/>
      <point x="238" y="-84" type="curve"/>
    </contour>
    <contour>
      <point x="121" y="327" type="curve"/>
      <point x="107" y="220"/>
      <point x="134" y="153"/>
      <point x="177" y="119" type="curve"/>
      <point x="177" y="201"/>
      <point x="176" y="283"/>
      <point x="176" y="314" type="curve" smooth="yes"/>
      <point x="176" y="327"/>
      <point x="175" y="347"/>
      <point x="174" y="370" type="curve"/>
      <point x="149" y="369"/>
      <point x="129" y="357"/>
    </contour>
  </outline>
</glyph>
<glyph name="sterling" format="1">
  <advance width="553"/>
  <unicode hex="00A3"/>
  <outline>
    <contour>
      <point x="157" y="387" type="line"/>
      <point x="230" y="387" type="line"/>
      <point x="232" y="405"/>
      <point x="235" y="435"/>
      <point x="236" y="475" type="curve"/>
      <point x="264" y="533"/>
      <point x="358" y="655"/>
      <point x="401" y="655" type="curve"/>
      <point x="405" y="655" type="line"/>
      <point x="422" y="652"/>
      <point x="443" y="642"/>
      <point x="463" y="628" type="curve"/>
      <point x="469" y="627"/>
      <point x="473" y="624"/>
      <point x="475" y="620" type="curve"/>
      <point x="512" y="593"/>
      <point x="545" y="559"/>
      <point x="545" y="554" type="curve" smooth="yes"/>
      <point x="545" y="547"/>
      <point x="511" y="499"/>
      <point x="494" y="486" type="curve"/>
      <point x="471" y="519"/>
      <point x="410" y="556"/>
      <point x="363" y="556" type="curve" smooth="yes"/>
      <point x="338" y="556"/>
      <point x="317" y="545"/>
      <point x="308" y="517" type="curve" smooth="yes"/>
      <point x="307" y="513"/>
      <point x="306" y="509"/>
      <point x="306" y="505" type="curve" smooth="yes"/>
      <point x="305" y="492"/>
      <point x="305" y="479"/>
      <point x="305" y="467" type="curve" smooth="yes"/>
      <point x="305" y="438"/>
      <point x="307" y="414"/>
      <point x="309" y="397" type="curve" smooth="yes"/>
      <point x="309" y="393"/>
      <point x="310" y="390"/>
      <point x="310" y="387" type="curve"/>
      <point x="345" y="387"/>
      <point x="380" y="388"/>
      <point x="416" y="389" type="curve" smooth="yes"/>
      <point x="447" y="389" type="line"/>
      <point x="405" y="323" type="line"/>
      <point x="373" y="323"/>
      <point x="364" y="326"/>
      <point x="342" y="326" type="curve" smooth="yes"/>
      <point x="332" y="326"/>
      <point x="322" y="326"/>
      <point x="312" y="325" type="curve"/>
      <point x="303" y="233"/>
      <point x="257" y="135"/>
      <point x="189" y="74" type="curve"/>
      <point x="248" y="70"/>
      <point x="322" y="68"/>
      <point x="362" y="68" type="curve" smooth="yes"/>
      <point x="374" y="68" type="line" smooth="yes"/>
      <point x="411" y="68"/>
      <point x="462" y="68"/>
      <point x="492" y="84" type="curve"/>
      <point x="558" y="34" type="line"/>
      <point x="558" y="5"/>
      <point x="511" y="1"/>
      <point x="412" y="1" type="curve" smooth="yes"/>
      <point x="343" y="1" type="line" smooth="yes"/>
      <point x="318" y="1"/>
      <point x="262" y="2"/>
      <point x="232" y="2" type="curve" smooth="yes"/>
      <point x="188" y="2"/>
      <point x="129" y="1"/>
      <point x="76" y="0" type="curve"/>
      <point x="112" y="81" type="line"/>
      <point x="120" y="79"/>
      <point x="133" y="78"/>
      <point x="149" y="77" type="curve"/>
      <point x="200" y="119"/>
      <point x="222" y="234"/>
      <point x="227" y="325" type="curve"/>
      <point x="191" y="323"/>
      <point x="172" y="321"/>
      <point x="136" y="317" type="curve"/>
    </contour>
  </outline>
</glyph>
<glyph name="currency" format="1">
  <advance width="526"/>
  <unicode hex="00A4"/>
  <outline>
    <contour>
      <point x="66" y="353" type="curve" smooth="yes"/>
      <point x="66" y="390"/>
      <point x="76" y="425"/>
      <point x="95" y="454" type="curve"/>
      <point x="70" y="484"/>
      <point x="50" y="512"/>
      <point x="36" y="532" type="curve"/>
      <point x="93" y="562" type="line"/>
      <point x="99" y="553"/>
      <point x="118" y="531"/>
      <point x="142" y="504" type="curve"/>
      <point x="173" y="531"/>
      <point x="214" y="545"/>
      <point x="258" y="545" type="curve" smooth="yes"/>
      <point x="301" y="545"/>
      <point x="341" y="532"/>
      <point x="371" y="506" type="curve"/>
      <point x="373" y="503" type="line"/>
      <point x="423" y="562" type="line"/>
      <point x="480" y="532" type="line"/>
      <point x="466" y="512"/>
      <point x="445" y="484"/>
      <point x="420" y="454" type="curve"/>
      <point x="439" y="425"/>
      <point x="448" y="390"/>
      <point x="448" y="353" type="curve" smooth="yes"/>
      <point x="448" y="315"/>
      <point x="438" y="280"/>
      <point x="417" y="249" type="curve"/>
      <point x="443" y="217"/>
      <point x="465" y="188"/>
      <point x="480" y="167" type="curve"/>
      <point x="423" y="137" type="line"/>
      <point x="416" y="146"/>
      <point x="395" y="170"/>
      <point x="369" y="200" type="curve"/>
      <point x="340" y="177"/>
      <point x="301" y="163"/>
      <point x="258" y="163" type="curve" smooth="yes"/>
      <point x="216" y="163"/>
      <point x="177" y="176"/>
      <point x="146" y="200" type="curve"/>
      <point x="120" y="170"/>
      <point x="100" y="146"/>
      <point x="93" y="137" type="curve"/>
      <point x="36" y="167" type="line"/>
      <point x="50" y="188"/>
      <point x="73" y="217"/>
      <point x="99" y="249" type="curve"/>
      <point x="78" y="280"/>
      <point x="66" y="315"/>
    </contour>
    <contour>
      <point x="126" y="353" type="curve" smooth="yes"/>
      <point x="126" y="281"/>
      <point x="185" y="223"/>
      <point x="258" y="223" type="curve" smooth="yes"/>
      <point x="331" y="223"/>
      <point x="389" y="281"/>
      <point x="389" y="353" type="curve" smooth="yes"/>
      <point x="389" y="427"/>
      <point x="331" y="485"/>
      <point x="258" y="485" type="curve" smooth="yes"/>
      <point x="185" y="485"/>
      <point x="126" y="427"/>
    </contour>
  </outline>
</glyph>
<glyph name="yen" format="1">
  <advance width="655"/>
  <unicode hex="00A5"/>
  <outline>
    <contour>
      <point x="100" y="206" type="line"/>
      <point x="291" y="206" type="line"/>
      <point x="292" y="232"/>
      <point x="293" y="259"/>
      <point x="293" y="285" type="curve"/>
      <point x="229" y="284"/>
      <point x="138" y="281"/>
      <point x="99" y="277" type="curve"/>
      <point x="120" y="347" type="line"/>
      <point x="286" y="347" type="line"/>
      <point x="256" y="412"/>
      <point x="212" y="500"/>
      <point x="189" y="539" type="curve" smooth="yes"/>
      <point x="160" y="588"/>
      <point x="96" y="682"/>
      <point x="65" y="697" type="curve"/>
      <point x="142" y="761" type="line"/>
      <point x="192" y="778"/>
      <point x="221" y="683"/>
      <point x="363" y="440" type="curve"/>
      <point x="390" y="488"/>
      <point x="419" y="543"/>
      <point x="433" y="578" type="curve"/>
      <point x="459" y="627"/>
      <point x="503" y="731"/>
      <point x="495" y="757" type="curve"/>
      <point x="561" y="764" type="line"/>
      <point x="612" y="750"/>
      <point x="525" y="621"/>
      <point x="398" y="347" type="curve"/>
      <point x="567" y="351" type="line"/>
      <point x="598" y="351" type="line"/>
      <point x="556" y="285" type="line"/>
      <point x="527" y="283"/>
      <point x="519" y="288"/>
      <point x="493" y="288" type="curve" smooth="yes"/>
      <point x="480" y="288"/>
      <point x="436" y="287"/>
      <point x="397" y="286" type="curve"/>
      <point x="397" y="228" type="line"/>
      <point x="396" y="210"/>
      <point x="396" y="213"/>
      <point x="396" y="221" type="curve" smooth="yes"/>
      <point x="396" y="206" type="line"/>
      <point x="547" y="210" type="line"/>
      <point x="578" y="210" type="line"/>
      <point x="536" y="144" type="line"/>
      <point x="507" y="142"/>
      <point x="499" y="147"/>
      <point x="473" y="147" type="curve" smooth="yes"/>
      <point x="462" y="147"/>
      <point x="429" y="146"/>
      <point x="396" y="145" type="curve"/>
      <point x="396" y="86"/>
      <point x="396" y="27"/>
      <point x="397" y="2" type="curve"/>
      <point x="279" y="0" type="line"/>
      <point x="281" y="51"/>
      <point x="285" y="98"/>
      <point x="288" y="142" type="curve"/>
      <point x="284" y="143"/>
      <point x="280" y="143"/>
      <point x="278" y="144" type="curve"/>
      <point x="214" y="143"/>
      <point x="119" y="140"/>
      <point x="79" y="136" type="curve"/>
    </contour>
  </outline>
</glyph>
<glyph name="brokenbar" format="1">
  <advance width="246"/>
  <unicode hex="00A6"/>
  <outline>
    <contour>
      <point x="94" y="-285" type="line"/>
      <point x="100" y="-244"/>
      <point x="100" y="-116"/>
      <point x="100" y="-53" type="curve" smooth="yes"/>
      <point x="100" y="193" type="line"/>
      <point x="161" y="193" type="line"/>
      <point x="162" y="189"/>
      <point x="162" y="183"/>
      <point x="162" y="173" type="curve" smooth="yes"/>
      <point x="162" y="131"/>
      <point x="157" y="32"/>
      <point x="157" y="-126" type="curve" smooth="yes"/>
      <point x="157" y="-157"/>
      <point x="158" y="-193"/>
      <point x="159" y="-230" type="curve"/>
      <point x="159" y="-291" type="line"/>
    </contour>
    <contour>
      <point x="95" y="384" type="line"/>
      <point x="99" y="415"/>
      <point x="100" y="518"/>
      <point x="100" y="594" type="curve" smooth="yes"/>
      <point x="100" y="657" type="line" smooth="yes"/>
      <point x="100" y="705"/>
      <point x="96" y="819"/>
      <point x="84" y="842" type="curve"/>
      <point x="136" y="871" type="line"/>
      <point x="160" y="865"/>
      <point x="158" y="676"/>
      <point x="160" y="378" type="curve"/>
    </contour>
  </outline>
</glyph>
<glyph name="section" format="1">
  <advance width="512"/>
  <unicode hex="00A7"/>
  <outline>
    <contour>
      <point x="71" y="-25" type="line"/>
      <point x="61" y="-10"/>
      <point x="62" y="50"/>
      <point x="88" y="104" type="curve"/>
      <point x="118" y="94" type="line"/>
      <point x="110" y="75"/>
      <point x="111" y="54"/>
      <point x="120" y="41" type="curve"/>
      <point x="121" y="42" type="line"/>
      <point x="123" y="38" type="line"/>
      <point x="126" y="35"/>
      <point x="130" y="33"/>
      <point x="134" y="32" type="curve"/>
      <point x="131" y="29" type="line"/>
      <point x="155" y="3"/>
      <point x="197" y="-11"/>
      <point x="245" y="-11" type="curve" smooth="yes"/>
      <point x="282" y="-11"/>
      <point x="314" y="3"/>
      <point x="323" y="39" type="curve"/>
      <point x="284" y="114"/>
      <point x="85" y="147"/>
      <point x="78" y="193" type="curve" smooth="yes"/>
      <point x="68" y="251"/>
      <point x="153" y="378"/>
      <point x="209" y="415" type="curve"/>
      <point x="141" y="444"/>
      <point x="71" y="467"/>
      <point x="78" y="493" type="curve" smooth="yes"/>
      <point x="91" y="539"/>
      <point x="204" y="679"/>
      <point x="254" y="679" type="curve" smooth="yes"/>
      <point x="258" y="679" type="line" smooth="yes"/>
      <point x="311" y="671"/>
      <point x="397" y="629"/>
      <point x="389" y="627" type="curve"/>
      <point x="388" y="626"/>
      <point x="388" y="624"/>
      <point x="386" y="622" type="curve"/>
      <point x="392" y="599"/>
      <point x="388" y="548"/>
      <point x="366" y="502" type="curve"/>
      <point x="336" y="512" type="line"/>
      <point x="343" y="528"/>
      <point x="343" y="548"/>
      <point x="336" y="561" type="curve"/>
      <point x="327" y="571" type="line" smooth="yes"/>
      <point x="325" y="573"/>
      <point x="322" y="574"/>
      <point x="320" y="575" type="curve"/>
      <point x="321" y="576" type="line"/>
      <point x="277" y="615"/>
      <point x="196" y="624"/>
      <point x="176" y="548" type="curve"/>
      <point x="176" y="548"/>
      <point x="434" y="432"/>
      <point x="434" y="385" type="curve" smooth="yes"/>
      <point x="434" y="382" type="line"/>
      <point x="425" y="350"/>
      <point x="362" y="239"/>
      <point x="310" y="181" type="curve"/>
      <point x="373" y="147"/>
      <point x="434" y="108"/>
      <point x="434" y="85" type="curve" smooth="yes"/>
      <point x="434" y="82" type="line"/>
      <point x="422" y="37"/>
      <point x="269" y="-106"/>
      <point x="224" y="-94" type="curve"/>
      <point x="170" y="-86"/>
      <point x="63" y="-29"/>
      <point x="71" y="-26" type="curve"/>
    </contour>
    <contour>
      <point x="323" y="339" type="curve"/>
      <point x="310" y="362"/>
      <point x="280" y="382"/>
      <point x="245" y="399" type="curve"/>
      <point x="211" y="361"/>
      <point x="169" y="280"/>
      <point x="176" y="248" type="curve"/>
      <point x="176" y="248"/>
      <point x="218" y="229"/>
      <point x="269" y="203" type="curve"/>
      <point x="297" y="226"/>
      <point x="315" y="308"/>
    </contour>
  </outline>
</glyph>
<glyph name="dieresis" format="1">
  <advance width="438"/>
  <unicode hex="00A8"/>
  <outline>
    <contour>
      <point x="134" y="672" type="curve" smooth="yes"/>
      <point x="114" y="672"/>
      <point x="89" y="656"/>
      <point x="85" y="633" type="curve" smooth="yes"/>
      <point x="83" y="629"/>
      <point x="83" y="623"/>
      <point x="83" y="619" type="curve" smooth="yes"/>
      <point x="83" y="593"/>
      <point x="101" y="566"/>
      <point x="130" y="566" type="curve" smooth="yes"/>
      <point x="158" y="566"/>
      <point x="181" y="591"/>
      <point x="181" y="617" type="curve" smooth="yes"/>
      <point x="181" y="639"/>
      <point x="171" y="672"/>
    </contour>
    <contour>
      <point x="302" y="672" type="curve" smooth="yes"/>
      <point x="282" y="672"/>
      <point x="258" y="656"/>
      <point x="254" y="633" type="curve" smooth="yes"/>
      <point x="252" y="629"/>
      <point x="252" y="623"/>
      <point x="252" y="619" type="curve" smooth="yes"/>
      <point x="252" y="593"/>
      <point x="270" y="566"/>
      <point x="298" y="566" type="curve" smooth="yes"/>
      <point x="327" y="566"/>
      <point x="349" y="591"/>
      <point x="349" y="617" type="curve" smooth="yes"/>
      <point x="349" y="639"/>
      <point x="339" y="672"/>
    </contour>
    <contour>
      <point x="207" y="461" type="move" name="_top"/>
    </contour>
  </outline>
</glyph>
<glyph name="copyright" format="1">
  <advance width="713"/>
  <unicode hex="00A9"/>
  <outline>
    <contour>
      <point x="489" y="449" type="curve"/>
      <point x="485" y="475"/>
      <point x="389" y="536"/>
      <point x="364" y="541" type="curve"/>
      <point x="319" y="541"/>
      <point x="218" y="405"/>
      <point x="208" y="364" type="curve" smooth="yes"/>
      <point x="204" y="350"/>
      <point x="203" y="332"/>
      <point x="203" y="314" type="curve" smooth="yes"/>
      <point x="203" y="231"/>
      <point x="241" y="120"/>
      <point x="327" y="118" type="curve"/>
      <point x="372" y="120"/>
      <point x="483" y="189"/>
      <point x="513" y="224" type="curve"/>
      <point x="494" y="245" type="line"/>
      <point x="469" y="218"/>
      <point x="434" y="203"/>
      <point x="399" y="203" type="curve" smooth="yes"/>
      <point x="336" y="203"/>
      <point x="274" y="252"/>
      <point x="274" y="367" type="curve" smooth="yes"/>
      <point x="274" y="382"/>
      <point x="275" y="397"/>
      <point x="277" y="414" type="curve"/>
      <point x="284" y="442"/>
      <point x="304" y="452"/>
      <point x="327" y="452" type="curve" smooth="yes"/>
      <point x="369" y="452"/>
      <point x="423" y="419"/>
      <point x="444" y="389" type="curve"/>
      <point x="460" y="400"/>
      <point x="488" y="444"/>
    </contour>
    <contour>
      <point x="35" y="321" type="curve" smooth="yes"/>
      <point x="35" y="144"/>
      <point x="179" y="0"/>
      <point x="356" y="0" type="curve" smooth="yes"/>
      <point x="534" y="0"/>
      <point x="678" y="144"/>
      <point x="678" y="321" type="curve" smooth="yes"/>
      <point x="678" y="499"/>
      <point x="534" y="643"/>
      <point x="356" y="643" type="curve" smooth="yes"/>
      <point x="179" y="643"/>
      <point x="35" y="499"/>
    </contour>
    <contour>
      <point x="105" y="321" type="curve" smooth="yes"/>
      <point x="105" y="460"/>
      <point x="218" y="572"/>
      <point x="356" y="572" type="curve" smooth="yes"/>
      <point x="495" y="572"/>
      <point x="607" y="460"/>
      <point x="607" y="321" type="curve" smooth="yes"/>
      <point x="607" y="183"/>
      <point x="495" y="70"/>
      <point x="356" y="70" type="curve" smooth="yes"/>
      <point x="218" y="70"/>
      <point x="105" y="183"/>
    </contour>
  </outline>
</glyph>
<glyph name="ordfeminine" format="1">
  <advance width="419"/>
  <unicode hex="00AA"/>
  <outline>
    <contour>
      <point x="165" y="434" type="curve" smooth="yes"/>
      <point x="180" y="434"/>
      <point x="213" y="464"/>
      <point x="241" y="496" type="curve"/>
      <point x="252" y="469"/>
      <point x="278" y="439"/>
      <point x="307" y="426" type="curve"/>
      <point x="346" y="450"/>
      <point x="359" y="481"/>
      <point x="359" y="481" type="curve"/>
      <point x="360" y="491"/>
      <point x="300" y="489"/>
      <point x="300" y="595" type="curve" smooth="yes"/>
      <point x="300" y="603"/>
      <point x="300" y="611"/>
      <point x="301" y="620" type="curve"/>
      <point x="301" y="636"/>
      <point x="304" y="662"/>
      <point x="304" y="679" type="curve" smooth="yes"/>
      <point x="304" y="685"/>
      <point x="304" y="689"/>
      <point x="303" y="692" type="curve" smooth="yes"/>
      <point x="294" y="728"/>
      <point x="226" y="774"/>
      <point x="196" y="778" type="curve" smooth="yes"/>
      <point x="180" y="778"/>
      <point x="144" y="746"/>
      <point x="115" y="716" type="curve"/>
      <point x="120" y="707" type="line"/>
      <point x="131" y="710" type="line"/>
      <point x="143" y="713"/>
      <point x="159" y="717"/>
      <point x="175" y="717" type="curve" smooth="yes"/>
      <point x="206" y="717"/>
      <point x="235" y="701"/>
      <point x="235" y="633" type="curve"/>
      <point x="235" y="623" type="line"/>
      <point x="227" y="624"/>
      <point x="219" y="625"/>
      <point x="212" y="625" type="curve" smooth="yes"/>
      <point x="111" y="625"/>
      <point x="85" y="524"/>
      <point x="81" y="519" type="curve"/>
      <point x="80" y="511"/>
      <point x="113" y="439"/>
    </contour>
    <contour>
      <point x="234" y="515" type="curve"/>
      <point x="225" y="510"/>
      <point x="216" y="508"/>
      <point x="208" y="508" type="curve" smooth="yes"/>
      <point x="172" y="508"/>
      <point x="147" y="549"/>
      <point x="147" y="577" type="curve"/>
      <point x="147" y="577"/>
      <point x="161" y="595"/>
      <point x="207" y="595" type="curve" smooth="yes"/>
      <point x="215" y="595"/>
      <point x="224" y="594"/>
      <point x="235" y="593" type="curve"/>
      <point x="236" y="587"/>
      <point x="237" y="577"/>
      <point x="237" y="566" type="curve" smooth="yes"/>
      <point x="237" y="543"/>
      <point x="235" y="515"/>
    </contour>
    <contour>
      <point x="96" y="387" type="line"/>
      <point x="191" y="387" type="line" smooth="yes"/>
      <point x="235" y="387"/>
      <point x="280" y="388"/>
      <point x="325" y="389" type="curve"/>
      <point x="370" y="389" type="line"/>
      <point x="333" y="337" type="line"/>
      <point x="320" y="337" type="line"/>
      <point x="301" y="337"/>
      <point x="292" y="340"/>
      <point x="270" y="340" type="curve" smooth="yes"/>
      <point x="208" y="339"/>
      <point x="126" y="336"/>
      <point x="80" y="331" type="curve"/>
    </contour>
  </outline>
</glyph>
<glyph name="guillemotleft" format="1">
  <advance width="492"/>
  <unicode hex="00AB"/>
  <outline>
    <contour>
      <point x="77" y="235" type="line"/>
      <point x="95" y="251"/>
      <point x="150" y="321"/>
      <point x="172" y="350" type="curve" smooth="yes"/>
      <point x="190" y="372"/>
      <point x="208" y="396"/>
      <point x="210" y="411" type="curve"/>
      <point x="288" y="415" type="line"/>
      <point x="304" y="401"/>
      <point x="251" y="341"/>
      <point x="166" y="233" type="curve"/>
      <point x="251" y="125"/>
      <point x="304" y="64"/>
      <point x="288" y="51" type="curve"/>
      <point x="210" y="55" type="line"/>
      <point x="208" y="70"/>
      <point x="190" y="94"/>
      <point x="172" y="116" type="curve" smooth="yes"/>
      <point x="150" y="145"/>
      <point x="95" y="215"/>
      <point x="77" y="231" type="curve"/>
      <point x="79" y="233" type="line"/>
    </contour>
    <contour>
      <point x="277" y="235" type="line"/>
      <point x="295" y="251"/>
      <point x="350" y="321"/>
      <point x="372" y="350" type="curve" smooth="yes"/>
      <point x="390" y="372"/>
      <point x="408" y="396"/>
      <point x="410" y="411" type="curve"/>
      <point x="488" y="415" type="line"/>
      <point x="504" y="401"/>
      <point x="451" y="341"/>
      <point x="366" y="233" type="curve"/>
      <point x="451" y="125"/>
      <point x="504" y="64"/>
      <point x="488" y="51" type="curve"/>
      <point x="410" y="55" type="line"/>
      <point x="408" y="70"/>
      <point x="390" y="94"/>
      <point x="372" y="116" type="curve" smooth="yes"/>
      <point x="350" y="145"/>
      <point x="295" y="215"/>
      <point x="277" y="231" type="curve"/>
      <point x="279" y="233" type="line"/>
    </contour>
  </outline>
</glyph>
<glyph name="logicalnot" format="1">
  <advance width="652"/>
  <unicode hex="00AC"/>
  <outline>
    <contour>
      <point x="489" y="187" type="line"/>
      <point x="489" y="282" type="line" smooth="yes"/>
      <point x="489" y="326"/>
      <point x="488" y="371"/>
      <point x="487" y="416" type="curve"/>
      <point x="488" y="441" type="line"/>
      <point x="482" y="441"/>
      <point x="476" y="442"/>
      <point x="468" y="442" type="curve" smooth="yes"/>
      <point x="406" y="441"/>
      <point x="124" y="438"/>
      <point x="78" y="433" type="curve"/>
      <point x="96" y="507" type="line"/>
      <point x="191" y="507" type="line" smooth="yes"/>
      <point x="235" y="507"/>
      <point x="280" y="508"/>
      <point x="325" y="509" type="curve"/>
      <point x="570" y="509" type="line"/>
      <point x="560" y="492" type="line"/>
      <point x="561" y="458"/>
      <point x="557" y="400"/>
      <point x="557" y="377" type="curve" smooth="yes"/>
      <point x="558" y="315"/>
      <point x="558" y="215"/>
      <point x="563" y="169" type="curve"/>
    </contour>
  </outline>
</glyph>
<glyph name="uni00AD" format="1">
  <advance width="290"/>
  <unicode hex="00AD"/>
  <outline>
    <contour>
      <point x="271" y="251" type="line"/>
      <point x="103" y="251"/>
      <point x="17" y="261"/>
      <point x="17" y="237" type="curve"/>
      <point x="65" y="179" type="line"/>
      <point x="79" y="187"/>
      <point x="112" y="187"/>
      <point x="140" y="187" type="curve"/>
      <point x="175" y="185"/>
      <point x="248" y="185"/>
      <point x="270" y="183" type="curve"/>
    </contour>
  </outline>
</glyph>
<glyph name="registered" format="1">
  <advance width="540"/>
  <unicode hex="00AE"/>
  <outline>
    <contour>
      <point x="35" y="547" type="curve" smooth="yes"/>
      <point x="35" y="419"/>
      <point x="141" y="313"/>
      <point x="270" y="313" type="curve" smooth="yes"/>
      <point x="399" y="313"/>
      <point x="505" y="419"/>
      <point x="505" y="547" type="curve" smooth="yes"/>
      <point x="505" y="677"/>
      <point x="399" y="783"/>
      <point x="270" y="783" type="curve" smooth="yes"/>
      <point x="141" y="783"/>
      <point x="35" y="677"/>
    </contour>
    <contour>
      <point x="86" y="547" type="curve" smooth="yes"/>
      <point x="86" y="649"/>
      <point x="169" y="731"/>
      <point x="270" y="731" type="curve" smooth="yes"/>
      <point x="371" y="731"/>
      <point x="453" y="649"/>
      <point x="453" y="547" type="curve" smooth="yes"/>
      <point x="453" y="447"/>
      <point x="371" y="364"/>
      <point x="270" y="364" type="curve" smooth="yes"/>
      <point x="169" y="364"/>
      <point x="86" y="447"/>
    </contour>
    <contour>
      <point x="192" y="608" type="line" smooth="yes"/>
      <point x="192" y="624"/>
      <point x="192" y="639"/>
      <point x="187" y="652" type="curve" smooth="yes"/>
      <point x="173" y="686" type="line"/>
      <point x="301" y="687" type="line"/>
      <point x="348" y="683"/>
      <point x="363" y="650"/>
      <point x="363" y="622" type="curve" smooth="yes"/>
      <point x="363" y="586"/>
      <point x="337" y="557"/>
      <point x="311" y="543" type="curve"/>
      <point x="318" y="533"/>
      <point x="324" y="527"/>
      <point x="331" y="520" type="curve" smooth="yes"/>
      <point x="346" y="502" type="line" smooth="yes"/>
      <point x="378" y="461"/>
      <point x="399" y="434"/>
      <point x="383" y="422" type="curve"/>
      <point x="345" y="423" type="line"/>
      <point x="344" y="432"/>
      <point x="330" y="454"/>
      <point x="321" y="466" type="curve" smooth="yes"/>
      <point x="311" y="479" type="line" smooth="yes"/>
      <point x="302" y="490"/>
      <point x="282" y="515"/>
      <point x="266" y="533" type="curve"/>
      <point x="236" y="533" type="line"/>
      <point x="236" y="529" type="line" smooth="yes"/>
      <point x="236" y="521"/>
      <point x="235" y="514"/>
      <point x="235" y="507" type="curve" smooth="yes"/>
      <point x="235" y="486" type="line" smooth="yes"/>
      <point x="235" y="477"/>
      <point x="236" y="467"/>
      <point x="236" y="456" type="curve" smooth="yes"/>
      <point x="236" y="423" type="line"/>
      <point x="185" y="423" type="line"/>
      <point x="189" y="436"/>
      <point x="191" y="498"/>
      <point x="192" y="545" type="curve"/>
    </contour>
    <contour>
      <point x="236" y="561" type="line"/>
      <point x="246" y="560"/>
      <point x="257" y="559"/>
      <point x="265" y="559" type="curve" smooth="yes"/>
      <point x="307" y="559"/>
      <point x="318" y="573"/>
      <point x="319" y="605" type="curve"/>
      <point x="319" y="641"/>
      <point x="301" y="658"/>
      <point x="269" y="658" type="curve" smooth="yes"/>
      <point x="258" y="658"/>
      <point x="246" y="658"/>
      <point x="237" y="657" type="curve" smooth="yes"/>
      <point x="233" y="657" type="line"/>
      <point x="235" y="637"/>
      <point x="236" y="606"/>
      <point x="236" y="576" type="curve" smooth="yes"/>
    </contour>
  </outline>
</glyph>
<glyph name="macron" format="1">
  <advance width="455"/>
  <unicode hex="00AF"/>
  <outline>
    <contour>
      <point x="341" y="631" type="line"/>
      <point x="173" y="631"/>
      <point x="87" y="641"/>
      <point x="87" y="617" type="curve"/>
      <point x="135" y="559" type="line"/>
      <point x="149" y="567"/>
      <point x="182" y="567"/>
      <point x="210" y="567" type="curve" smooth="yes"/>
      <point x="245" y="565"/>
      <point x="318" y="565"/>
      <point x="340" y="563" type="curve"/>
    </contour>
    <contour>
      <point x="223" y="449" type="move" name="_top"/>
    </contour>
  </outline>
</glyph>
<glyph name="degree" format="1">
  <advance width="292"/>
  <unicode hex="00B0"/>
  <outline>
    <contour>
      <point x="35" y="530" type="curve" smooth="yes"/>
      <point x="35" y="468"/>
      <point x="86" y="417"/>
      <point x="148" y="417" type="curve" smooth="yes"/>
      <point x="210" y="417"/>
      <point x="261" y="468"/>
      <point x="261" y="530" type="curve" smooth="yes"/>
      <point x="261" y="592"/>
      <point x="210" y="643"/>
      <point x="148" y="643" type="curve" smooth="yes"/>
      <point x="86" y="643"/>
      <point x="35" y="592"/>
    </contour>
    <contour>
      <point x="73" y="530" type="curve" smooth="yes"/>
      <point x="73" y="572"/>
      <point x="106" y="605"/>
      <point x="148" y="605" type="curve" smooth="yes"/>
      <point x="190" y="605"/>
      <point x="223" y="572"/>
      <point x="223" y="530" type="curve" smooth="yes"/>
      <point x="223" y="488"/>
      <point x="190" y="455"/>
      <point x="148" y="455" type="curve" smooth="yes"/>
      <point x="106" y="455"/>
      <point x="73" y="488"/>
    </contour>
  </outline>
</glyph>
<glyph name="plusminus" format="1">
  <advance width="833"/>
  <unicode hex="00B1"/>
  <outline>
    <contour>
      <point x="96" y="347" type="line"/>
      <point x="191" y="347" type="line"/>
      <point x="276" y="347" type="line"/>
      <point x="276" y="374" type="line" smooth="yes"/>
      <point x="276" y="424"/>
      <point x="272" y="431"/>
      <point x="267" y="464" type="curve"/>
      <point x="316" y="543" type="line" smooth="yes"/>
      <point x="320" y="550"/>
      <point x="323" y="553"/>
      <point x="327" y="553" type="curve" smooth="yes"/>
      <point x="350" y="553"/>
      <point x="352" y="533"/>
      <point x="352" y="388" type="curve" smooth="yes"/>
      <point x="352" y="349" type="line"/>
      <point x="570" y="349" type="line"/>
      <point x="528" y="273" type="line"/>
      <point x="499" y="271"/>
      <point x="491" y="276"/>
      <point x="465" y="276" type="curve"/>
      <point x="445" y="275"/>
      <point x="401" y="275"/>
      <point x="350" y="274" type="curve"/>
      <point x="348" y="223"/>
      <point x="343" y="186"/>
      <point x="335" y="141" type="curve"/>
      <point x="262" y="143" type="line"/>
      <point x="265" y="168"/>
      <point x="269" y="221"/>
      <point x="272" y="273" type="curve"/>
      <point x="185" y="272"/>
      <point x="99" y="269"/>
      <point x="75" y="267" type="curve"/>
    </contour>
    <contour>
      <point x="91" y="77" type="line"/>
      <point x="186" y="77" type="line" smooth="yes"/>
      <point x="230" y="77"/>
      <point x="275" y="78"/>
      <point x="320" y="79" type="curve"/>
      <point x="565" y="79" type="line"/>
      <point x="528" y="13" type="line"/>
      <point x="499" y="11"/>
      <point x="491" y="16"/>
      <point x="465" y="16" type="curve" smooth="yes"/>
      <point x="403" y="15"/>
      <point x="121" y="12"/>
      <point x="75" y="7" type="curve"/>
    </contour>
  </outline>
</glyph>
<glyph name="twosuperior" format="1">
  <advance width="344"/>
  <unicode hex="00B2"/>
  <outline>
    <contour>
      <point x="138" y="796" type="line"/>
      <point x="94" y="790"/>
      <point x="42" y="696"/>
      <point x="42" y="686" type="curve" smooth="yes"/>
      <point x="42" y="686"/>
      <point x="42" y="685"/>
      <point x="45" y="685" type="curve"/>
      <point x="46" y="678"/>
      <point x="68" y="646"/>
      <point x="80" y="634" type="curve"/>
      <point x="93" y="669"/>
      <point x="134" y="722"/>
      <point x="173" y="722" type="curve" smooth="yes"/>
      <point x="194" y="722"/>
      <point x="214" y="690"/>
      <point x="226" y="667" type="curve"/>
      <point x="224" y="661"/>
      <point x="218" y="650"/>
      <point x="212" y="638" type="curve" smooth="yes"/>
      <point x="202" y="616" type="line"/>
      <point x="178" y="570"/>
      <point x="109" y="458"/>
      <point x="84" y="425" type="curve"/>
      <point x="37" y="381" type="line"/>
      <point x="37" y="368"/>
      <point x="64" y="366"/>
      <point x="110" y="366" type="curve" smooth="yes"/>
      <point x="154" y="366" type="line" smooth="yes"/>
      <point x="174" y="366"/>
      <point x="196" y="367"/>
      <point x="220" y="367" type="curve" smooth="yes"/>
      <point x="244" y="367"/>
      <point x="265" y="366"/>
      <point x="292" y="366" type="curve"/>
      <point x="321" y="440" type="line"/>
      <point x="296" y="436" type="line" smooth="yes"/>
      <point x="293" y="436"/>
      <point x="291" y="435"/>
      <point x="288" y="435" type="curve" smooth="yes"/>
      <point x="254" y="430"/>
      <point x="206" y="423"/>
      <point x="174" y="420" type="curve" smooth="yes"/>
      <point x="170" y="420" type="line"/>
      <point x="229" y="532"/>
      <point x="260" y="593"/>
      <point x="270" y="637" type="curve"/>
      <point x="270" y="640"/>
      <point x="271" y="643"/>
      <point x="271" y="646" type="curve" smooth="yes"/>
      <point x="272" y="651"/>
      <point x="273" y="655"/>
      <point x="273" y="659" type="curve" smooth="yes"/>
      <point x="273" y="706"/>
      <point x="188" y="796"/>
      <point x="143" y="796" type="curve"/>
    </contour>
  </outline>
</glyph>
<glyph name="threesuperior" format="1">
  <advance width="319"/>
  <unicode hex="00B3"/>
  <outline>
    <contour>
      <point x="59" y="734" type="curve"/>
      <point x="60" y="731"/>
      <point x="89" y="703"/>
      <point x="107" y="692" type="curve"/>
      <point x="119" y="718"/>
      <point x="144" y="744"/>
      <point x="163" y="744" type="curve" smooth="yes"/>
      <point x="169" y="744"/>
      <point x="175" y="738"/>
      <point x="180" y="723" type="curve"/>
      <point x="187" y="708"/>
      <point x="189" y="692"/>
      <point x="189" y="677" type="curve" smooth="yes"/>
      <point x="189" y="628"/>
      <point x="170" y="592"/>
      <point x="141" y="592" type="curve" smooth="yes"/>
      <point x="138" y="592"/>
      <point x="129" y="596"/>
      <point x="112" y="606" type="curve"/>
      <point x="105" y="582" type="line"/>
      <point x="129" y="570"/>
      <point x="163" y="566"/>
      <point x="180" y="566" type="curve"/>
      <point x="201" y="550"/>
      <point x="216" y="523"/>
      <point x="216" y="481" type="curve" smooth="yes"/>
      <point x="216" y="462"/>
      <point x="192" y="379"/>
      <point x="131" y="379" type="curve" smooth="yes"/>
      <point x="112" y="379"/>
      <point x="108" y="404"/>
      <point x="108" y="425" type="curve"/>
      <point x="89" y="435"/>
      <point x="40" y="436"/>
      <point x="37" y="436" type="curve"/>
      <point x="35" y="426"/>
      <point x="34" y="419"/>
      <point x="34" y="412" type="curve" smooth="yes"/>
      <point x="34" y="353"/>
      <point x="109" y="352"/>
      <point x="166" y="352" type="curve" smooth="yes"/>
      <point x="225" y="352"/>
      <point x="299" y="411"/>
      <point x="299" y="465" type="curve" smooth="yes"/>
      <point x="299" y="496"/>
      <point x="267" y="541"/>
      <point x="221" y="576" type="curve"/>
      <point x="250" y="593"/>
      <point x="262" y="626"/>
      <point x="262" y="657" type="curve" smooth="yes"/>
      <point x="262" y="674"/>
      <point x="260" y="691"/>
      <point x="253" y="706" type="curve" smooth="yes"/>
      <point x="244" y="728"/>
      <point x="166" y="801"/>
      <point x="135" y="801" type="curve" smooth="yes"/>
      <point x="127" y="801"/>
      <point x="124" y="801"/>
      <point x="123" y="800" type="curve"/>
      <point x="99" y="792"/>
      <point x="59" y="741"/>
    </contour>
  </outline>
</glyph>
<glyph name="acute" format="1">
  <advance width="400"/>
  <unicode hex="00B4"/>
  <outline>
    <contour>
      <point x="260" y="664" type="line"/>
      <point x="244" y="646"/>
      <point x="233" y="637"/>
      <point x="205" y="615" type="curve" smooth="yes"/>
      <point x="183" y="597"/>
      <point x="158" y="579"/>
      <point x="144" y="577" type="curve"/>
      <point x="140" y="499" type="line"/>
      <point x="143" y="495"/>
      <point x="146" y="493"/>
      <point x="150" y="493" type="curve" smooth="yes"/>
      <point x="165" y="493"/>
      <point x="195" y="524"/>
      <point x="300" y="607" type="curve"/>
    </contour>
    <contour>
      <point x="223" y="388" type="move" name="_top"/>
    </contour>
  </outline>
</glyph>
<glyph name="uni00B5" format="1">
  <advance width="486"/>
  <unicode hex="00B5"/>
  <outline>
    <contour>
      <point x="149" y="-308" type="line"/>
      <point x="146" y="-201"/>
      <point x="134" y="-105"/>
      <point x="130" y="22" type="curve"/>
      <point x="150" y="7"/>
      <point x="173" y="-4"/>
      <point x="194" y="-4" type="curve" smooth="yes"/>
      <point x="225" y="-4"/>
      <point x="269" y="34"/>
      <point x="308" y="75" type="curve"/>
      <point x="311" y="22"/>
      <point x="317" y="-4"/>
      <point x="336" y="-4" type="curve"/>
      <point x="413" y="0" type="line"/>
      <point x="401" y="23"/>
      <point x="395" y="171"/>
      <point x="395" y="221" type="curve" smooth="yes"/>
      <point x="395" y="282"/>
      <point x="403" y="414"/>
      <point x="409" y="455" type="curve"/>
      <point x="307" y="439" type="line"/>
      <point x="308" y="391"/>
      <point x="308" y="348"/>
      <point x="308" y="308" type="curve" smooth="yes"/>
      <point x="308" y="229"/>
      <point x="307" y="166"/>
      <point x="307" y="117" type="curve"/>
      <point x="287" y="102"/>
      <point x="262" y="89"/>
      <point x="241" y="89" type="curve"/>
      <point x="160" y="93"/>
      <point x="149" y="138"/>
      <point x="149" y="198" type="curve" smooth="yes"/>
      <point x="149" y="222"/>
      <point x="151" y="248"/>
      <point x="151" y="276" type="curve" smooth="yes"/>
      <point x="151" y="315"/>
      <point x="153" y="408"/>
      <point x="159" y="445" type="curve"/>
      <point x="60" y="439" type="line"/>
      <point x="62" y="425"/>
      <point x="62" y="337"/>
      <point x="62" y="292" type="curve"/>
      <point x="62" y="190" type="line"/>
      <point x="62" y="49"/>
      <point x="55" y="-275"/>
      <point x="53" y="-310" type="curve"/>
    </contour>
  </outline>
</glyph>
<glyph name="paragraph" format="1">
  <advance width="715"/>
  <unicode hex="00B6"/>
  <outline>
    <contour>
      <point x="500" y="0" type="curve"/>
      <point x="431" y="0" type="line"/>
      <point x="432" y="54"/>
      <point x="433" y="125"/>
      <point x="433" y="184" type="curve" smooth="yes"/>
      <point x="433" y="227"/>
      <point x="432" y="269"/>
      <point x="432" y="312" type="curve" smooth="yes"/>
      <point x="432" y="466" type="line"/>
      <point x="393" y="462"/>
      <point x="360" y="459"/>
      <point x="331" y="459" type="curve" smooth="yes"/>
      <point x="193" y="459"/>
      <point x="157" y="510"/>
      <point x="155" y="617" type="curve"/>
      <point x="155" y="625" type="line"/>
      <point x="155" y="740"/>
      <point x="217" y="795"/>
      <point x="324" y="795" type="curve"/>
      <point x="374" y="795"/>
      <point x="429" y="791"/>
      <point x="448" y="789" type="curve"/>
      <point x="526" y="789" type="line"/>
      <point x="500" y="768"/>
      <point x="494" y="551"/>
      <point x="494" y="350" type="curve" smooth="yes"/>
      <point x="494" y="173"/>
      <point x="499" y="8"/>
    </contour>
    <contour>
      <point x="620" y="0" type="curve"/>
      <point x="551" y="0" type="line"/>
      <point x="552" y="54"/>
      <point x="553" y="125"/>
      <point x="553" y="184" type="curve" smooth="yes"/>
      <point x="553" y="218"/>
      <point x="552" y="252"/>
      <point x="552" y="286" type="curve"/>
      <point x="552" y="312" type="line"/>
      <point x="568" y="792" type="line"/>
      <point x="646" y="792" type="line"/>
      <point x="620" y="769"/>
      <point x="614" y="551"/>
      <point x="614" y="350" type="curve" smooth="yes"/>
      <point x="614" y="173"/>
      <point x="619" y="8"/>
    </contour>
  </outline>
</glyph>
